<?xml version="1.0" encoding="utf-8"?>
<!-- Generator: Adobe Illustrator 24.2.1, SVG Export Plug-In . SVG Version: 6.00 Build 0)  -->
<svg version="1.1" id="Capa_1" xmlns="http://www.w3.org/2000/svg" xmlns:xlink="http://www.w3.org/1999/xlink" x="0px" y="0px"
	 viewBox="0 0 20 20" enable-background="new 0 0 20 20" xml:space="preserve">
<path fill="#004D92" d="M19.7,3.5c0,0-0.5,0.3-0.6,1c-0.1,0.3-3.1,14.4-3.1,14.4l0,0c-0.1,0.6-0.7,1.1-1.3,1.1l-5.8,0H5.2
	c-0.7,0-1.2-0.5-1.3-1.1l0,0c0,0-3-14.1-3.1-14.4C0.7,3.8,0.3,3.5,0.3,3.5l2.8,0.3l0,0c0.3,0.1,0.6,0.3,0.6,0.6l0,0l2.5,12
	c0.1,0.5,0.2,0.8,1.4,0.8H11c0,0,1.2,0,1.3,0c1.2,0,1.2-0.3,1.4-0.8l2.5-12l0,0c0.1-0.3,0.3-0.6,0.6-0.6l0,0L19.7,3.5z"/>
<path fill="#DE1C3E" d="M15.7,0C16.4,0,17,0.6,17,1.2c0,0.7-0.6,1.2-1.2,1.2c-0.1,0-0.1,0-0.2,0l-4.9,12.5c-0.2,0.8-1,1.4-1.9,1.4
	c-1.1,0-2-0.9-2-2c0-0.3,0.1-0.5,0.2-0.8l0,0c0.1-0.3,0.3-0.4,0.4-0.6L14.8,2c-0.2-0.2-0.3-0.5-0.3-0.8C14.5,0.6,15,0,15.7,0"/>
</svg>
