<?xml version="1.0" encoding="utf-8"?>
<!-- Generator: Adobe Illustrator 24.2.1, SVG Export Plug-In . SVG Version: 6.00 Build 0)  -->
<svg version="1.1" id="Capa_1" xmlns="http://www.w3.org/2000/svg" xmlns:xlink="http://www.w3.org/1999/xlink" x="0px" y="0px"
	 viewBox="0 0 30 30" enable-background="new 0 0 30 30" xml:space="preserve">
<path fill="#DE1C3D" d="M30,19.9c0,0.7-0.7,1.1-1.1,1.5c-1.2,0.9-2.4,1.9-3.6,3c-1,0.9-2,1.8-2.9,2.4c-0.7,0.6-2,1.3-4.1,1.3H7.9
	c-2,0-2.9,0.2-3.4,0.5c-0.1,0-0.2,0.1-0.3,0.1c-0.3,0-0.5-0.1-0.6-0.4c-0.2-0.3,0-0.8,0.3-0.9c0.8-0.4,2.1-0.6,4-0.6h10.4
	c1.6,0,2.7-0.5,3.2-1c0.9-0.7,1.8-1.5,2.8-2.4c1.2-1.1,2.5-2.2,3.7-3.1c0.2-0.2,0.6-0.4,0.6-0.5c0-0.1-0.7-0.7-1.5-0.9
	c-0.7-0.1-1.1,0-1.8,0.5c-2,1.2-4.6,3.4-4.6,3.4c-0.1,0.1-0.3,0.2-0.4,0.2h-9.1c-0.4,0-0.7-0.3-0.7-0.7s0.3-0.7,0.7-0.7h6.7v-0.3
	c0-1-0.7-1.7-1.7-1.8c-0.9-0.1-2.2-0.2-3.6-0.4c-1.6-0.2-3.3-0.3-4.7-0.5c-1-0.1-2.4,0.2-3.3,0.7c-0.4,0.3-0.9,0.6-1.4,0.8
	c-0.6,0.4-1.4,0.7-2.2,1.1c-0.3,0.2-0.8,0-0.9-0.3c-0.2-0.3,0-0.8,0.3-0.9c0.8-0.4,1.5-0.7,2.1-1.1c0.4-0.2,0.9-0.5,1.3-0.8
	C4.9,17.4,6.6,17,8,17.2c1.4,0.2,3,0.3,4.6,0.5c1.4,0.1,2.7,0.3,3.7,0.4c1.7,0.2,3,1.5,3,3.2v0.3H20c0.7-0.5,2.8-2.3,4.6-3.3
	c1-0.6,1.8-0.8,2.7-0.6C28.6,17.7,30,18.7,30,19.9z M15.3,8.9c0-0.1,0.3-3.7,3.1-5.9c2.2-1.6,5.2-2.1,9-1.3c0.2,0.1,0.4,0.2,0.5,0.5
	c0.1,0.2,1.3,4.5-1.2,7.6c-1.6,2.1-4.4,3.2-8.3,3.2c-0.1,0-0.1,0-0.2,0c-0.6,1.4-0.9,2.5-0.9,2.5c-0.1,0.3-0.4,0.5-0.7,0.5
	c-0.1,0-0.1,0-0.2,0c-0.4-0.1-0.6-0.5-0.5-0.8c0.1-0.4,2.2-8.7,9-12.4c-2.4-0.2-4.4,0.2-5.8,1.3C16.9,6,16.7,9,16.7,9
	c0,0.4-0.3,0.7-0.7,0.6C15.5,9.6,15.3,9.3,15.3,8.9z M26.7,3.6c-4,1.8-6.5,5.3-7.9,8.2c3.2-0.1,5.5-1,6.8-2.6
	C27,7.3,26.9,4.8,26.7,3.6z"/>
</svg>
