<?xml version="1.0" encoding="utf-8"?>
<!-- Generator: Adobe Illustrator 24.2.1, SVG Export Plug-In . SVG Version: 6.00 Build 0)  -->
<svg version="1.1" id="Capa_1" xmlns="http://www.w3.org/2000/svg" xmlns:xlink="http://www.w3.org/1999/xlink" x="0px" y="0px"
	 viewBox="0 0 30 30" enable-background="new 0 0 30 30" xml:space="preserve">
<path fill="#FFFFFF" d="M11.2,24c0,0.4-0.3,0.7-0.7,0.7H6.6c-0.4,0-0.7-0.3-0.7-0.7s0.3-0.7,0.7-0.7h3.8
	C10.8,23.3,11.2,23.6,11.2,24z M17.2,23.3h-3.8c-0.4,0-0.7,0.3-0.7,0.7s0.3,0.7,0.7,0.7h3.8c0.4,0,0.7-0.3,0.7-0.7
	S17.6,23.3,17.2,23.3z M23.9,23.3h-3.8c-0.4,0-0.7,0.3-0.7,0.7s0.3,0.7,0.7,0.7h3.8c0.4,0,0.7-0.3,0.7-0.7S24.3,23.3,23.9,23.3z
	 M28.8,4.7v20.6c0,2.6-2,4.7-4.3,4.7H5.5c-2.4,0-4.3-2.1-4.3-4.7V4.7c0-2.6,2-4.7,4.3-4.7h18.9C26.9,0,28.8,2.1,28.8,4.7z M27.4,4.7
	c0-1.8-1.3-3.3-2.9-3.3H5.5c-1.6,0-2.9,1.5-2.9,3.3v20.6c0,1.8,1.3,3.3,2.9,3.3h18.9c1.6,0,2.9-1.5,2.9-3.3V4.7z M5.8,18.9V5.3
	c0-0.4,0.3-0.7,0.7-0.7h17c0.4,0,0.7,0.3,0.7,0.7v13.6c0,0.4-0.3,0.7-0.7,0.7h-17C6.1,19.6,5.8,19.3,5.8,18.9z M7.2,18.2h15.6V6H7.2
	V18.2z M17.4,12.4c0.3,0.8,0.1,1.7-0.3,2.3c-0.5,0.6-1.2,1-2.1,1c-0.8,0-1.5-0.4-2-1c-0.5-0.7-0.6-1.6-0.3-2.4
	c0.3-0.7,1.6-3.6,1.7-3.7c0.1-0.2,0.4-0.4,0.6-0.4c0.3,0,0.5,0.1,0.6,0.4C15.6,8.7,17,11.3,17.4,12.4z M16.1,12.9
	c-0.2-0.5-0.6-1.5-1.1-2.4c-0.4,0.9-0.9,2-1,2.3c-0.1,0.3-0.1,0.8,0.1,1.1c0.2,0.3,0.5,0.4,0.8,0.4c0.5,0,0.8-0.1,1-0.4
	C16.1,13.7,16.2,13.2,16.1,12.9z"/>
</svg>
