<?xml version="1.0" encoding="utf-8"?>
<!-- Generator: Adobe Illustrator 24.2.1, SVG Export Plug-In . SVG Version: 6.00 Build 0)  -->
<svg version="1.1" id="Capa_1" xmlns="http://www.w3.org/2000/svg" xmlns:xlink="http://www.w3.org/1999/xlink" x="0px" y="0px"
	 viewBox="0 0 30 30" enable-background="new 0 0 30 30" xml:space="preserve">
<path fill="#DE1C3D" d="M28.7,12.8l-0.3-0.2c-1-0.7-1.5-2.3-1.1-3.5l0.1-0.4c0.3-0.9,0.2-1.9-0.3-2.5c-0.5-0.7-1.3-1.1-2.3-1l-0.4,0
	c-1.3,0-2.6-1-3-2.2l-0.1-0.4c-0.3-0.9-0.9-1.6-1.7-1.9c-0.8-0.3-1.7-0.1-2.5,0.5l-0.3,0.2c-1,0.8-2.7,0.8-3.7,0l-0.3-0.2
	c-0.8-0.6-1.7-0.8-2.5-0.5C9.6,1,8.9,1.7,8.7,2.6L8.6,3c-0.4,1.2-1.7,2.2-3,2.2l-0.4,0c-1,0-1.8,0.4-2.3,1C2.4,6.9,2.3,7.8,2.6,8.7
	l0.1,0.4c0.4,1.2-0.1,2.8-1.1,3.5l-0.3,0.2C0.5,13.4,0,14.2,0,15c0,0.8,0.5,1.6,1.3,2.2l0.3,0.2c1,0.7,1.5,2.3,1.1,3.5l-0.1,0.4
	c-0.3,0.9-0.2,1.9,0.3,2.5c0.5,0.7,1.3,1.1,2.3,1l0.4,0c0,0,0,0,0.1,0c1.2,0,2.6,1,2.9,2.2l0.1,0.4c0.3,0.9,0.9,1.6,1.7,1.9
	c0.2,0.1,0.5,0.1,0.7,0.1c0.6,0,1.2-0.2,1.8-0.6l0.3-0.2c1-0.8,2.7-0.8,3.7,0l0.3,0.2c0.8,0.6,1.7,0.8,2.5,0.5
	c0.8-0.3,1.4-1,1.7-1.9l0.1-0.4c0.4-1.2,1.7-2.2,3-2.2l0.4,0c1,0,1.8-0.4,2.3-1c0.5-0.7,0.6-1.6,0.3-2.5l-0.1-0.4
	c-0.4-1.2,0.1-2.8,1.1-3.5l0.3-0.2c0.8-0.6,1.3-1.4,1.3-2.2C30,14.2,29.5,13.4,28.7,12.8z M27.9,16l-0.3,0.2
	c-1.6,1.1-2.3,3.3-1.7,5.1l0.1,0.4c0.2,0.5,0.1,0.9-0.1,1.2c-0.2,0.3-0.6,0.5-1.1,0.4l-0.4,0c-1.9-0.1-3.8,1.3-4.4,3.2L20,27
	c-0.1,0.5-0.4,0.8-0.8,0.9c-0.4,0.1-0.8,0-1.2-0.3l-0.3-0.2c-1.5-1.2-3.9-1.2-5.4,0L12,27.6c-0.4,0.3-0.8,0.4-1.2,0.3
	c-0.4-0.1-0.6-0.5-0.8-0.9l-0.1-0.4c-0.5-1.8-2.4-3.2-4.3-3.2c0,0-0.1,0-0.1,0l-0.4,0c-0.5,0-0.9-0.1-1.1-0.4
	c-0.2-0.3-0.2-0.7-0.1-1.2l0.1-0.4c0.6-1.8-0.1-4-1.7-5.1L2.1,16c-0.4-0.3-0.7-0.7-0.7-1s0.2-0.7,0.7-1l0.3-0.2
	c1.6-1.1,2.3-3.3,1.7-5.1L3.9,8.2C3.8,7.8,3.8,7.3,4,7c0.2-0.3,0.6-0.5,1.1-0.4l0.4,0c1.9,0,3.8-1.3,4.4-3.2L10,3
	c0.1-0.5,0.4-0.8,0.8-0.9c0.4-0.1,0.8,0,1.2,0.3l0.3,0.2c0,0,0,0,0,0c1.5,1.2,3.9,1.2,5.4,0L18,2.4c0.4-0.3,0.8-0.4,1.2-0.3
	C19.5,2.2,19.8,2.5,20,3l0.1,0.4c0.5,1.8,2.5,3.2,4.4,3.2l0.4,0c0.5,0,0.9,0.1,1.1,0.4c0.2,0.3,0.2,0.7,0.1,1.2l-0.1,0.4
	c-0.6,1.8,0.1,4,1.7,5.1l0.3,0.2c0.4,0.3,0.7,0.7,0.7,1S28.3,15.7,27.9,16z M13.5,12.3c0-1.5-1.3-2.8-2.8-2.8s-2.8,1.3-2.8,2.8
	s1.3,2.8,2.8,2.8S13.5,13.8,13.5,12.3z M9.4,12.3c0-0.8,0.6-1.4,1.4-1.4s1.4,0.6,1.4,1.4s-0.6,1.4-1.4,1.4S9.4,13,9.4,12.3z
	 M19.3,15.5c-1.5,0-2.8,1.3-2.8,2.8c0,1.5,1.3,2.8,2.8,2.8s2.8-1.3,2.8-2.8C22.1,16.8,20.8,15.5,19.3,15.5z M19.3,19.7
	c-0.8,0-1.4-0.6-1.4-1.4c0-0.8,0.6-1.4,1.4-1.4c0.8,0,1.4,0.6,1.4,1.4C20.6,19.1,20,19.7,19.3,19.7z M19.9,11.3l-9,9
	c-0.1,0.1-0.3,0.2-0.5,0.2s-0.4-0.1-0.5-0.2c-0.3-0.3-0.3-0.7,0-1l9-9c0.3-0.3,0.7-0.3,1,0C20.1,10.6,20.1,11.1,19.9,11.3z"/>
</svg>
