<?xml version="1.0" encoding="utf-8"?>
<!-- Generator: Adobe Illustrator 24.2.1, SVG Export Plug-In . SVG Version: 6.00 Build 0)  -->
<svg version="1.1" id="Capa_1" xmlns="http://www.w3.org/2000/svg" xmlns:xlink="http://www.w3.org/1999/xlink" x="0px" y="0px"
	 viewBox="0 0 30 30" enable-background="new 0 0 30 30" xml:space="preserve">
<path fill="#DE1C3D" d="M27,12V8.7C27,8.4,26.7,8,26.3,8H3.7C3.3,8,3,8.4,3,8.7V12c-1.5,0.2-2.6,1.5-2.6,3.1c0,0,0,0.1,0,0.1
	l1.7,11.7c0,1.7,1.4,3.1,3,3.1h19.7c1.6,0,3-1.4,3-3.1l1.7-11.7c0,0,0-0.1,0-0.1C29.6,13.5,28.5,12.2,27,12z M25.6,9.4v2.5H4.4V9.4
	H25.6z M26.4,26.8c0,1-0.7,1.8-1.6,1.8H5.2c-0.9,0-1.6-0.8-1.6-1.8c0,0,0-0.1,0-0.1L1.8,15.1c0-1,0.7-1.7,1.6-1.7h23.2
	c0.9,0,1.6,0.8,1.6,1.7l-0.3,1.9H15.2c-0.4,0-0.7,0.3-0.7,0.7v6.2c0,0.4,0.3,0.7,0.7,0.7h11.5l-0.3,2.2
	C26.5,26.8,26.4,26.8,26.4,26.8z M27,23.1H15.9v-4.8h11.8L27,23.1z M6.2,7.5c-0.7-3,1.4-4.3,3-5.3c0.9-0.5,1.7-1,1.8-1.7
	c0,0,0-0.1,0-0.1c0,0,0-0.1,0.1-0.1c0,0,0.1-0.1,0.1-0.1c0,0,0.1-0.1,0.1-0.1c0,0,0.1,0,0.1-0.1c0,0,0.1,0,0.1,0c0,0,0,0,0,0
	c0,0,0.1,0,0.1,0c0,0,0.1,0,0.1,0c0,0,0,0,0,0c0,0,0.1,0,0.1,0c0,0,0.1,0,0.1,0.1c0,0,0.1,0.1,0.1,0.1c0,0,0.1,0.1,0.1,0.1
	c0,0,0,0.1,0.1,0.1c0,0,0,0,0,0.1c0.6,2.1,2,3.2,4.2,3.2l0.4,0c1.8,0,6.2-0.1,7.1,3.5c0.1,0.4-0.1,0.8-0.5,0.9c-0.1,0-0.1,0-0.2,0
	c-0.3,0-0.6-0.2-0.7-0.5C22,5,18.7,5,16.9,5.1l-0.5,0c-2.3,0-4-1-5-2.9C11,2.7,10.4,3,9.9,3.4C8.1,4.5,7.1,5.3,7.5,7.2
	C7.6,7.5,7.4,7.9,7,8C6.9,8,6.9,8,6.8,8C6.5,8,6.2,7.8,6.2,7.5z"/>
</svg>
