<?xml version="1.0" encoding="utf-8"?>
<!-- Generator: Adobe Illustrator 24.2.1, SVG Export Plug-In . SVG Version: 6.00 Build 0)  -->
<svg version="1.1" id="Capa_1" xmlns="http://www.w3.org/2000/svg" xmlns:xlink="http://www.w3.org/1999/xlink" x="0px" y="0px"
	 viewBox="0 0 30 30" enable-background="new 0 0 30 30" xml:space="preserve">
<path fill="#DE1C3D" d="M19.4,11c1.9-1,3.2-2.9,3.2-5.2C22.6,2.6,20,0,16.8,0S11,2.6,11,5.8c0,2.2,1.2,4,2.9,5
	c-1.9,0.5-3,1.6-3.6,2.3c-0.6-0.5-1.4-0.8-2.3-0.8c-2,0-3.7,1.6-3.7,3.7c0,1.6,1,3,2.5,3.5c-0.8,0.8-1.1,2-0.7,3.5
	c0.7,2.6,3.3,6.1,6.7,6.1c0.1,0,0.1,0,0.2,0c0.1,0.1,0.1,0.1,0.2,0.2c0.6,0.4,1.5,0.8,2.8,0.8c1,0,2.4-0.2,4-0.8
	c4.9-1.6,6.5-5.6,4.7-11.8C24,14,22.1,11.8,19.4,11z M12.3,5.8c0-2.5,2-4.5,4.5-4.5s4.5,2,4.5,4.5s-2,4.5-4.5,4.5S12.3,8.3,12.3,5.8
	z M5.7,16c0-1.3,1.1-2.4,2.4-2.4c0.7,0,1.3,0.3,1.7,0.8c0,0.1,0.1,0.2,0.2,0.3c0.2,0.4,0.4,0.8,0.4,1.3c0,1.3-1.1,2.4-2.4,2.4
	S5.7,17.3,5.7,16z M7.5,22.6c-0.5-1.9,0.3-2.4,1.1-2.7c0.2-0.1,0.6-0.2,1-0.4c1.7-0.6,5.2-1.8,6-1.9c1.3-0.2,1.4-0.1,1.5,0.3
	c0.2,0.6,0.2,1-0.7,1.4c-1.1,0.5-2.8,1.5-2.8,1.5c-0.3,0.2-0.4,0.5-0.3,0.8l1.2,3c-1.9,0.7-2.3,2.1-2.3,2.8c0,0.1,0,0.1,0,0.2
	C9.9,27.2,8,24.6,7.5,22.6z M19.8,28c-3.5,1.1-5,0.6-5.6,0.2c-0.5-0.3-0.6-0.6-0.6-0.7c0-0.8,0.6-1.4,1.8-1.7c0.3-0.1,0.6-0.1,1-0.2
	c1.5-0.3,3.6-0.7,4.5-2.4c0.8-1.3,0.7-3.1-0.1-5.5c-0.1-0.3-0.5-0.5-0.8-0.4c-0.3,0.1-0.5,0.5-0.4,0.8c0.7,1.9,0.8,3.4,0.2,4.4
	c-0.7,1.2-2.3,1.5-3.6,1.8c-0.1,0-0.2,0-0.3,0.1l-1-2.6c0.6-0.3,1.6-0.8,2.3-1.2c1.3-0.7,1.8-1.7,1.3-3c-0.5-1.6-2-1.3-3-1.2
	c-0.6,0.1-2.2,0.6-4,1.2c0.2-0.5,0.4-1,0.4-1.6c0-0.7-0.2-1.3-0.5-1.9c0.5-0.7,2.1-2.3,5.2-2.3c3.8,0,6.1,1.9,7.3,6
	C25.2,23.4,24,26.6,19.8,28z"/>
</svg>
