<?xml version="1.0" encoding="utf-8"?>
<!-- Generator: Adobe Illustrator 24.2.1, SVG Export Plug-In . SVG Version: 6.00 Build 0)  -->
<svg version="1.1" id="Capa_1" xmlns="http://www.w3.org/2000/svg" xmlns:xlink="http://www.w3.org/1999/xlink" x="0px" y="0px"
	 viewBox="0 0 30 30" enable-background="new 0 0 30 30" xml:space="preserve">
<path fill="#DE1C3D" d="M23.5,8.8L23.5,8.8l-0.1-2.2h0.4c0.4,0,0.7-0.3,0.7-0.7V0.7c0-0.4-0.3-0.7-0.7-0.7H6.2
	C5.8,0,5.5,0.3,5.5,0.7v5.2c0,0.4,0.3,0.7,0.7,0.7h0.4v2.2H6.5c-1.8,0-3.2,1.5-3.2,3.2v14.7c0,1.8,1.5,3.2,3.2,3.2h16.9
	c1.8,0,3.2-1.5,3.2-3.2V12C26.7,10.3,25.2,8.8,23.5,8.8z M25.3,22.7H13.2v-6.9h12.1V22.7z M23.1,5.2h-2.4V1.4h2.4V5.2z M15.7,5.2
	V1.4h3.7v3.9H15.7z M10.6,5.2V1.4h3.7v3.9H10.6z M6.9,1.4h2.3v3.9H6.9V1.4z M8,6.6h14v2.2H8V6.6z M23.5,28.6H6.5
	c-1,0-1.8-0.8-1.8-1.8V12c0-1,0.8-1.8,1.8-1.8h16.9c1,0,1.8,0.8,1.8,1.8v2.4H12.5c-0.4,0-0.7,0.3-0.7,0.7v8.3c0,0.4,0.3,0.7,0.7,0.7
	h12.8v2.6C25.3,27.8,24.5,28.6,23.5,28.6z"/>
</svg>
