<?xml version="1.0" encoding="utf-8"?>
<!-- Generator: Adobe Illustrator 24.2.1, SVG Export Plug-In . SVG Version: 6.00 Build 0)  -->
<svg version="1.1" id="Capa_1" xmlns="http://www.w3.org/2000/svg" xmlns:xlink="http://www.w3.org/1999/xlink" x="0px" y="0px"
	 viewBox="0 0 30 30" enable-background="new 0 0 30 30" xml:space="preserve">
<path fill="#DE1C3D" d="M27.4,0H16.8c-0.2,0-0.4,0.1-0.5,0.2c-0.1,0.1-0.2,0.3-0.2,0.5l1.8,21.7c0.1,1.1,0.7,2,1.6,2.5v3.7
	c0,0.4,0.3,0.7,0.7,0.7H24c0.4,0,0.7-0.3,0.7-0.7v-3.7c0.9-0.5,1.5-1.4,1.6-2.5L28,0.7c0-0.2,0-0.4-0.2-0.5C27.7,0.1,27.6,0,27.4,0z
	 M26.6,1.4l-0.2,2.9h-8.7l-0.2-2.9H26.6z M23.3,27.9h-2.5v-2.7h2.5V27.9z M24.9,22.3c-0.1,0.7-0.5,1.3-1.1,1.5h-3.5
	c-0.6-0.2-1-0.8-1.1-1.5L17.8,5.6h8.4L24.9,22.3z M25.2,9.2c0,0.4-0.3,0.7-0.7,0.7h-4.8c-0.4,0-0.7-0.3-0.7-0.7
	c0-0.4,0.3-0.7,0.7-0.7h4.8C24.9,8.6,25.2,8.9,25.2,9.2z M24.2,12c0,0.4-0.3,0.7-0.7,0.7h-2.9c-0.4,0-0.7-0.3-0.7-0.7
	c0-0.4,0.3-0.7,0.7-0.7h2.9C23.9,11.4,24.2,11.7,24.2,12z M10.9,10.3h-4c-2.7,0-4.9,2.2-4.9,4.9v9.8C2,27.8,4.2,30,6.9,30h4
	c2.7,0,4.9-2.2,4.9-4.9v-9.8C15.8,12.5,13.6,10.3,10.9,10.3z M14.5,25.1c0,2-1.6,3.6-3.6,3.6h-4c-2,0-3.6-1.6-3.6-3.6v-9.8
	c0-2,1.6-3.6,3.6-3.6h4c2,0,3.6,1.6,3.6,3.6V25.1z M8.5,13.8c0,0.4-0.3,0.7-0.7,0.7c-0.7,0-1.2,0.5-1.2,1.2l0,2.4
	c0,0.4-0.3,0.7-0.7,0.7s-0.7-0.3-0.7-0.7l0-2.4c0-1.4,1.1-2.6,2.6-2.6C8.1,13.1,8.5,13.4,8.5,13.8z"/>
</svg>
