<?xml version="1.0" encoding="utf-8"?>
<!-- Generator: Adobe Illustrator 24.2.1, SVG Export Plug-In . SVG Version: 6.00 Build 0)  -->
<svg version="1.1" id="Capa_1" xmlns="http://www.w3.org/2000/svg" xmlns:xlink="http://www.w3.org/1999/xlink" x="0px" y="0px"
	 viewBox="0 0 30 30" enable-background="new 0 0 30 30" xml:space="preserve">
<path fill="#FFFFFF" d="M6.8,1.2C3.1,1.2,0,4.3,0,8l0,7v6.9c0,3.8,3.1,6.8,6.8,6.8c3.8,0,6.8-3.1,6.8-6.8v-7V8.1
	C13.7,4.3,10.6,1.2,6.8,1.2z M6.8,27.5c-3,0-5.5-2.5-5.5-5.5v-6.3h11V22C12.4,25,9.9,27.5,6.8,27.5z M12.4,14.3h-11l0-6.3
	c0-3,2.5-5.5,5.5-5.5c3,0,5.5,2.5,5.5,5.5V14.3z M7.5,5.4c0,0.4-0.3,0.7-0.7,0.7c-1.1,0-2,0.9-2,2l0,3.4c0,0.4-0.3,0.7-0.7,0.7
	c-0.4,0-0.7-0.3-0.7-0.7l0-3.4c0-1.8,1.5-3.3,3.3-3.3C7.2,4.7,7.5,5,7.5,5.4z M22.1,13c-4.4,0-7.9,3.6-7.9,7.9s3.6,7.9,7.9,7.9
	s7.9-3.6,7.9-7.9S26.4,13,22.1,13z M15.5,20.9c0-1.6,0.6-3,1.5-4.2l9.3,9.3c-1.1,0.9-2.6,1.5-4.2,1.5C18.4,27.5,15.5,24.5,15.5,20.9
	z M27.2,25l-9.3-9.3c1.1-0.9,2.6-1.5,4.2-1.5c3.6,0,6.6,3,6.6,6.6C28.7,22.5,28.1,23.9,27.2,25z"/>
</svg>
