<?xml version="1.0" encoding="utf-8"?>
<!-- Generator: Adobe Illustrator 24.2.1, SVG Export Plug-In . SVG Version: 6.00 Build 0)  -->
<svg version="1.1" id="Capa_1" xmlns="http://www.w3.org/2000/svg" xmlns:xlink="http://www.w3.org/1999/xlink" x="0px" y="0px"
	 viewBox="0 0 30 30" enable-background="new 0 0 30 30" xml:space="preserve">
<path fill="#FFFFFF" d="M29,19.1c-0.9-1.8-2-4-1.1-11.3l0-0.2c0.2-1.7,0.4-3.5,0.6-4.9C28.7,2.3,28.4,2,28.1,2
	c-0.3-0.1-0.7,0.2-0.7,0.5C27.2,3.8,27,5.4,26.8,7l-8.3-0.5c0.1-2,0.1-4.2,0.1-4.2l-1.2,0c0,0-0.1,2.6-0.2,4.8c0,0,0,0,0,0
	c0,0,0,0,0,0l0,0.1c-0.1,1.5-0.7,5.8-1.8,7.1c-1.2,1.4-5.8,5.1-7.1,6.2c-0.7,0.6-1.2,1-1.4,1.1c-0.6,0.5-2.2,0.8-3.2,0.8
	c-0.5,0-1,0.1-1.4,0.2c-0.2,0-0.4,0.1-0.6,0.1c-0.9,0.1-1.6,0.7-1.7,1.6c-0.1,1.1,0.6,2.5,1.5,2.9C2.6,27.8,3.7,28,6.8,28
	c0,0,0,0,0,0c1.2,0,2.5-0.2,3.8-0.5l0.4-0.1c2.9-0.5,6.1-1.2,9.7,0.1c0.5,0.2,1.1,0.3,1.5,0.4c0.1,0.1,0.2,0.1,0.4,0.1
	c0.1,0,0.1,0,0.2,0c0,0,0,0,0,0c0.3,0,0.5,0,0.7,0c1.7,0,3-0.6,3.9-1.2c1.7-1.2,2.5-3,2.5-4.2C30,21.1,29.5,20.1,29,19.1z M6.8,26.8
	c-2.9,0-3.9-0.2-4.8-0.6c-0.4-0.2-0.8-1-0.7-1.6c0-0.3,0.2-0.5,0.6-0.6c0.2,0,0.4-0.1,0.7-0.1c0.4-0.1,0.8-0.2,1.2-0.2
	c1,0,3-0.3,4-1.1c0.1-0.1,0.4-0.3,0.8-0.7c0.3,0.5,0.6,1.3,1,2.1c0.4,0.9,0.4,1.8,0.4,2.4C8.8,26.6,7.8,26.8,6.8,26.8
	C6.9,26.8,6.8,26.8,6.8,26.8z M16.3,25.6c-1.8,0-3.5,0.3-5.1,0.6c0-0.7-0.1-1.7-0.5-2.6c-0.4-1-0.9-1.9-1.1-2.4
	c1.9-1.6,5.7-4.7,6.9-6.1c1.4-1.6,1.9-5.7,2-7.3l8.2,0.5c-0.4,4.1-0.3,6.6,0.1,8.4c0,0,0,0,0,0c-1.6,0.2-3.1,1.3-4.1,2.8
	c-1.2,1.9-1.5,4.4-0.9,7.1c-0.2-0.1-0.4-0.1-0.6-0.2C19.4,25.8,17.8,25.6,16.3,25.6z M26.7,25.8c-0.8,0.6-2,1.1-3.6,1
	c-0.7-2.6-0.5-4.9,0.6-6.7c0.8-1.2,1.9-2,3.2-2.2c0.1,0,0.1,0,0.2-0.1c0.2,0.7,0.5,1.3,0.8,1.8c0.5,0.9,0.8,1.7,0.8,3
	C28.8,23.4,28.1,24.8,26.7,25.8z"/>
</svg>
