<?xml version="1.0" encoding="utf-8"?>
<!-- Generator: Adobe Illustrator 19.0.0, SVG Export Plug-In . SVG Version: 6.00 Build 0)  -->
<svg version="1.1" id="Ñëîé_1" xmlns="http://www.w3.org/2000/svg" xmlns:xlink="http://www.w3.org/1999/xlink" x="0px" y="0px"
	 viewBox="0 0 274.3 509.3" style="enable-background:new 0 0 274.3 509.3;" xml:space="preserve">
<style type="text/css">
	.st0{fill-rule:evenodd;clip-rule:evenodd;fill:#004D92;}
	.st1{fill-rule:evenodd;clip-rule:evenodd;fill:#749EC3;}
	.st2{fill-rule:evenodd;clip-rule:evenodd;fill:#003154;}
	.st3{fill:#FFFFFF;}
	.st4{fill:#CCCCCC;}
	.st5{fill:url(#SVGID_1_);}
	.st6{fill:url(#SVGID_2_);}
	.st7{fill:url(#SVGID_3_);}
	.st8{fill:url(#SVGID_4_);}
	.st9{fill:#E99867;}
	.st10{fill:url(#SVGID_5_);}
	.st11{fill:#D20821;}
	.st12{fill:url(#SVGID_6_);}
	.st13{fill:#BEB7B7;}
	.st14{fill:url(#SVGID_7_);}
	.st15{fill:url(#SVGID_8_);}
	.st16{fill:url(#SVGID_9_);}
	.st17{fill:url(#SVGID_10_);}
	.st18{fill:#C47759;}
	.st19{fill:url(#SVGID_11_);}
	.st20{fill:url(#SVGID_12_);}
	.st21{fill:url(#SVGID_13_);}
	.st22{fill:#FFD297;}
	.st23{fill:url(#SVGID_14_);}
	.st24{fill:url(#SVGID_15_);}
	.st25{fill:#FFD3BC;}
	.st26{fill:#CB7745;}
	.st27{fill:url(#SVGID_16_);}
	.st28{fill:#2D0B01;}
	.st29{fill:url(#SVGID_17_);}
	.st30{fill:#1F191A;}
	.st31{opacity:0.5;fill:#FFFFFF;}
	.st32{fill:url(#SVGID_18_);}
	.st33{fill:url(#SVGID_19_);}
	.st34{fill:#350101;}
	.st35{fill:#520403;}
	.st36{fill:url(#SVGID_20_);}
	.st37{fill:#915050;}
	.st38{fill:#3F0202;}
	.st39{fill:#A72E29;}
	.st40{fill:url(#SVGID_21_);}
	.st41{fill:#004D92;}
	.st42{fill:#DE1C3E;}
	.st43{fill-rule:evenodd;clip-rule:evenodd;fill:#74BAAD;}
	.st44{fill-rule:evenodd;clip-rule:evenodd;fill:#7BC6B8;}
	.st45{fill-rule:evenodd;clip-rule:evenodd;fill:#C5EAE1;}
	.st46{fill-rule:evenodd;clip-rule:evenodd;fill:#E3F2DD;}
	.st47{fill-rule:evenodd;clip-rule:evenodd;fill:#FFFFFF;}
	.st48{fill-rule:evenodd;clip-rule:evenodd;fill:#110F27;}
	.st49{fill-rule:evenodd;clip-rule:evenodd;fill:#171739;}
	.st50{fill-rule:evenodd;clip-rule:evenodd;fill:#5F0D08;}
	.st51{fill-rule:evenodd;clip-rule:evenodd;fill:#628E8E;}
	.st52{fill-rule:evenodd;clip-rule:evenodd;fill:#7BAAA5;}
	.st53{fill-rule:evenodd;clip-rule:evenodd;fill:#C2FCFF;}
	.st54{fill-rule:evenodd;clip-rule:evenodd;fill:#99C1B9;}
	.st55{fill-rule:evenodd;clip-rule:evenodd;fill:#3A76AB;}
	.st56{fill-rule:evenodd;clip-rule:evenodd;fill:#175D9C;}
	.st57{fill-rule:evenodd;clip-rule:evenodd;fill:#B4D6CF;}
	.st58{fill-rule:evenodd;clip-rule:evenodd;fill:#B50F0C;}
	.st59{fill:#7BAAA5;}
	.st60{fill:#7BC6B8;}
	.st61{fill:#C2FCFF;}
	.st62{fill-rule:evenodd;clip-rule:evenodd;fill:#280B0E;}
	.st63{fill-rule:evenodd;clip-rule:evenodd;fill:#F8CBBE;}
	.st64{fill-rule:evenodd;clip-rule:evenodd;fill:#F4AA92;}
	.st65{fill-rule:evenodd;clip-rule:evenodd;fill:#D97E66;}
	.st66{fill:url(#SVGID_22_);}
	.st67{fill:#514E4E;}
</style>
<g>
	<g>
		<g>
			<path class="st0" d="M26.6,52l210.6,1.5c1.1,0,2,1.3,2,2.8L239,237.6c0,1.5-0.9,2.8-2,2.8l-210.6-1.5c-1.1,0-2-1.3-2-2.8
				l0.2-181.3C24.6,53.2,25.5,52,26.6,52z"/>
			<path class="st1" d="M25.8,47l210.6,1.5c1.1,0,2,1.3,2,2.8l0,2.3L23.8,52l0-2.3C23.8,48.2,24.7,47,25.8,47z"/>
			<path class="st2" d="M238.2,235.5l0,2.1c0,1.5-0.9,2.8-2,2.8l-210.6-1.5c-1.1,0-2-1.3-2-2.8l0-2.1L238.2,235.5z"/>
		</g>
		<g id="XMLID_1_">
			<path id="XMLID_60_" class="st3" d="M90.5,92.3c-0.9,0-1.7,0.8-1.7,1.7c0,0.4,0.2,0.8,0.4,1.1L79.1,110c-0.2,0.3-0.3,0.4-0.5,0.8
				l0,0c-0.1,0.3-0.2,0.7-0.2,1.1c0,1.5,1.2,2.7,2.7,2.7c1.2,0,2.2-0.8,2.6-1.9l6.7-17c0.1,0,0.1,0,0.2,0c0.9,0,1.7-0.8,1.7-1.7
				C92.2,93.1,91.4,92.3,90.5,92.3"/>
			<path id="XMLID_59_" class="st3" d="M92,97.5L92,97.5c-0.5,0.1-0.8,0.4-0.9,0.9l0,0l-3.4,16.4c-0.2,0.6-0.3,1.1-1.9,1.1
				c-0.2,0-1.8,0-1.8,0h-4.6c-1.6,0-1.7-0.5-1.9-1.1l-3.4-16.4l0,0c-0.1-0.4-0.4-0.8-0.9-0.9l-0.1,0l-3.9-0.5c0,0,0.6,0.4,0.8,1.3
				c0.1,0.4,4.2,19.7,4.2,19.7l0,0.1c0.2,0.8,0.9,1.5,1.8,1.5h5l7.9,0c0.9,0,1.6-0.6,1.8-1.5l0-0.1c0,0,4.1-19.3,4.2-19.7
				c0.1-0.9,0.8-1.3,0.8-1.3L92,97.5z"/>
			<path id="XMLID_58_" class="st3" d="M97.5,100.9h-1v-1.4h1c0-0.9,0.2-1.6,0.5-1.9c0.4-0.3,1-0.5,1.9-0.5c0.1,0,0.4,0,0.7,0l0.3,0
				v1.5c-0.2,0-0.4,0-0.6,0c-0.3,0-0.5,0-0.6,0.1c-0.1,0.1-0.2,0.3-0.2,0.5v0.3h1.3v1.4h-1.3v5.1h-2.1V100.9z"/>
			<path id="XMLID_55_" class="st3" d="M101.6,101.6c0-0.4,0.1-0.8,0.3-1c0.2-0.3,0.4-0.5,0.7-0.7c0.3-0.2,0.6-0.3,0.9-0.3
				c0.3-0.1,0.7-0.1,1.1-0.1c0.4,0,0.8,0,1.2,0.1c0.3,0.1,0.7,0.2,0.9,0.3c0.3,0.2,0.5,0.4,0.7,0.7c0.2,0.3,0.2,0.6,0.2,1.1v2.8
				c0,0.4,0,0.7,0,0.9c0,0.3,0.1,0.5,0.2,0.7h-2.1c0-0.1-0.1-0.3-0.1-0.6c-0.3,0.3-0.6,0.5-1,0.6c-0.4,0.1-0.8,0.2-1.2,0.2
				c-0.6,0-1.2-0.2-1.6-0.5c-0.4-0.3-0.6-0.8-0.6-1.5c0-0.4,0.1-0.7,0.2-1c0.2-0.3,0.4-0.5,0.7-0.6c0.3-0.1,0.6-0.2,0.9-0.3
				c0.3-0.1,0.7-0.1,1.1-0.2c0.4-0.1,0.7-0.1,0.9-0.1c0.2,0,0.3-0.1,0.4-0.2c0.1-0.1,0.1-0.2,0.1-0.4c0-0.2-0.1-0.4-0.3-0.5
				c-0.2-0.1-0.4-0.2-0.7-0.2c-0.6,0-1,0.3-1.1,0.8H101.6z M103.7,104.7c0.2,0.1,0.4,0.2,0.6,0.2c0.5,0,0.8-0.1,1-0.4
				c0.2-0.3,0.3-0.8,0.3-1.5c-0.1,0.1-0.2,0.1-0.3,0.1c-0.1,0-0.3,0.1-0.5,0.1c-0.2,0-0.4,0.1-0.5,0.1c-0.3,0.1-0.5,0.2-0.6,0.3
				c-0.2,0.1-0.2,0.3-0.2,0.5C103.4,104.4,103.5,104.6,103.7,104.7"/>
			<path id="XMLID_54_" class="st3" d="M109.1,99.6h2.1v1.1h0c0.2-0.4,0.4-0.7,0.7-0.9c0.3-0.2,0.7-0.3,1.2-0.3c0.2,0,0.4,0,0.5,0
				v1.9c-0.3-0.1-0.6-0.1-0.8-0.1c-0.5,0-0.9,0.1-1.2,0.4c-0.3,0.3-0.4,0.7-0.4,1.1v3.2h-2.1V99.6z"/>
			<path id="XMLID_53_" class="st3" d="M114.4,99.6h2.1v0.9h0c0.2-0.3,0.5-0.6,0.8-0.8c0.3-0.2,0.7-0.3,1.1-0.3
				c0.4,0,0.8,0.1,1.1,0.2c0.3,0.2,0.6,0.4,0.7,0.8c0.5-0.7,1.2-1,2-1c0.5,0,0.9,0.1,1.2,0.2c0.3,0.2,0.5,0.4,0.7,0.6
				c0.2,0.3,0.3,0.6,0.3,0.9c0.1,0.3,0.1,0.7,0.1,1v3.9h-2.1v-3.8c0-0.3-0.1-0.6-0.2-0.8c-0.2-0.2-0.4-0.3-0.6-0.3
				c-0.4,0-0.7,0.1-0.8,0.4c-0.1,0.3-0.2,0.7-0.2,1.3v3.2h-2.1v-3.7c0-0.4-0.1-0.7-0.2-0.9c-0.1-0.2-0.3-0.3-0.6-0.3
				c-0.4,0-0.7,0.1-0.8,0.4c-0.2,0.3-0.2,0.7-0.2,1.4v3.1h-2.1V99.6z"/>
			<path id="XMLID_50_" class="st3" d="M125.8,101.6c0-0.4,0.1-0.8,0.3-1c0.2-0.3,0.4-0.5,0.7-0.7c0.3-0.2,0.6-0.3,0.9-0.3
				c0.3-0.1,0.7-0.1,1.1-0.1c0.4,0,0.8,0,1.2,0.1c0.3,0.1,0.7,0.2,0.9,0.3c0.3,0.2,0.5,0.4,0.7,0.7c0.2,0.3,0.2,0.6,0.2,1.1v2.8
				c0,0.4,0,0.7,0,0.9c0,0.3,0.1,0.5,0.2,0.7H130c0-0.1-0.1-0.3-0.1-0.6c-0.3,0.3-0.6,0.5-1,0.6c-0.4,0.1-0.8,0.2-1.2,0.2
				c-0.6,0-1.2-0.2-1.6-0.5c-0.4-0.3-0.6-0.8-0.6-1.5c0-0.4,0.1-0.7,0.2-1c0.2-0.3,0.4-0.5,0.7-0.6c0.3-0.1,0.6-0.2,0.9-0.3
				c0.3-0.1,0.7-0.1,1.1-0.2c0.4-0.1,0.7-0.1,0.9-0.1c0.2,0,0.3-0.1,0.4-0.2c0.1-0.1,0.1-0.2,0.1-0.4c0-0.2-0.1-0.4-0.3-0.5
				c-0.2-0.1-0.4-0.2-0.7-0.2c-0.6,0-1,0.3-1.1,0.8H125.8z M127.9,104.7c0.2,0.1,0.4,0.2,0.6,0.2c0.5,0,0.8-0.1,1-0.4
				c0.2-0.3,0.3-0.8,0.3-1.5c-0.1,0.1-0.2,0.1-0.3,0.1c-0.1,0-0.3,0.1-0.5,0.1c-0.2,0-0.4,0.1-0.5,0.1c-0.3,0.1-0.5,0.2-0.6,0.3
				c-0.2,0.1-0.2,0.3-0.2,0.5C127.6,104.4,127.7,104.6,127.9,104.7"/>
			<path id="XMLID_49_" class="st3" d="M137.5,101.9c0-0.3-0.1-0.5-0.3-0.7c-0.2-0.2-0.4-0.3-0.7-0.3c-0.3,0-0.5,0.1-0.7,0.2
				c-0.2,0.1-0.3,0.3-0.4,0.4c-0.1,0.2-0.2,0.4-0.2,0.6c0,0.2-0.1,0.5-0.1,0.7c0,0.5,0.1,0.9,0.3,1.2c0.2,0.3,0.5,0.5,0.9,0.5
				c0.4,0,0.6-0.1,0.8-0.3c0.2-0.2,0.3-0.5,0.4-0.8h2.1c-0.1,0.8-0.4,1.5-1,2c-0.6,0.5-1.3,0.7-2.2,0.7c-0.5,0-0.9-0.1-1.3-0.2
				c-0.4-0.2-0.8-0.4-1.1-0.7c-0.3-0.3-0.5-0.6-0.7-1.1c-0.2-0.4-0.3-0.9-0.3-1.3c0-0.5,0.1-1,0.2-1.4c0.2-0.4,0.4-0.8,0.7-1.1
				c0.3-0.3,0.7-0.6,1.1-0.7c0.4-0.2,0.9-0.3,1.4-0.3c0.8,0,1.6,0.2,2.2,0.7c0.6,0.4,0.9,1.1,1,1.9H137.5z"/>
			<rect id="XMLID_48_" x="140.7" y="99.6" class="st3" width="2.1" height="6.5"/>
			<path id="XMLID_45_" class="st3" d="M144.2,101.6c0-0.4,0.1-0.8,0.3-1c0.2-0.3,0.4-0.5,0.7-0.7c0.3-0.2,0.6-0.3,0.9-0.3
				c0.3-0.1,0.7-0.1,1.1-0.1c0.4,0,0.8,0,1.2,0.1c0.3,0.1,0.7,0.2,0.9,0.3c0.3,0.2,0.5,0.4,0.7,0.7c0.2,0.3,0.2,0.6,0.2,1.1v2.8
				c0,0.4,0,0.7,0,0.9c0,0.3,0.1,0.5,0.2,0.7h-2.1c0-0.1-0.1-0.3-0.1-0.6c-0.3,0.3-0.6,0.5-1,0.6c-0.4,0.1-0.8,0.2-1.2,0.2
				c-0.6,0-1.2-0.2-1.6-0.5c-0.4-0.3-0.6-0.8-0.6-1.5c0-0.4,0.1-0.7,0.2-1c0.2-0.3,0.4-0.5,0.7-0.6c0.3-0.1,0.6-0.2,0.9-0.3
				c0.3-0.1,0.7-0.1,1.1-0.2c0.4-0.1,0.7-0.1,0.9-0.1c0.2,0,0.3-0.1,0.4-0.2c0.1-0.1,0.1-0.2,0.1-0.4c0-0.2-0.1-0.4-0.3-0.5
				c-0.2-0.1-0.4-0.2-0.7-0.2c-0.6,0-1,0.3-1.1,0.8H144.2z M146.3,104.7c0.2,0.1,0.4,0.2,0.6,0.2c0.5,0,0.8-0.1,1-0.4
				c0.2-0.3,0.3-0.8,0.3-1.5c-0.1,0.1-0.2,0.1-0.3,0.1c-0.1,0-0.3,0.1-0.5,0.1c-0.2,0-0.4,0.1-0.5,0.1c-0.3,0.1-0.5,0.2-0.6,0.3
				c-0.2,0.1-0.2,0.3-0.2,0.5C146.1,104.4,146.2,104.6,146.3,104.7"/>
			<path id="XMLID_44_" class="st3" d="M95.5,107.7h4.4l-0.3,1.5h0c1.1-1.2,2.5-1.8,4.2-1.8c1.1,0,2,0.3,2.7,1
				c0.7,0.7,0.9,1.7,0.6,3l-1.5,8.1h-4.5l1.2-6.2c0.1-0.8,0.2-1.4,0-1.8c-0.1-0.4-0.5-0.6-1.1-0.6c-0.2,0-0.4,0-0.6,0.1
				c-0.2,0.1-0.4,0.2-0.6,0.3c-0.2,0.2-0.4,0.4-0.6,0.7c-0.2,0.3-0.3,0.7-0.4,1.1l-1.2,6.2h-4.5L95.5,107.7z"/>
			<polygon id="XMLID_43_" class="st3" points="110.4,107.7 114.9,107.7 112.7,119.6 108.1,119.6 			"/>
			<polygon id="XMLID_42_" class="st3" points="123,119.6 117.7,119.6 116,107.7 120.8,107.7 121.3,114.9 121.3,114.9 124.5,107.7 
				129.1,107.7 			"/>
			<path id="XMLID_39_" class="st3" d="M132.6,114.7c-0.1,0.7,0.1,1.3,0.4,1.7c0.3,0.4,0.8,0.6,1.5,0.6c0.4,0,0.8-0.1,1.2-0.2
				c0.4-0.1,0.7-0.4,0.9-0.6h4.2c-0.7,1.2-1.6,2.2-2.8,2.8c-1.2,0.6-2.5,0.9-4,0.9c-0.9,0-1.8-0.1-2.6-0.4c-0.8-0.3-1.4-0.7-1.9-1.2
				c-0.5-0.5-0.8-1.2-1-1.9c-0.2-0.8-0.2-1.6,0-2.6c0.2-0.9,0.5-1.7,0.9-2.4c0.4-0.8,1-1.4,1.7-2c0.7-0.6,1.4-1,2.2-1.3
				c0.8-0.3,1.7-0.5,2.6-0.5c2.3,0,3.9,0.6,4.7,1.8c0.9,1.2,1.1,3,0.6,5.4H132.6z M137.4,112.3c0.1-0.6,0-1-0.3-1.4
				c-0.3-0.4-0.7-0.6-1.3-0.6c-1.3,0-2.2,0.7-2.7,2H137.4z"/>
			<path id="XMLID_38_" class="st3" d="M144.5,107.7h4.3l-0.4,1.9h0c0.5-0.7,1.1-1.3,1.7-1.7c0.6-0.4,1.3-0.5,2.1-0.5
				c0.4,0,0.9,0.1,1.3,0.2l-0.7,4c-0.3-0.1-0.5-0.2-0.8-0.2c-0.2,0-0.6-0.1-1-0.1c-0.9,0-1.6,0.3-2.2,0.9c-0.6,0.6-1,1.5-1.2,2.7
				l-0.9,4.7h-4.5L144.5,107.7z"/>
			<path id="XMLID_37_" class="st3" d="M160.8,111.2c0.1-0.4-0.1-0.7-0.4-0.9c-0.2-0.2-0.5-0.3-0.9-0.3c-0.4,0-0.7,0.1-1,0.2
				c-0.3,0.1-0.5,0.4-0.5,0.7c0,0.2,0,0.3,0.1,0.4c0.1,0.1,0.2,0.2,0.3,0.3c0.2,0.1,0.7,0.2,1.5,0.4c1,0.2,1.8,0.4,2.3,0.5
				c0.8,0.3,1.4,0.7,1.8,1.2c0.4,0.5,0.5,1.2,0.4,2.1c-0.1,0.8-0.4,1.4-0.9,2c-0.4,0.6-1,1-1.6,1.3c-0.6,0.3-1.3,0.5-2,0.7
				c-0.7,0.1-1.5,0.2-2.3,0.2c-0.7,0-1.4-0.1-2.1-0.2c-0.7-0.2-1.2-0.4-1.7-0.7c-0.5-0.3-0.9-0.8-1.1-1.3c-0.2-0.5-0.3-1.2-0.2-1.9
				h4.3c0,0.4,0.1,0.7,0.4,1c0.2,0.2,0.6,0.3,1.1,0.3c0.4,0,0.7-0.1,1.1-0.2c0.4-0.2,0.6-0.4,0.6-0.7c0.1-0.3,0-0.6-0.3-0.8
				c-0.3-0.2-0.9-0.3-1.9-0.5c-1.7-0.3-2.8-0.7-3.5-1.3c-0.6-0.6-0.9-1.4-0.7-2.4c0.1-0.7,0.4-1.3,0.9-1.8c0.4-0.5,1-0.9,1.5-1.2
				c0.6-0.3,1.2-0.5,1.9-0.6c0.7-0.1,1.3-0.2,2-0.2c0.7,0,1.4,0.1,2,0.2c0.6,0.1,1.2,0.3,1.7,0.6c0.5,0.3,0.9,0.7,1.1,1.2
				c0.3,0.5,0.3,1.1,0.2,1.8H160.8z"/>
			<path id="XMLID_34_" class="st3" d="M177.5,116.9c-0.1,0.5-0.2,1-0.2,1.5c0,0.4,0.1,0.8,0.2,1.2h-4.6c-0.1-0.3,0-0.7,0.1-1.1h0
				c-0.6,0.5-1.2,0.9-1.8,1.1c-0.7,0.2-1.4,0.3-2.2,0.3c-1.2,0-2.2-0.3-2.8-0.9c-0.7-0.6-0.9-1.5-0.7-2.7c0.1-0.7,0.4-1.4,0.8-1.8
				c0.4-0.5,0.9-0.9,1.5-1.1c0.6-0.3,1.2-0.5,1.7-0.6c0.6-0.1,1.3-0.2,2.1-0.3c0.6-0.1,1-0.1,1.3-0.2c0.4-0.1,0.7-0.2,1-0.3
				c0.2-0.1,0.4-0.4,0.5-0.7c0.1-0.4,0-0.6-0.3-0.8c-0.3-0.2-0.6-0.3-1-0.3c-0.6,0-1.1,0.1-1.4,0.4c-0.3,0.2-0.5,0.5-0.5,0.9h-4.2
				c0.2-0.8,0.5-1.4,1-2c0.5-0.5,1-0.9,1.6-1.2c0.6-0.3,1.3-0.5,2-0.6c0.7-0.1,1.4-0.1,2.2-0.1c1.3,0,2.4,0.1,3.1,0.4
				c0.7,0.3,1.2,0.6,1.5,1c0.3,0.4,0.4,0.9,0.4,1.4c0,0.5-0.1,1.1-0.2,1.9L177.5,116.9z M173.7,114.3c-0.5,0.2-1.1,0.4-1.9,0.6
				c-0.6,0.1-1,0.3-1.3,0.4c-0.3,0.2-0.4,0.5-0.5,0.8c-0.1,0.3,0,0.5,0.3,0.8c0.2,0.2,0.5,0.3,0.9,0.3c0.5,0,1-0.2,1.4-0.5
				c0.4-0.3,0.7-0.8,0.8-1.4L173.7,114.3z"/>
			<polygon id="XMLID_33_" class="st3" points="182.5,103.3 187.1,103.3 184,119.6 179.5,119.6 			"/>
			<path id="XMLID_32_" class="st3" d="M143,97.9c0,0.7-0.5,1.2-1.2,1.2c-0.7,0-1.2-0.5-1.2-1.2c0-0.7,0.5-1.2,1.2-1.2
				C142.4,96.7,143,97.2,143,97.9"/>
		</g>
	</g>
	<g>
		<g>
			<path class="st4" d="M113,166.1c-3.9,0.6-6.9,2.9-6.7,8.5c-4.3,0.7-15,2.3-14.6,6.8c0.4,4.6,2.5,50.5,0.9,55.8
				c-1.6,5.2-3.6,25.6-1.7,27.6c1.9,2,76.2,4.1,85.3-2.6c9-6.7-4.8-42.5-4.5-60c0.3-17.6,0.8-27.9-1.5-29.1
				C158.7,167,133.9,162.9,113,166.1z"/>
			<path class="st4" d="M95.6,227.2c7.2-12.7,10.2-26,13.6-40.1c0.7-2.9,0.6-5.6,0.1-8.2c-1-1.4-2.1-2.8-3.1-4.2
				c-1.2,0.2-11.3,1.7-13.8,4.4c3,13.5,1.4,22.2,0.6,35.8c-0.2,6.4,0.3,12.1,0,18.5c0.4-0.8,0.7-1.7,1-2.5
				C94.5,229.4,95,228,95.6,227.2z"/>
			<linearGradient id="SVGID_1_" gradientUnits="userSpaceOnUse" x1="139.4324" y1="179.4361" x2="168.6244" y2="179.4361">
				<stop  offset="0" style="stop-color:#FFFFFF"/>
				<stop  offset="0.8763" style="stop-color:#DCD8D7"/>
			</linearGradient>
			<path class="st5" d="M143.5,190.1c8.3,0.8,8-10.2,12.5-14.7c3-3,8.4-4,12.7-2.7c-0.5-0.5-1-0.9-1.7-1.1c-4.5-1.9-10.6-4.2-14.1-2
				c-7.2,4.5-10.6,16.9-13.5,18C140.4,189,141.6,190,143.5,190.1z"/>
			<linearGradient id="SVGID_2_" gradientUnits="userSpaceOnUse" x1="22.9071" y1="88.6999" x2="155.2701" y2="249.8595">
				<stop  offset="0" style="stop-color:#FFFFFF"/>
				<stop  offset="0.8763" style="stop-color:#DCD8D7"/>
			</linearGradient>
			<path class="st6" d="M153.2,234.7c-4.4-0.3-8.3,3.9-13,3c4.4-0.8,8.3-2.8,11.9-5.5c-5.5,1.7-10.8,3-16.6,2.2
				c5.9-1.3,13.8-2.2,18.8-6.3c3.2-7.1,22.9-46.5,14.4-55.3c-4.4-1.3-9.7-0.3-12.7,2.7c-4.4,4.4-4.2,15.5-12.5,14.7
				c-1.9-0.1-3.1-1.1-4-2.5c-0.5,0.2-1,0-1.4-0.5c-0.8-0.4-1.5-0.8-2.3-1.3c-1-1-3.9-1-5.3,1c-1.9,3.4-4.9,5.8-8.2,7.3
				c-2.9,1-4.4-2.4-5.3-3.9c-2.5-4.1-4.9-7.8-7.5-11.3c0.5,2.6,0.5,5.4-0.1,8.2c-3.3,14.1-6.4,27.4-13.6,40.1
				c-0.6,0.8-1.1,2.2-1.7,3.6c-0.3,0.9-0.6,1.7-1,2.5c-0.2,3.3-0.6,6.7-1.6,10.6c-1.1,8-1.9,19.5-0.5,21c0.8,0.9,15.1,1.7,31.8,1.9
				c4.8-1.2,9.8-2.3,15-3.4c8.2-1.9,23.4,0.4,20.5-10.8c-0.9-3.1-3.3-9.9-4.4-15.7c0,0,0,0,0,0C153.4,236,153.4,234.7,153.2,234.7z"
				/>
			<linearGradient id="SVGID_3_" gradientUnits="userSpaceOnUse" x1="92.4061" y1="178.1991" x2="107.4377" y2="178.1991">
				<stop  offset="0" style="stop-color:#FFFFFF"/>
				<stop  offset="0.8763" style="stop-color:#DCD8D7"/>
			</linearGradient>
			<path class="st7" d="M107.4,176.3c-0.4-0.6-0.8-1.1-1.3-1.7c-1.2,0.2-11.3,1.7-13.8,4.4c0.2,0.9,0.4,1.8,0.6,2.7
				C97.2,178.5,102.1,176.3,107.4,176.3z"/>
			<path class="st4" d="M122.1,194c3.4-1.5,6.3-3.9,8.2-7.3c1.5-1.9,4.4-1.9,5.3-1c0.7,0.5,3.5,2.7,3.9,1.6
				c-5.2-6.3-10.1-14.1-9.3-22.3c-5.8-0.1-11.7,0.2-17.3,1.1c-3.9,0.6-6.9,2.9-6.7,8.5c0,0-0.1,0-0.1,0c3.7,4.9,7.2,9.7,10.6,15.5
				C117.8,191.6,119.2,195,122.1,194z"/>
			<linearGradient id="SVGID_4_" gradientUnits="userSpaceOnUse" x1="89.8632" y1="215.9024" x2="179.4084" y2="215.9024">
				<stop  offset="0" style="stop-color:#FFFFFF"/>
				<stop  offset="0.8763" style="stop-color:#DCD8D7"/>
			</linearGradient>
			<path class="st8" d="M129,267.1L129,267.1c-17.2,0-37.2-0.9-38.3-2c-2-2.2,0.1-22.6,1.7-27.9c1.6-5.1-0.5-51-0.9-55.7
				c-0.4-4.7,10.1-6.4,14.6-7.1c-0.1-5,2.3-7.8,6.9-8.5c4.9-0.7,10.1-1.1,15.5-1.1c15.9,0,32.7,3.3,41.7,8.2c2.1,1.1,2,8.9,1.7,23.1
				c0,2-0.1,4-0.1,6.2c-0.1,6.7,1.9,16.1,3.8,25.3c3.1,15.1,6.4,30.7,0.7,34.9C170.6,266.6,141.3,267.1,129,267.1z M128.5,165.2
				c-5.4,0-10.6,0.4-15.5,1.1c-4.5,0.7-6.7,3.5-6.5,8.3l0,0.2l-0.4,0.1c-4,0.6-14.6,2.3-14.2,6.5c0.4,4.7,2.5,50.7,0.9,55.9
				c-1.6,5.4-3.5,25.5-1.8,27.4c0.9,0.9,18,1.9,38,1.9c12.3,0,41.5-0.4,47-4.5c5.5-4,2.3-19.5-0.9-34.4c-1.9-9.2-3.9-18.7-3.8-25.4
				c0-2.2,0.1-4.3,0.1-6.2c0.2-13,0.4-21.6-1.5-22.6C161,168.5,144.4,165.2,128.5,165.2z"/>
		</g>
		<g>
			<path class="st9" d="M121.5,191.4c3.9-1.1,6.6-11.7,10.3-11.7c3.7,0,8,10.2,12.4,10.1c3.7-0.1,9.6-12.6,13.4-21.3
				c-12.9-3.4-30.3-4.9-45.3-2.7c-3.9,0.6-7.8,5.6-5.9,8.8c-0.1,0-0.2,0-0.2,0C111.1,180,118.4,192.2,121.5,191.4z"/>
			<linearGradient id="SVGID_5_" gradientUnits="userSpaceOnUse" x1="107.6925" y1="158.3707" x2="129.692" y2="180.2319">
				<stop  offset="0" style="stop-color:#FFCEA7"/>
				<stop  offset="0.9677" style="stop-color:#F4A671"/>
			</linearGradient>
			<path class="st10" d="M135.3,165c-7.7-0.5-15.7-0.3-23.1,0.8c-3.9,0.6-7.8,5.6-5.9,8.8c-0.1,0-0.2,0-0.2,0
				c5.1,5.4,12.3,17.6,15.4,16.7c2-0.6,3.7-3.7,5.4-6.5c1.9-4.8,7-8.3,9.4-13.1C137.5,168.8,136.9,166.6,135.3,165z"/>
			<path class="st11" d="M121.1,191.7L121.1,191.7c-2.2,0-5.7-4.7-9.5-9.7c-2-2.6-4-5.3-5.7-7.1l-0.3-0.3l0.3-0.1
				c-0.6-1.2-0.5-2.6,0.2-4.2c1.2-2.4,3.6-4.3,6-4.7c4.7-0.7,9.8-1.1,15.1-1.1c10.3,0,21.1,1.3,30.3,3.7l0.3,0.1l-0.1,0.3
				c-6.1,14.1-10.6,21.3-13.6,21.4h-0.1c-2.3,0-4.6-2.7-6.8-5.4c-1.9-2.3-3.8-4.7-5.5-4.7c-1.8,0-3.5,2.9-5.1,5.6
				c-1.6,2.7-3.2,5.5-5.2,6.1C121.4,191.6,121.3,191.7,121.1,191.7z M106.6,174.8c1.7,1.8,3.6,4.4,5.5,6.9c3.5,4.7,7.2,9.5,9.1,9.5
				l0,0c0.1,0,0.2,0,0.3,0c1.8-0.5,3.4-3.2,4.9-5.8c1.8-3,3.4-5.8,5.5-5.8c1.9,0,3.8,2.4,5.9,4.8c2.1,2.6,4.3,5.2,6.4,5.2l0.1,0
				c1.9-0.1,5.7-3.7,13-20.9c-9.1-2.4-19.7-3.6-29.9-3.6c-5.3,0-10.4,0.4-15,1.1c-2.2,0.3-4.5,2.2-5.6,4.4c-0.7,1.5-0.7,2.9-0.1,4
				l0.2,0.3L106.6,174.8z"/>
		</g>
		<g>
			<g>
				<path class="st4" d="M133.4,180.3c3.4,2.1,7.1,9.6,10.8,9.5c3.7-0.1,9.6-12.6,13.4-21.3c-3.3-0.8-6.8-1.6-10.5-2.2
					C144.2,171.4,138.6,178.8,133.4,180.3z"/>
				<linearGradient id="SVGID_6_" gradientUnits="userSpaceOnUse" x1="130.1212" y1="170.9905" x2="143.2969" y2="181.5795">
					<stop  offset="0" style="stop-color:#FFFFFF"/>
					<stop  offset="0.8763" style="stop-color:#DCD8D7"/>
				</linearGradient>
				<path class="st12" d="M148.3,177c-1.3-1.3-5.4-1.4-9-0.5c-1.9,1.8-3.9,3.2-5.9,3.7c2.7,1.7,5.6,6.8,8.5,8.8
					C147.3,187,151.3,180.8,148.3,177z"/>
				<path class="st13" d="M144.1,190c-2.3,0-4.6-2.7-6.8-5.4c-1.4-1.7-2.8-3.4-4-4.2l-0.5-0.3l0.5-0.1c4.8-1.3,10.4-8.1,13.4-13.8
					l0.1-0.2l0.2,0c3.7,0.6,7.3,1.3,10.5,2.2l0.3,0.1l-0.1,0.3C151.7,182.7,147.1,189.9,144.1,190L144.1,190z M133.9,180.3
					c1.2,0.9,2.4,2.4,3.7,4c2.1,2.6,4.3,5.2,6.4,5.2l0.1,0c1.9-0.1,5.7-3.7,13-20.9c-3.1-0.8-6.5-1.5-10.1-2.1
					C144.1,172.2,138.7,178.7,133.9,180.3z"/>
			</g>
			<g>
				<path class="st4" d="M119.4,165c-2.4,0.2-4.8,0.4-7.2,0.8c-3.9,0.6-7.8,5.6-5.9,8.8c-0.1,0-0.2,0-0.2,0
					c5.1,5.4,12.3,17.6,15.4,16.7c3.3-0.9,5.8-8.8,8.8-11.1C125.3,179,121.2,171.2,119.4,165z"/>
				<linearGradient id="SVGID_7_" gradientUnits="userSpaceOnUse" x1="105.8115" y1="177.3718" x2="124.2655" y2="177.3718">
					<stop  offset="0" style="stop-color:#FFFFFF"/>
					<stop  offset="0.8763" style="stop-color:#DCD8D7"/>
				</linearGradient>
				<path class="st14" d="M124.1,183.3c1.5-5.1-5.4-13.3-12.2-17.5c-3.8,0.8-7.4,5.6-5.5,8.7c-0.1,0-0.2,0-0.2,0
					c3.5,3.7,7.9,10.5,11.4,14.2C120.2,187.3,122.7,185.8,124.1,183.3z"/>
				<path class="st13" d="M121.1,191.7L121.1,191.7c-2.2,0-5.7-4.7-9.5-9.7c-2-2.6-4-5.3-5.7-7.1l-0.3-0.3l0.3-0.1
					c-0.6-1.2-0.5-2.6,0.2-4.2c1.2-2.4,3.6-4.3,6-4.7c2.2-0.3,4.6-0.6,7.2-0.8l0.2,0l0.1,0.2c2,6.7,6.1,13.9,10.7,15.1l0.5,0.1
					l-0.4,0.3c-1.3,1-2.5,3-3.7,5c-1.6,2.7-3.2,5.5-5.2,6.1C121.4,191.6,121.3,191.7,121.1,191.7z M106.6,174.8
					c1.7,1.8,3.6,4.4,5.5,6.9c3.5,4.7,7.2,9.5,9.1,9.5l0,0c0.1,0,0.2,0,0.3,0c1.8-0.5,3.4-3.2,4.9-5.8c1.1-2,2.2-3.8,3.4-4.9
					c-4.8-1.6-8.6-9-10.5-15.1c-2.5,0.2-4.8,0.4-6.9,0.8c-2.2,0.3-4.5,2.2-5.6,4.4c-0.7,1.5-0.7,2.9-0.1,4l0.2,0.3L106.6,174.8z"/>
			</g>
		</g>
		<g>
			<g>
				<path class="st4" d="M207,233.6c-0.6,0-3.1-0.2-3.1-0.2c-14.8-26.4-34.6-22.5-34.6-34.6c0-6.2-1.1-26.6-1.1-26.6
					c6.6,0.9,40.5,30.6,49.9,53.8"/>
				<path class="st4" d="M207,233.6c-0.6,0-2.3-1.9-2.3-1.9c-14.8-26.4-35.3-24.3-35.4-32.9c-0.1-6.2-1.1-26.6-1.1-26.6
					c6.6,0.9,40.5,30.6,49.9,53.8"/>
				<linearGradient id="SVGID_8_" gradientUnits="userSpaceOnUse" x1="176.1138" y1="202.0859" x2="218.0889" y2="202.0859">
					<stop  offset="0" style="stop-color:#FFFFFF"/>
					<stop  offset="0.8763" style="stop-color:#DCD8D7"/>
				</linearGradient>
				<path class="st15" d="M218.1,226c-7.3-18-29.4-39.9-42-49.3c7,6,13.2,12.2,19.7,18.9c8.9,9.4,18,19.1,21.3,31.8"/>
				<linearGradient id="SVGID_9_" gradientUnits="userSpaceOnUse" x1="169.163" y1="216.0195" x2="207.146" y2="216.0195">
					<stop  offset="0" style="stop-color:#FFFFFF"/>
					<stop  offset="0.8763" style="stop-color:#DCD8D7"/>
				</linearGradient>
				<path class="st16" d="M207.1,233.6l0-0.2l-0.1,0c-0.6,0-2.6-0.1-3-0.2c-8.1-14.5-17.8-19.8-24.8-23.8c-4.9-2.7-8.4-4.7-9.4-8.4
					c-0.2-0.7-0.5-2.7-0.6-2.7c0,0.1,0,0.3,0,0.4c0,5.5,4.1,7.8,9.8,11c7,3.9,16.7,9.2,24.8,23.7l0,0.1l0.1,0c0.1,0,2.2,0.2,3,0.2"
					/>
				<linearGradient id="SVGID_10_" gradientUnits="userSpaceOnUse" x1="168.02" y1="198.9947" x2="218.2177" y2="198.9947">
					<stop  offset="0" style="stop-color:#FFFFFF"/>
					<stop  offset="0.8763" style="stop-color:#DCD8D7"/>
				</linearGradient>
				<path class="st17" d="M218.2,225.9c-5.5-13.7-18.7-28-26.1-35.3c-10-9.9-20.5-18.1-24-18.6l-0.2,0l0,0.2c0,0,0,0.1,0,0.1
					c0.1,0.1,0.2,0.1,0.3,0.2c0-0.1,0-0.1,0-0.1c3.2,0.6,12.8,7.6,23.6,18.5c7.3,7.3,20.5,21.6,26,35.2"/>
			</g>
			<g>
				<g>
					<path class="st18" d="M207.1,233.7c-0.1,0-0.2,0-0.3,0"/>
				</g>
			</g>
		</g>
		<g>
			<path class="st4" d="M87.4,234.3c3-2,18.9-29.1,16.9-37.5c-2-8.5-7.7-21.8-12.9-17.2c-11.3,10-29.6,46.6-23.8,55.8"/>
			<linearGradient id="SVGID_11_" gradientUnits="userSpaceOnUse" x1="34.55" y1="149.8767" x2="97.3901" y2="226.3882">
				<stop  offset="0" style="stop-color:#FFFFFF"/>
				<stop  offset="0.8763" style="stop-color:#DCD8D7"/>
			</linearGradient>
			<path class="st19" d="M83.6,232.9c3-2,22.7-27.7,20.7-36.2c-2-8.5-7.7-21.8-12.9-17.2c-11.3,10-29.6,46.6-23.8,55.8"/>
			<linearGradient id="SVGID_12_" gradientUnits="userSpaceOnUse" x1="66.4214" y1="204.2951" x2="96.366" y2="204.2951">
				<stop  offset="0" style="stop-color:#FFFFFF"/>
				<stop  offset="0.8763" style="stop-color:#DCD8D7"/>
			</linearGradient>
			<path class="st20" d="M75.4,206.2c3.3-6.4,6.4-12.7,11.3-18.5c2.7-3.1,6.1-6.1,9.6-8.1c-1.5-1.2-3.5-1.3-5,0.1
				c-9.7,8.6-24.6,36.8-24.9,50.4c0-0.1,0.1-0.2,0.1-0.4C69.3,221.7,71.5,213.6,75.4,206.2z"/>
			<linearGradient id="SVGID_13_" gradientUnits="userSpaceOnUse" x1="66.2989" y1="207.0252" x2="93.1495" y2="207.0252">
				<stop  offset="0" style="stop-color:#FFFFFF"/>
				<stop  offset="0.8763" style="stop-color:#DCD8D7"/>
			</linearGradient>
			<path class="st21" d="M67.6,235.4c-5.7-9.1,12.5-45.7,23.8-55.7c0.5-0.5,1.1-0.7,1.6-0.9c0-0.1,0.1-0.2,0.1-0.3
				c-0.7,0.1-1.3,0.4-1.9,0.9c-5.5,4.9-12.9,16.2-18.4,28.3c-6,13.3-8.1,23.6-5.5,27.8"/>
			<path class="st4" d="M87.6,234.3c1.6-1.4,6.2-8.4,10.2-16.3c1.5-3,3.5-7.3,5-11.4c0.5-1.4,1.2-4.7,1.1-4.8
				c-2.3,11.2-14.3,30.7-16.6,32.3l-0.2,0.1l0.2,0.1"/>
		</g>
		<g>
			<g>
				<g>
					<path class="st9" d="M63.1,113.8c-11.2-9.5-25.2,9.9-17.9,22.3c7.2,12.5,29.2,11.5,29.2,11.5c12,19.7,44.9,24,62.1,22.8
						c17.2-1.2,44.6-14,50.8-28.7c20.2,0.3,40.7-44.5,7.3-38c-2.7-38.2-17.9-74.9-63.8-77.5C46.6,21.3,63.1,113.8,63.1,113.8z"/>
					<path class="st22" d="M169.4,69.9C169.4,69.9,169.4,69.9,169.4,69.9C169.4,69.8,169.4,69.8,169.4,69.9z"/>
					
						<linearGradient id="SVGID_14_" gradientUnits="userSpaceOnUse" x1="231.579" y1="124.6966" x2="220.8871" y2="152.3818" gradientTransform="matrix(0.9972 -7.450000e-002 7.450000e-002 0.9972 -30.731 -16.8946)">
						<stop  offset="0.3226" style="stop-color:#FBC094"/>
						<stop  offset="0.9677" style="stop-color:#F4A671"/>
					</linearGradient>
					<path class="st23" d="M198.7,103.1c-2,2.3-3.9,4.9-5.4,7.6c6.3-0.9,15.4,1.1,11.7,9c-1.2,2.8-4,1-6.9,0.4
						c3.4,2.4,1.4,9.8-2.5,6.8c-3.5-2.3-4.5-6.6-4.7-10.8c-1.8,5.3-2.3,10.9-0.7,16.4c10.1,1.8,16.8-3.9,20.7-12
						C214.3,111,211.9,102.1,198.7,103.1z"/>
					<path class="st22" d="M70.3,136.3c0.1-0.6,0.2-1.3,0.2-2C70.4,135,70.3,135.6,70.3,136.3z"/>
					<path class="st9" d="M50.8,121.6c-2.9,1.1-4.2,5-2.6,8.5c1.6,3.5,6.8,1.4,10.3,0.9c-2.9,1.6-1.9,5.1,0.4,5.7
						c2,1.1,4,1.7,6.1,0.3c-0.7-4.9-0.3-10.1-3.9-14C58.3,120.1,54.3,120,50.8,121.6z"/>
					
						<linearGradient id="SVGID_15_" gradientUnits="userSpaceOnUse" x1="65.0074" y1="52.8287" x2="154.3678" y2="161.3784" gradientTransform="matrix(0.9972 -7.450000e-002 7.450000e-002 0.9972 -30.731 -16.8946)">
						<stop  offset="0" style="stop-color:#FFCEA7"/>
						<stop  offset="0.9677" style="stop-color:#F4A671"/>
					</linearGradient>
					<path class="st24" d="M169.4,69.9c0,0.2-3.6-3-8.9-7.8c-6.2-1.4-12.7,0.3-19.1,3.1c-10.6,4.8-22.1,12-34,6
						c-9-4.5-15.2-11.5-24.2-16c-3.5-1.8-5.9-4.6-8.4-7.3C56,74,63.1,113.8,63.1,113.8c-11.2-9.5-25.2,9.9-17.9,22.3
						c2,3.4,5.1,5.8,8.5,7.5c4.3,0.8,9,0.2,13.1-2c1.9-0.9,3.6-6.7,3.7-7.3c0,0.7,5.1,11.3,5.1,11.3c6.7,11,25.9,24,64.4,20
						c8.4-0.9,16.1-5.5,23.7-10.6C193.6,135.4,182.9,96.2,169.4,69.9z M65.2,138.1c-0.1-0.3-0.1-0.7-0.2-1.1
						c-2.1,1.4-4.1,0.8-6.1-0.3c-2.3-0.6-3.3-4.1-0.4-5.7c-3.5,0.5-8.7,2.6-10.3-0.9c-1.6-3.5-0.3-7.5,2.6-8.5
						c3.5-1.6,7.5-1.5,10.3,1.5c3.6,3.9,3.2,9.1,3.9,14c0.3-0.2,0.5-0.4,0.8-0.6c-0.3,0.3-0.5,0.5-0.8,0.6
						C65.1,137.4,65.1,137.8,65.2,138.1z"/>
					<path class="st25" d="M45.6,123.8c1.2-5.9,5.8-12.1,12.5-12.4c-9.4-1.5-18.3,13-13.5,23.5C44.1,131.2,44.6,127.3,45.6,123.8z"
						/>
					<path class="st26" d="M127.9,170.8c-19.5-0.6-43.8-7-53.7-22.9c-0.4,0-1.3,0-2.6,0c-6.1-0.2-21-1.7-26.7-11.6
						c-3.6-6.2-1.9-13.3,0.8-17.9c2.8-4.7,7.1-7.6,11.3-7.4c2,0.1,3.9,0.8,5.7,2.1c-0.9-5.9-5.8-45,14.7-68.8
						c11.3-13,28.3-19.3,50.5-18.6c0.9,0,1.9,0.1,2.9,0.1c48.5,2.8,61.6,43.6,64,77.5c2.4-0.5,4.6-0.6,6.6-0.6
						c7.4,0.2,11.3,4.2,11.2,11c-0.3,11.9-12.9,28.2-25.1,28.2c-6.3,14.4-32.9,27.5-51,28.7C133.9,170.9,131,170.9,127.9,170.8z
						 M74.6,147.3l0.1,0.1c9.7,15.9,33.9,22.2,53.3,22.8c3,0.1,5.9,0.1,8.6-0.1c8.6-0.6,19.6-4,29.4-9.3
						c10.8-5.8,18.3-12.6,21.1-19.3l0.1-0.2l0.2,0c11.9,0.2,24.4-15.9,24.7-27.6c0.1-6.5-3.6-10.2-10.6-10.4c-2-0.1-4.3,0.2-6.8,0.6
						l-0.3,0.1l0-0.3C192,70,179,29.2,130.8,26.4c-1-0.1-1.9-0.1-2.9-0.1c-22-0.7-38.9,5.5-50.1,18.4c-22,25.4-14.6,68.6-14.5,69
						l0.1,0.8l-0.6-0.5c-1.8-1.6-3.8-2.4-5.9-2.5c-3.9-0.1-8,2.6-10.7,7.1c-2.7,4.5-4.3,11.4-0.8,17.3c5.6,9.6,20.2,11.1,26.2,11.3
						c1.7,0.1,2.8,0,2.8,0L74.6,147.3z"/>
				</g>
				<g>
					<g>
						<path class="st26" d="M186.7,143.7l-0.5-0.3c2.1-4.2,2.9-18.1,2.4-21.8c0,0,0.8,4,0.6,7.1
							C188.9,134.2,188.1,140.9,186.7,143.7z"/>
					</g>
					<g>
						<path class="st26" d="M193.3,126.8l0-1.4c-0.1-3.9,1.6-7.6,4.6-9.8c2.3-1.7,5.2-2.3,7.5-1.5c0,0-3.9,0.1-5.8,1.1
							c-0.5,0.2-0.9,0.5-1.4,0.8c-2.5,1.9-4.1,4.8-4.4,8.1c1.3-2.2,3.7-4.3,5.4-3.9c0.8,0.1,1.7,0.8,1.6,3.2c0,0-0.7-2.5-1.7-2.7
							c-1.6-0.3-4.3,2.1-5.3,4.8L193.3,126.8z"/>
					</g>
				</g>
				<g>
					<g>
						<path class="st26" d="M75,149c-1.4-2.3-2.7-5.8-3.6-8.9c-0.9-3-0.8-6.6-0.8-6.6c-0.1,1.7,2.1,10.7,4.9,15.2L75,149z"/>
					</g>
					<g>
						<path class="st26" d="M65.3,138.7l-1-1.9c-1.7-3.3-4.1-5.3-5.9-5c-1.1,0.2-2.8,3.2-2.8,3.2c0.5-2.8,1.8-3.6,2.7-3.7
							c1.7-0.3,3.7,1.1,5.4,3.6c-1.8-6.1-4.8-8.4-7.1-9.3c-2.6-1-5.6-0.6-8.1,1.2c0,0,2.3-1.9,3.7-2.2c1.6-0.3,3.2-0.1,4.6,0.4
							c2.6,1,6.1,3.9,7.9,11.6L65.3,138.7z"/>
					</g>
				</g>
			</g>
			<g>
				<g>
					<path class="st9" d="M171.8,96c0.8,11-5.8,20.4-14.8,21.1c-9,0.7-17-7.6-17.9-18.6c-0.8-11,5.8-20.4,14.8-21.1
						C163,76.7,171,85,171.8,96z"/>
				</g>
				<g>
					<g>
						
							<radialGradient id="SVGID_16_" cx="5326.6001" cy="1741.7784" r="16.3268" gradientTransform="matrix(-0.9943 0.1096 0.1096 0.9943 5260.8213 -2217.2937)" gradientUnits="userSpaceOnUse">
							<stop  offset="0" style="stop-color:#FFFFFF"/>
							<stop  offset="0.6505" style="stop-color:#FFFFFF"/>
							<stop  offset="0.957" style="stop-color:#BDDFDF"/>
						</radialGradient>
						<path class="st27" d="M141.2,99.9c1.1,9.9,8.4,17.3,16.3,16.4c7.9-0.9,13.4-9.6,12.3-19.6c-1.1-9.9-8.4-17.3-16.3-16.4
							C145.6,81.2,140.1,90,141.2,99.9z"/>
						<g>
							<path class="st28" d="M140.9,100c-0.5-4.9,0.5-9.6,2.8-13.4c2.4-3.8,5.8-6.1,9.7-6.5c0.6-0.1,1.3-0.1,1.9-0.1
								c7.4,0.4,13.7,7.6,14.7,16.7c1.1,10.1-4.5,19-12.6,19.9c-0.6,0.1-1.3,0.1-1.9,0.1C148.2,116.3,141.9,109.1,140.9,100z
								 M153.5,80.7c-3.7,0.4-7,2.6-9.3,6.2c-2.3,3.6-3.2,8.2-2.7,12.9c1,8.9,7,15.8,14.1,16.2c0.6,0,1.2,0,1.8-0.1
								c7.7-0.8,13.1-9.5,12-19.2c-1-8.9-7.1-15.8-14.1-16.2C154.7,80.6,154.1,80.6,153.5,80.7z"/>
						</g>
					</g>
					
						<radialGradient id="SVGID_17_" cx="-323.548" cy="-54.8773" r="10.674" gradientTransform="matrix(-0.993 0.1176 0.1176 0.993 -159.4682 193.1802)" gradientUnits="userSpaceOnUse">
						<stop  offset="0.1344" style="stop-color:#D47600"/>
						<stop  offset="0.7312" style="stop-color:#491B03"/>
						<stop  offset="1" style="stop-color:#000000"/>
					</radialGradient>
					<path class="st29" d="M164.5,99.2c1,6.5-2.2,12.5-7.2,13.2c-5,0.8-9.9-3.9-11-10.4c-1-6.5,2.2-12.4,7.2-13.2
						C158.5,88,163.4,92.7,164.5,99.2z"/>
					<path class="st30" d="M162.5,101c0.7,4.5-1.8,8.7-5.6,9.2c-3.7,0.5-7.3-2.7-7.9-7.2c-0.7-4.5,1.8-8.7,5.6-9.2
						C158.3,93.2,161.9,96.4,162.5,101z"/>
					<path class="st3" d="M155.7,93.5c0.2,1.9,1.9,3.2,3.8,3c1.9-0.2,3.2-1.9,3-3.8c-0.2-1.9-1.9-3.2-3.8-3
						C156.9,90,155.5,91.7,155.7,93.5z"/>
					<path class="st31" d="M151.6,109.4c0.1,0.9,0.9,1.6,1.9,1.5c0.9-0.1,1.6-0.9,1.5-1.9c-0.1-0.9-0.9-1.6-1.9-1.5
						C152.1,107.7,151.4,108.5,151.6,109.4z"/>
				</g>
			</g>
			<path class="st31" d="M159.5,108.7c-0.1,0.2-2.3,0.8-4.1,0c-1.7-0.8-2.6-2.8-2.5-3c0.1-0.2,1.1,1.5,2.8,2.4
				C157.5,108.9,159.6,108.6,159.5,108.7z"/>
			<g>
				<g>
					<g>
						<path class="st9" d="M113.3,102.2c0.8,11-5.8,20.4-14.8,21.1c-9,0.7-17-7.6-17.9-18.6c-0.8-11,5.8-20.4,14.8-21.1
							C104.5,82.9,112.4,91.3,113.3,102.2z"/>
					</g>
					<g>
						<g>
							
								<radialGradient id="SVGID_18_" cx="5385.4365" cy="1741.572" r="16.3257" gradientTransform="matrix(-0.9943 0.1096 0.1096 0.9943 5260.8213 -2217.2937)" gradientUnits="userSpaceOnUse">
								<stop  offset="0" style="stop-color:#FFFFFF"/>
								<stop  offset="0.6505" style="stop-color:#FFFFFF"/>
								<stop  offset="0.957" style="stop-color:#BDDFDF"/>
							</radialGradient>
							<path class="st32" d="M82.7,106.2c1.1,9.9,8.4,17.3,16.3,16.4c7.9-0.9,13.4-9.6,12.3-19.6c-1.1-9.9-8.4-17.3-16.3-16.4
								C87.1,87.5,81.6,96.2,82.7,106.2z"/>
							<g>
								<path class="st28" d="M82.4,106.2c-0.5-4.9,0.5-9.6,2.8-13.4c2.4-3.8,5.8-6.1,9.7-6.5c0.6-0.1,1.3-0.1,1.9-0.1
									c7.4,0.4,13.7,7.6,14.7,16.7c1.1,10.1-4.5,19-12.6,19.9c-0.6,0.1-1.3,0.1-1.9,0.1C89.7,122.6,83.4,115.4,82.4,106.2z
									 M95,86.9c-3.7,0.4-7,2.6-9.3,6.2c-2.3,3.6-3.2,8.2-2.7,12.9c1,8.9,7,15.8,14.1,16.2c0.6,0,1.2,0,1.8-0.1
									c7.7-0.8,13.1-9.5,12-19.2c-1-8.9-7.1-15.8-14.1-16.2C96.2,86.8,95.6,86.9,95,86.9z"/>
							</g>
						</g>
						
							<radialGradient id="SVGID_19_" cx="-264.6913" cy="-55.5641" r="10.6741" gradientTransform="matrix(-0.993 0.1176 0.1176 0.993 -159.4682 193.1802)" gradientUnits="userSpaceOnUse">
							<stop  offset="0.1344" style="stop-color:#D47600"/>
							<stop  offset="0.7312" style="stop-color:#491B03"/>
							<stop  offset="1" style="stop-color:#000000"/>
						</radialGradient>
						<path class="st33" d="M105.9,105.4c1,6.5-2.2,12.4-7.2,13.2c-5,0.8-9.9-3.9-11-10.4c-1-6.5,2.2-12.4,7.2-13.2
							C100,94.3,104.9,98.9,105.9,105.4z"/>
						<path class="st30" d="M104,107.2c0.7,4.5-1.8,8.7-5.6,9.2c-3.7,0.5-7.3-2.7-8-7.2c-0.7-4.5,1.8-8.7,5.6-9.2
							C99.8,99.4,103.3,102.7,104,107.2z"/>
						<path class="st3" d="M97.2,99.8c0.2,1.9,1.9,3.2,3.8,3c1.9-0.2,3.2-1.9,3-3.8c-0.2-1.9-1.9-3.2-3.8-3
							C98.3,96.2,97,97.9,97.2,99.8z"/>
						<path class="st31" d="M93,115.7c0.1,0.9,0.9,1.6,1.9,1.5c0.9-0.1,1.6-0.9,1.5-1.9c-0.1-0.9-0.9-1.6-1.9-1.5
							C93.6,113.9,92.9,114.7,93,115.7z"/>
						<path class="st31" d="M98.6,115.7c-0.1,0.2-2.4,0.7-4-0.2c-1.7-0.9-2.4-3-2.3-3.1c0.1-0.2,1,1.6,2.7,2.5
							C96.6,115.7,98.7,115.5,98.6,115.7z"/>
					</g>
				</g>
			</g>
			<g>
				<g>
					<g>
						<path class="st26" d="M126.8,116.8l1.4-0.2c-1.4-0.6-2.7-1.5-4,0.6l0.4,0.4C125.1,117.2,126,116.5,126.8,116.8z"/>
					</g>
				</g>
				<g>
					<path class="st26" d="M134.8,118c-0.3,0-0.6-0.2-0.9-0.3c-0.4-0.2-1.4-1-1.4-1c0.6-0.1,1.2,0.2,1.7,0.5
						c0.2,0.1,0.6,0.3,0.7,0.3c0,0,0.1-0.1,0.1-0.5c0-1-0.3-3.3-2-4.6c-1.4-1.1-3.4-1.3-6-0.5c0,0,2-1,2.9-1c1.3,0,2.5,0.4,3.4,1.1
						c1.8,1.4,2.3,3.9,2.2,5.1c0,0.3-0.1,0.7-0.4,0.9C135,118,134.9,118,134.8,118z"/>
				</g>
			</g>
			<g>
				<path class="st34" d="M98.7,75.3c-5.3-1.2-14.5,2-16.9,10C85.3,80.4,98.7,75.3,98.7,75.3z"/>
				<path class="st35" d="M81,86.7l0.5-1.6c2-6.6,8.5-10,13.7-10.4c1.3-0.1,2.4,0,3.4,0.2l1.2,0.3l-1.1,0.4
					c-0.1,0.1-13.3,5.2-16.9,10L81,86.7z M95.3,75.4c-4.7,0.4-10.4,3.2-12.8,8.5c3.7-3.7,11.7-7.2,14.8-8.5
					C96.7,75.4,96,75.4,95.3,75.4z"/>
			</g>
			<g>
				<path class="st34" d="M145.6,68.3c5.1-2,14.6-0.2,18.2,7.4C159.5,71.4,145.6,68.3,145.6,68.3z"/>
				<path class="st35" d="M163.7,76c-4.2-4.2-18-7.3-18.1-7.3l-1.2-0.3l1.1-0.4c1-0.4,2.1-0.6,3.4-0.7c5.2-0.4,12.2,2,15.1,8.3
					l0.7,1.5L163.7,76z M146.9,68.3c3.3,0.8,11.8,3.1,15.9,6.2c-3.2-4.9-9.2-6.9-13.9-6.5C148.2,68,147.6,68.1,146.9,68.3z"/>
			</g>
			<g>
				<path class="st35" d="M121.2,21.7C88,22,40.1,47.9,52.7,113.7c5.8,1.2,11,1.2,13.9,6.6c-1.8-20.8-2.2-54.8,6.6-59.7
					c8.8-5,22.3,15.3,44.9,11c22.6-4.3,36.7-21.1,43.4-17.3c6.6,3.8,27,30.9,24.9,62c4.3-2.4,6.3-13.5,11.8-13.1
					C196.5,93.1,196.2,21.1,121.2,21.7z"/>
				
					<linearGradient id="SVGID_20_" gradientUnits="userSpaceOnUse" x1="82.9326" y1="-20.209" x2="165.4151" y2="133.8726" gradientTransform="matrix(0.9972 -7.450000e-002 7.450000e-002 0.9972 -30.731 -16.8946)">
					<stop  offset="0" style="stop-color:#854545"/>
					<stop  offset="1" style="stop-color:#580505"/>
				</linearGradient>
				<path class="st36" d="M59.3,72c2.6-4.2,2.2-9.4,6.5-12.6c12.6-7.8,22.7,3.5,33.9,7.2c14.2,5.3,27.4-2,39.3-11.6
					c5.9-5,15.4-8.6,22.2-2.8c8.3,6.6,17.8,14.8,28.7,12.4c-8.6-21.4-27.2-43.3-68.8-43c-25.6,0.2-59.8,15.6-68.5,52.7
					C54.6,74.9,57.7,73.9,59.3,72z"/>
				<path class="st37" d="M87.5,33.7c-2.2,1.9-4.7,6.1-2.9,7.1c3.7,3.2,9.8-0.2,14.9,0c-1,2.4-2.6,4.2-3.5,6.6
					c10.7-2.5,27.1,2,33.2-9.4c-6.9-0.1-13.4,5.6-20.4,3.2c-3-1.5,2.1-3,3-5.4c-6.9-0.6-14.2,2.8-20.2-0.8c-1.8-1,0.2-5.2,1.9-5.9
					c7.5-3.9,15.2-6.1,23.2-7.3c-23.9,1.8-53.2,16.3-62.8,48.2C62.4,55.3,70.4,39,87.5,33.7z"/>
				<path class="st38" d="M185.9,116.8l0-0.5c2-30-17.6-57.6-24.8-61.7c-0.7-0.4-1.5-0.6-2.5-0.5c-3,0.2-7,2.6-12,5.6
					c-7.5,4.4-16.8,10-28.6,12.2c-1.3,0.2-2.6,0.4-3.9,0.5c-11,0.8-19.7-4-26.7-7.8c-4.6-2.5-8.5-4.7-11.7-4.4
					c-0.9,0.1-1.7,0.3-2.4,0.7c-8.8,5-8.2,39.7-6.4,59.5l0.1,1.4l-0.7-1.3c-2.3-4.5-6.3-5.2-10.9-6c-0.9-0.2-1.8-0.3-2.7-0.5l-0.2,0
					l0-0.2C47.5,88,51.6,65.6,64.3,49c12-15.6,31.6-25.9,52.4-27.4c1.5-0.1,3-0.2,4.5-0.2c29.4-0.2,50.8,10.6,63.6,32.1
					c10.3,17.3,12.2,36.6,13.1,45.9c0.2,1.6,0.3,2.8,0.4,3.7l0.1,0.4l-0.4,0c-3-0.2-5,3.4-6.9,6.9c-1.5,2.7-2.9,5.2-4.7,6.2
					L185.9,116.8z M158.6,53.5c1.1-0.1,2,0.1,2.9,0.6c3.6,2.1,10.4,10.1,15.8,20.9c4.8,9.4,10.2,24.1,9.2,40.8
					c1.5-1.1,2.8-3.5,4-5.7c1.9-3.4,3.8-6.9,6.9-7.2c0.1,0,0.2,0,0.2,0c-0.1-0.8-0.2-2-0.4-3.4c-5.1-51.8-30.7-77.9-76.2-77.5
					c-1.5,0-3,0.1-4.4,0.2c-20.7,1.5-40.1,11.7-52,27.2c-12.5,16.4-16.6,38.5-11.8,64.1c0.9,0.2,1.7,0.3,2.5,0.5
					c4.4,0.8,8.2,1.4,10.7,5.2c-1.7-20.1-2-53.8,6.8-58.8c0.8-0.5,1.7-0.7,2.7-0.8c3.4-0.3,7.4,2,12,4.5c6.9,3.8,15.5,8.6,26.4,7.8
					c1.3-0.1,2.6-0.3,3.9-0.5c11.7-2.2,21-7.7,28.4-12.2C151.5,56.1,155.5,53.7,158.6,53.5z"/>
			</g>
			<g>
				<path class="st39" d="M106.3,133.7c8.4,3.1,34.3,0.7,43.9-5.1c2.2,9.9-5.9,18.6-18.4,21C115.1,152.7,106.3,133.7,106.3,133.7z"
					/>
				<g>
					<g>
						<g>
							<path class="st4" d="M116.1,141c-1.1-0.4-3.3-3-5.5-6.3c10.1,1.4,28.8-0.7,37.9-5.1c-1,3.1-2.1,5.5-4.1,7.3
								c0.1,1.7,0.8,4.7-0.5,7.5c-3.2,2.5-7.3,4.3-12.1,5.2c-7.4,1.4-13.2-1.6-17.4-5.3C115.1,143,115.9,141.8,116.1,141z"/>
							
								<linearGradient id="SVGID_21_" gradientUnits="userSpaceOnUse" x1="1094.3263" y1="79.4076" x2="1104.8287" y2="121.4178" gradientTransform="matrix(-0.9753 0.2209 0.2209 0.9753 1177.2479 -197.3313)">
								<stop  offset="0" style="stop-color:#FFFFFF"/>
								<stop  offset="1" style="stop-color:#DBDBDB"/>
							</linearGradient>
							<path class="st40" d="M116.1,141c-1.1-0.4-3.3-3-5.5-6.3c8.7,1.2,23.6-0.2,33.4-3.4c-0.9,2.7,0.1,5.4-2.7,7.3
								c1.3,0.5,0.6,4.8,0.5,7.2c-2.8,1.8-6.2,3.1-10,3.8c-7.4,1.4-13.2-1.6-17.4-5.3C115.1,143,115.9,141.8,116.1,141z"/>
							<path class="st13" d="M131.8,149.8c-6.3,1.2-12.3-0.6-17.7-5.4l-0.2-0.2l0.3-0.5c0.7-1,1.3-2,1.5-2.7c-1.7-0.9-4.6-5-5.4-6.3
								l-0.4-0.5l0.6,0.1c7.2,1,18.7,0.2,27.9-1.9c4-0.9,7.3-2,9.8-3.2l0.6-0.3l-0.2,0.6c-1,3.1-2.1,5.5-4.1,7.4
								c0,0.3,0.1,0.7,0.1,1.1c0.2,1.8,0.4,4.2-0.6,6.4l0,0.1l-0.1,0c-3,2.3-6.8,4.1-11.1,5.1h0
								C132.5,149.7,132.2,149.8,131.8,149.8z M144.1,138.1c0-0.5-0.1-0.9-0.1-1.2l0-0.1l0.1-0.1c1.8-1.6,2.9-3.8,3.8-6.6
								c-2.5,1.1-5.6,2.1-9.3,3c-9,2-20.2,2.8-27.5,2c2.2,3.2,4.1,5.4,5,5.7l0.2,0.1l0,0.2c-0.1,0.9-0.9,1.9-1.6,3.1l-0.1,0.1
								c5.2,4.5,10.9,6.2,17,5.1c0.4-0.1,0.7-0.1,1.1-0.2l0,0c4.1-0.9,7.9-2.6,10.8-4.9C144.5,142,144.3,139.7,144.1,138.1z"/>
						</g>
					</g>
					<g>
						<path class="st13" d="M144,137.3c0.6-0.4,1-0.8,1.1-0.9l-0.4-0.4c-0.4,0.4-2.4,2-5,2.9C139.7,138.9,143.1,138,144,137.3z"/>
					</g>
					<g>
						<path class="st13" d="M121.8,142.3c-3.1-0.1-6.2-2-6.8-2.5l-0.4,0.4c0.2,0.2,1.1,0.9,2.4,1.5
							C118.3,142.3,121.8,142.3,121.8,142.3z"/>
					</g>
				</g>
				<path class="st26" d="M131.8,149.8c-16.6,3.2-25.7-15.8-25.7-16l-0.3-0.6l0.6,0.2c5.8,2.1,20.5,1.7,32.1-1c0,0,0,0,0,0
					c5-1.1,9-2.6,11.5-4.1l0.3-0.2l0.1,0.4c2.1,9.4-5.2,18.3-17.5,21.1l0,0C132.5,149.7,132.2,149.8,131.8,149.8z M138.6,133
					C138.6,133,138.6,133,138.6,133c-11.5,2.6-25.4,3.1-31.7,1.2c1.7,3.2,10.3,17.9,24.8,15.1c0.4-0.1,0.7-0.1,1.1-0.2l0,0
					c11.8-2.7,19-11.1,17.2-20C147.3,130.5,143.4,131.9,138.6,133z"/>
			</g>
		</g>
		<polygon class="st41" points="202.9,95.8 185.7,147.3 195.4,151.1 222.9,131.3 222.2,103.1 		"/>
		<path class="st41" d="M42.4,108.1l10.3,4.5c0,0,6.5,2.5,7.5,2.5s6.6,5.3,6.6,5.3l-0.1,16.2l1.3,13.8c0,0-1.8,4-3.3,4
			c-1.5,0-18.3-9-18.3-9l-12-13.8l3.3-14.2L42.4,108.1z"/>
	</g>
	<g id="XMLID_2_">
		<path id="XMLID_31_" class="st42" d="M118.1,196c-0.5,0-0.8,0.4-0.8,0.8c0,0.2,0.1,0.4,0.2,0.5l-4.9,7.2c-0.1,0.1-0.2,0.2-0.3,0.4
			l0,0c-0.1,0.2-0.1,0.3-0.1,0.5c0,0.7,0.6,1.3,1.3,1.3c0.6,0,1.1-0.4,1.2-0.9l3.2-8.2c0,0,0.1,0,0.1,0c0.5,0,0.8-0.4,0.8-0.8
			C118.9,196.4,118.5,196,118.1,196"/>
		<path id="XMLID_30_" class="st41" d="M118.8,198.5L118.8,198.5c-0.2,0.1-0.4,0.2-0.4,0.4l0,0l-1.6,7.9c-0.1,0.3-0.1,0.5-0.9,0.5
			c-0.1,0-0.9,0-0.9,0h-2.2c-0.8,0-0.8-0.2-0.9-0.5l-1.6-7.9l0,0c0-0.2-0.2-0.4-0.4-0.4l0,0l-1.9-0.2c0,0,0.3,0.2,0.4,0.6
			c0,0.2,2,9.6,2,9.6l0,0c0.1,0.4,0.5,0.7,0.9,0.7h2.4l3.8,0c0.4,0,0.8-0.3,0.9-0.7l0,0c0,0,2-9.3,2-9.6c0.1-0.4,0.4-0.6,0.4-0.6
			L118.8,198.5z"/>
		<path id="XMLID_29_" class="st42" d="M121.5,200.2H121v-0.7h0.5c0-0.4,0.1-0.8,0.3-0.9c0.2-0.2,0.5-0.3,0.9-0.3c0.1,0,0.2,0,0.3,0
			l0.2,0v0.7c-0.1,0-0.2,0-0.3,0c-0.1,0-0.2,0-0.3,0.1s-0.1,0.1-0.1,0.3v0.1h0.6v0.7h-0.6v2.5h-1V200.2z"/>
		<path id="XMLID_26_" class="st42" d="M123.4,200.5c0-0.2,0.1-0.4,0.1-0.5c0.1-0.1,0.2-0.3,0.3-0.3c0.1-0.1,0.3-0.1,0.5-0.2
			c0.2,0,0.4-0.1,0.5-0.1c0.2,0,0.4,0,0.6,0c0.2,0,0.3,0.1,0.5,0.2c0.1,0.1,0.2,0.2,0.3,0.3c0.1,0.1,0.1,0.3,0.1,0.5v1.4
			c0,0.2,0,0.3,0,0.5c0,0.1,0,0.2,0.1,0.3h-1c0-0.1,0-0.2-0.1-0.3c-0.1,0.1-0.3,0.2-0.5,0.3c-0.2,0.1-0.4,0.1-0.6,0.1
			c-0.3,0-0.6-0.1-0.8-0.2c-0.2-0.2-0.3-0.4-0.3-0.7c0-0.2,0-0.4,0.1-0.5c0.1-0.1,0.2-0.2,0.3-0.3c0.1-0.1,0.3-0.1,0.4-0.2
			c0.1,0,0.3-0.1,0.6-0.1c0.2,0,0.3-0.1,0.4-0.1c0.1,0,0.2-0.1,0.2-0.1c0,0,0.1-0.1,0.1-0.2c0-0.1-0.1-0.2-0.2-0.2
			c-0.1-0.1-0.2-0.1-0.3-0.1c-0.3,0-0.5,0.1-0.5,0.4H123.4z M124.5,202c0.1,0.1,0.2,0.1,0.3,0.1c0.2,0,0.4-0.1,0.5-0.2
			c0.1-0.1,0.1-0.4,0.1-0.7c0,0-0.1,0.1-0.2,0.1c-0.1,0-0.1,0-0.2,0c-0.1,0-0.2,0-0.2,0.1c-0.1,0-0.2,0.1-0.3,0.1
			c-0.1,0.1-0.1,0.1-0.1,0.3C124.3,201.9,124.4,202,124.5,202"/>
		<path id="XMLID_25_" class="st42" d="M127.1,199.5h1v0.5h0c0.1-0.2,0.2-0.3,0.4-0.5c0.2-0.1,0.4-0.2,0.6-0.2c0.1,0,0.2,0,0.2,0
			v0.9c-0.1,0-0.3-0.1-0.4-0.1c-0.2,0-0.4,0.1-0.6,0.2c-0.1,0.1-0.2,0.3-0.2,0.5v1.5h-1V199.5z"/>
		<path id="XMLID_24_" class="st42" d="M129.6,199.5h1v0.4h0c0.1-0.2,0.2-0.3,0.4-0.4c0.2-0.1,0.3-0.1,0.5-0.1c0.2,0,0.4,0,0.6,0.1
			c0.2,0.1,0.3,0.2,0.4,0.4c0.3-0.3,0.6-0.5,1-0.5c0.2,0,0.4,0,0.6,0.1c0.1,0.1,0.3,0.2,0.3,0.3c0.1,0.1,0.1,0.3,0.2,0.4
			c0,0.2,0,0.3,0,0.5v1.9h-1v-1.8c0-0.2,0-0.3-0.1-0.4c-0.1-0.1-0.2-0.1-0.3-0.1c-0.2,0-0.3,0.1-0.4,0.2c-0.1,0.1-0.1,0.3-0.1,0.6
			v1.5h-1v-1.8c0-0.2,0-0.3-0.1-0.4c-0.1-0.1-0.2-0.2-0.3-0.2c-0.2,0-0.3,0.1-0.4,0.2c-0.1,0.1-0.1,0.3-0.1,0.7v1.5h-1V199.5z"/>
		<path id="XMLID_21_" class="st42" d="M135.2,200.5c0-0.2,0.1-0.4,0.1-0.5c0.1-0.1,0.2-0.3,0.3-0.3c0.1-0.1,0.3-0.1,0.5-0.2
			c0.2,0,0.3-0.1,0.5-0.1c0.2,0,0.4,0,0.6,0c0.2,0,0.3,0.1,0.5,0.2c0.1,0.1,0.2,0.2,0.3,0.3c0.1,0.1,0.1,0.3,0.1,0.5v1.4
			c0,0.2,0,0.3,0,0.5c0,0.1,0,0.2,0.1,0.3h-1c0-0.1,0-0.2-0.1-0.3c-0.1,0.1-0.3,0.2-0.5,0.3c-0.2,0.1-0.4,0.1-0.6,0.1
			c-0.3,0-0.6-0.1-0.8-0.2c-0.2-0.2-0.3-0.4-0.3-0.7c0-0.2,0-0.4,0.1-0.5c0.1-0.1,0.2-0.2,0.3-0.3c0.1-0.1,0.3-0.1,0.4-0.2
			c0.1,0,0.3-0.1,0.6-0.1c0.2,0,0.3-0.1,0.4-0.1c0.1,0,0.2-0.1,0.2-0.1c0,0,0.1-0.1,0.1-0.2c0-0.1-0.1-0.2-0.2-0.2
			c-0.1-0.1-0.2-0.1-0.3-0.1c-0.3,0-0.5,0.1-0.5,0.4H135.2z M136.2,202c0.1,0.1,0.2,0.1,0.3,0.1c0.2,0,0.4-0.1,0.5-0.2
			c0.1-0.1,0.1-0.4,0.1-0.7c0,0-0.1,0.1-0.2,0.1c-0.1,0-0.1,0-0.2,0c-0.1,0-0.2,0-0.2,0.1c-0.1,0-0.2,0.1-0.3,0.1
			c-0.1,0.1-0.1,0.1-0.1,0.3C136.1,201.9,136.1,202,136.2,202"/>
		<path id="XMLID_20_" class="st42" d="M140.8,200.7c0-0.1-0.1-0.2-0.2-0.3c-0.1-0.1-0.2-0.1-0.3-0.1c-0.1,0-0.2,0-0.3,0.1
			c-0.1,0.1-0.2,0.1-0.2,0.2c0,0.1-0.1,0.2-0.1,0.3c0,0.1,0,0.2,0,0.3c0,0.2,0.1,0.4,0.2,0.6c0.1,0.2,0.3,0.2,0.5,0.2
			c0.2,0,0.3,0,0.4-0.1c0.1-0.1,0.2-0.2,0.2-0.4h1c0,0.4-0.2,0.7-0.5,1c-0.3,0.2-0.6,0.4-1.1,0.4c-0.2,0-0.5,0-0.7-0.1
			c-0.2-0.1-0.4-0.2-0.5-0.3c-0.1-0.1-0.3-0.3-0.3-0.5c-0.1-0.2-0.1-0.4-0.1-0.6c0-0.2,0-0.5,0.1-0.7c0.1-0.2,0.2-0.4,0.3-0.5
			c0.1-0.2,0.3-0.3,0.5-0.4c0.2-0.1,0.4-0.1,0.7-0.1c0.4,0,0.8,0.1,1.1,0.3c0.3,0.2,0.5,0.5,0.5,0.9H140.8z"/>
		<rect id="XMLID_19_" x="142.4" y="199.5" class="st42" width="1" height="3.1"/>
		<path id="XMLID_16_" class="st42" d="M144.1,200.5c0-0.2,0.1-0.4,0.1-0.5c0.1-0.1,0.2-0.3,0.3-0.3c0.1-0.1,0.3-0.1,0.5-0.2
			c0.2,0,0.3-0.1,0.5-0.1c0.2,0,0.4,0,0.6,0c0.2,0,0.3,0.1,0.5,0.2c0.1,0.1,0.2,0.2,0.3,0.3c0.1,0.1,0.1,0.3,0.1,0.5v1.4
			c0,0.2,0,0.3,0,0.5c0,0.1,0,0.2,0.1,0.3h-1c0-0.1,0-0.2-0.1-0.3c-0.1,0.1-0.3,0.2-0.5,0.3c-0.2,0.1-0.4,0.1-0.6,0.1
			c-0.3,0-0.6-0.1-0.8-0.2c-0.2-0.2-0.3-0.4-0.3-0.7c0-0.2,0-0.4,0.1-0.5c0.1-0.1,0.2-0.2,0.3-0.3c0.1-0.1,0.3-0.1,0.4-0.2
			c0.1,0,0.3-0.1,0.6-0.1c0.2,0,0.3-0.1,0.4-0.1c0.1,0,0.2-0.1,0.2-0.1c0,0,0.1-0.1,0.1-0.2c0-0.1-0.1-0.2-0.2-0.2
			c-0.1-0.1-0.2-0.1-0.3-0.1c-0.3,0-0.5,0.1-0.5,0.4H144.1z M145.1,202c0.1,0.1,0.2,0.1,0.3,0.1c0.2,0,0.4-0.1,0.5-0.2
			c0.1-0.1,0.1-0.4,0.1-0.7c0,0-0.1,0.1-0.2,0.1c-0.1,0-0.1,0-0.2,0c-0.1,0-0.2,0-0.2,0.1c-0.1,0-0.2,0.1-0.3,0.1
			c-0.1,0.1-0.1,0.1-0.1,0.3C145,201.9,145,202,145.1,202"/>
		<path id="XMLID_15_" class="st41" d="M120.5,203.5h2.1l-0.1,0.7h0c0.5-0.6,1.2-0.9,2-0.9c0.6,0,1,0.2,1.3,0.5
			c0.3,0.3,0.4,0.8,0.3,1.4l-0.7,3.9h-2.2l0.6-3c0.1-0.4,0.1-0.7,0-0.9c-0.1-0.2-0.2-0.3-0.5-0.3c-0.1,0-0.2,0-0.3,0
			c-0.1,0-0.2,0.1-0.3,0.2c-0.1,0.1-0.2,0.2-0.3,0.3c-0.1,0.1-0.1,0.3-0.2,0.6l-0.6,3h-2.2L120.5,203.5z"/>
		<polygon id="XMLID_14_" class="st41" points="127.7,203.5 129.9,203.5 128.8,209.2 126.6,209.2 		"/>
		<polygon id="XMLID_13_" class="st41" points="133.8,209.2 131.2,209.2 130.4,203.5 132.7,203.5 133,207 133,207 134.6,203.5 
			136.8,203.5 		"/>
		<path id="XMLID_10_" class="st41" d="M138.5,206.8c0,0.3,0,0.6,0.2,0.8c0.2,0.2,0.4,0.3,0.7,0.3c0.2,0,0.4,0,0.6-0.1
			c0.2-0.1,0.3-0.2,0.4-0.3h2c-0.3,0.6-0.8,1-1.4,1.4c-0.6,0.3-1.2,0.5-1.9,0.5c-0.5,0-0.9-0.1-1.2-0.2c-0.4-0.1-0.7-0.3-0.9-0.6
			c-0.2-0.3-0.4-0.6-0.5-0.9c-0.1-0.4-0.1-0.8,0-1.3c0.1-0.4,0.2-0.8,0.4-1.2c0.2-0.4,0.5-0.7,0.8-1c0.3-0.3,0.7-0.5,1.1-0.7
			c0.4-0.2,0.8-0.2,1.3-0.2c1.1,0,1.9,0.3,2.3,0.9c0.4,0.6,0.5,1.5,0.3,2.6H138.5z M140.8,205.7c0.1-0.3,0-0.5-0.1-0.7
			c-0.1-0.2-0.4-0.3-0.6-0.3c-0.6,0-1.1,0.3-1.3,1H140.8z"/>
		<path id="XMLID_9_" class="st41" d="M144.2,203.5h2.1l-0.2,0.9h0c0.3-0.4,0.5-0.6,0.8-0.8c0.3-0.2,0.6-0.3,1-0.3
			c0.2,0,0.4,0,0.6,0.1l-0.4,1.9c-0.1-0.1-0.3-0.1-0.4-0.1c-0.1,0-0.3,0-0.5,0c-0.4,0-0.8,0.1-1.1,0.4c-0.3,0.3-0.5,0.7-0.6,1.3
			l-0.4,2.3h-2.2L144.2,203.5z"/>
		<path id="XMLID_8_" class="st41" d="M152.1,205.1c0-0.2,0-0.3-0.2-0.4c-0.1-0.1-0.3-0.2-0.5-0.2c-0.2,0-0.4,0-0.5,0.1
			c-0.1,0.1-0.2,0.2-0.3,0.3c0,0.1,0,0.1,0,0.2c0,0,0.1,0.1,0.2,0.1c0.1,0,0.3,0.1,0.7,0.2c0.5,0.1,0.9,0.2,1.1,0.3
			c0.4,0.1,0.7,0.3,0.9,0.6c0.2,0.3,0.3,0.6,0.2,1c-0.1,0.4-0.2,0.7-0.4,1c-0.2,0.3-0.5,0.5-0.8,0.6c-0.3,0.2-0.6,0.3-1,0.3
			c-0.4,0.1-0.7,0.1-1.1,0.1c-0.4,0-0.7,0-1-0.1c-0.3-0.1-0.6-0.2-0.8-0.4c-0.2-0.2-0.4-0.4-0.5-0.6c-0.1-0.3-0.1-0.6-0.1-0.9h2.1
			c0,0.2,0,0.4,0.2,0.5c0.1,0.1,0.3,0.2,0.6,0.2c0.2,0,0.4,0,0.5-0.1c0.2-0.1,0.3-0.2,0.3-0.3c0-0.2,0-0.3-0.2-0.4
			c-0.1-0.1-0.4-0.2-0.9-0.2c-0.8-0.1-1.4-0.4-1.7-0.6c-0.3-0.3-0.4-0.7-0.3-1.2c0.1-0.3,0.2-0.6,0.4-0.9c0.2-0.2,0.5-0.4,0.8-0.6
			c0.3-0.1,0.6-0.2,0.9-0.3c0.3-0.1,0.6-0.1,1-0.1c0.3,0,0.7,0,1,0.1c0.3,0.1,0.6,0.2,0.8,0.3c0.2,0.1,0.4,0.3,0.5,0.6
			c0.1,0.2,0.2,0.5,0.1,0.9H152.1z"/>
		<path id="XMLID_5_" class="st41" d="M160.2,207.9c-0.1,0.3-0.1,0.5-0.1,0.7c0,0.2,0,0.4,0.1,0.6H158c0-0.1,0-0.3,0-0.5h0
			c-0.3,0.3-0.6,0.4-0.9,0.5c-0.3,0.1-0.7,0.2-1.1,0.2c-0.6,0-1-0.1-1.4-0.4c-0.3-0.3-0.4-0.7-0.3-1.3c0.1-0.4,0.2-0.7,0.4-0.9
			c0.2-0.2,0.4-0.4,0.7-0.5c0.3-0.1,0.6-0.2,0.8-0.3c0.3-0.1,0.6-0.1,1-0.2c0.3,0,0.5-0.1,0.6-0.1c0.2,0,0.3-0.1,0.5-0.2
			c0.1-0.1,0.2-0.2,0.2-0.3c0-0.2,0-0.3-0.1-0.4c-0.1-0.1-0.3-0.1-0.5-0.1c-0.3,0-0.5,0.1-0.7,0.2c-0.1,0.1-0.2,0.3-0.3,0.4h-2
			c0.1-0.4,0.2-0.7,0.5-1c0.2-0.3,0.5-0.4,0.8-0.6c0.3-0.1,0.6-0.2,1-0.3c0.3,0,0.7-0.1,1.1-0.1c0.6,0,1.1,0.1,1.5,0.2
			c0.4,0.1,0.6,0.3,0.7,0.5c0.1,0.2,0.2,0.4,0.2,0.7c0,0.2,0,0.5-0.1,0.9L160.2,207.9z M158.4,206.6c-0.2,0.1-0.5,0.2-0.9,0.3
			c-0.3,0.1-0.5,0.1-0.6,0.2c-0.1,0.1-0.2,0.2-0.2,0.4c0,0.1,0,0.3,0.1,0.4c0.1,0.1,0.3,0.2,0.5,0.2c0.3,0,0.5-0.1,0.7-0.2
			c0.2-0.2,0.3-0.4,0.4-0.7L158.4,206.6z"/>
		<polygon id="XMLID_4_" class="st41" points="162.7,201.3 164.9,201.3 163.4,209.2 161.2,209.2 		"/>
		<path id="XMLID_3_" class="st42" d="M143.5,198.7c0,0.3-0.3,0.6-0.6,0.6c-0.3,0-0.6-0.3-0.6-0.6c0-0.3,0.3-0.6,0.6-0.6
			C143.2,198.1,143.5,198.4,143.5,198.7"/>
	</g>
	<g>
		<path class="st43" d="M239.2,142c-8-3.1-17.2,1.6-20.7,10.5c-3.4,8.9,0.2,18.6,8.2,21.7c8,3.1,17.2-1.6,20.7-10.5
			C250.9,154.8,247.2,145.1,239.2,142z"/>
		<path class="st44" d="M241.1,142.6c-7.9-3-17,1.6-20.4,10.3c-3.4,8.8,0.2,18.3,8.1,21.4c7.9,3,17-1.6,20.4-10.3
			C252.6,155.2,248.9,145.7,241.1,142.6z"/>
		
			<ellipse transform="matrix(0.3607 -0.9327 0.9327 0.3607 2.0659 320.4617)" class="st45" cx="234.8" cy="158.7" rx="14.1" ry="12.6"/>
		<path class="st44" d="M224.5,168c1.9,1.7,4.4,3,7.3,3.4c6.9,1,13.2-3.2,14.1-9.4c0.7-4.5-1.8-8.9-5.8-11.3c2.7,2.5,4.2,6,3.6,9.7
			c-0.9,6.2-7.2,10.4-14.1,9.4C227.7,169.5,226,168.9,224.5,168z"/>
		
			<ellipse transform="matrix(0.3606 -0.9327 0.9327 0.3606 7.4759 310.3442)" class="st46" cx="230.1" cy="149.7" rx="2.6" ry="2.3"/>
		<ellipse transform="matrix(0.361 -0.9326 0.9326 0.361 0.9537 321.0357)" class="st44" cx="234.7" cy="159.8" rx="4" ry="3.6"/>
		<path class="st43" d="M236,157.2c-1.3-0.5-2.9,0.3-3.5,1.8c-0.6,1.5,0,3.1,1.4,3.6c1.3,0.5,2.9-0.3,3.5-1.8
			C238,159.4,237.4,157.8,236,157.2z"/>
		<path class="st45" d="M239.9,165.3L239.9,165.3c0.2-0.4,0.4-0.8,0.6-1.1c0.7-1.4-0.7-2.4-1.8-3.1c-1.5-0.9-3.4-1.9-3.4-1.9
			l-0.9,1.6l3.6,2.1c0.9,0.5,0.2,1.5-0.3,2.4l-0.4,0.9l-25.6,43.1l1.5,0.9l24.5-41.3l0.1,0c0,0,1-1.8,1.8-3.2L239.9,165.3z"/>
		<path class="st43" d="M240,165.3L240,165.3c0.2-0.4,0.4-0.8,0.6-1.1c0.7-1.4-0.7-2.4-1.8-3.1c-0.7-0.5-2.8-1.5-3.5-1.9l-0.2,0.3
			l4.4,2.5c0.4,0.2,0.8,0.9,0.8,1.4c0,0.6-0.5,1-0.8,1.5l-0.4,0.9L213.5,209l0.4,0.3l23.9-40.3l0.1,0c0,0,1-1.8,1.8-3.2L240,165.3z"
			/>
		<path class="st44" d="M235,159.9l-0.5,1l3.6,2.1c0.9,0.5,0.2,1.5-0.3,2.4l-0.4,0.9l-25.6,43.1l0.9,0.5l24.1-40.6l0-0.1
			c0,0,1.1-1.7,1.9-3.1l0.2-0.4l0,0c0.2-0.4,0.4-0.8,0.6-1.1c0.7-1.4-0.7-2.4-1.8-3.1C236.8,160.9,235.6,160.3,235,159.9z"/>
	</g>
	<g>
		
			<ellipse transform="matrix(-0.377 -0.9262 0.9262 -0.377 -98.2873 257.7491)" class="st43" cx="37.5" cy="161.9" rx="17.9" ry="16.1"/>
		
			<ellipse transform="matrix(-0.377 -0.9262 0.9262 -0.377 -98.6282 256.5005)" class="st44" cx="37" cy="161.4" rx="17.6" ry="15.8"/>
		
			<ellipse transform="matrix(-0.377 -0.9262 0.9262 -0.377 -98.6609 256.9843)" class="st45" cx="37.1" cy="161.7" rx="14.6" ry="13.1"/>
		<path class="st44" d="M42.8,150.3c2.2,1.5,4.1,3.7,5.2,6.4c2.7,6.7,0.1,14.1-6,16.6c-4.4,1.8-9.4,0.4-12.8-3.1
			c3.2,2.1,7.1,2.7,10.6,1.3c6-2.5,8.7-9.9,6-16.6C45.1,153.2,44,151.6,42.8,150.3z"/>
		
			<ellipse transform="matrix(-0.377 -0.9262 0.9262 -0.377 -106.8501 241.3846)" class="st47" cx="27.8" cy="156.6" rx="2.7" ry="2.4"/>
		
			<ellipse transform="matrix(-0.3769 -0.9263 0.9263 -0.3769 -99.6021 258.618)" class="st44" cx="37.2" cy="162.8" rx="4.2" ry="3.8"/>
		
			<ellipse transform="matrix(-0.3769 -0.9263 0.9263 -0.3769 -100.0858 258.5349)" class="st43" cx="36.9" cy="162.9" rx="3" ry="2.7"/>
		<path class="st45" d="M31.9,168.6L31.9,168.6c-0.2-0.5-0.5-0.9-0.6-1.1c-0.8-1.5,0.7-2.5,1.8-3.2c1.5-1,3.5-2,3.5-2l0.9,1.6
			l-3.7,2.3c-0.9,0.5-0.2,1.5,0.3,2.4l0.5,0.9l27.3,44.2l-1.6,1l-26.2-42.4l-0.1,0c0,0-1.1-1.8-1.9-3.3L31.9,168.6z"/>
		<path class="st44" d="M31.8,168.6L31.8,168.6c-0.2-0.5-0.5-0.9-0.6-1.1c-0.8-1.5,0.7-2.5,1.8-3.2c0.7-0.5,2.9-1.7,3.5-2l0.2,0.3
			l-4.5,2.7c-0.4,0.3-0.8,0.9-0.8,1.5c0,0.6,0.6,1.1,0.8,1.5l0.5,0.9L60,213.4l-0.4,0.3l-25.5-41.3l-0.1,0c0,0-1.1-1.8-1.9-3.3
			L31.8,168.6z"/>
		<path class="st43" d="M37,162.9l0.6,1l-3.7,2.3c-0.9,0.5-0.2,1.5,0.3,2.4l0.5,0.9l27.3,44.2l-0.9,0.6l-25.7-41.7l0-0.1
			c0,0-1.2-1.7-2-3.2l-0.3-0.4l0,0c-0.3-0.5-0.5-0.8-0.6-1.1c-0.8-1.5,0.7-2.5,1.8-3.2C35.1,163.9,36.3,163.3,37,162.9z"/>
	</g>
	<path class="st48" d="M91.1,261c5.8,4,14.5,5.8,34.1,6.4c18.4,0.5,48.1-4.6,49.3-19.3c0-0.2,2.1,7.4,6,12.2
		c8.5,10.6,36.1,16.7,46.7,29.3c9,10.7,9.2,22.7,3.2,34c-4,7.7-15.1,15.4-21.6,24.1c-10.4,14-16.3,27.8-16.3,27.8l-99.3,12.2
		c-0.1,0-0.4-11.6-8.1-18.5c-9.9-8.9-28.4-14.4-36.7-23c-5.2-5.4-9.3-11.9-10.2-19c-1.4-11.2,4.6-16.4,12.7-22.6
		c10.7-8.2,27-19.4,35.4-29.4C90.7,270.1,91.1,261,91.1,261z"/>
	<path class="st49" d="M89.3,275c0,0-7.2,8.3-16.3,16.2c-10.6,9.2-23.3,18.5-24.3,20.6c-1.8,4,0.7,4.3,4.9,1.8
		C57.8,311.1,85.8,283.4,89.3,275z"/>
	<path class="st50" d="M30,209.2l8.7,2.4C114.6,232.1,21.3,206.9,30,209.2z"/>
	<path class="st48" d="M101.3,458.7c-1.1,0-7.5-5.9-7.8-15.8c-0.3-9.9,4.6-19.2,4.6-19.2l1.6,1.2c0.3,0.2-2,2.5-3.4,8.5
		c-1,4.4-1.2,12.6,0.6,16.6c1.6,3.5,4,5.7,4,5.7L101.3,458.7z"/>
	<path class="st51" d="M98.8,451.3c-1.8,1-3.9,2.9-2.8,4.8c1.1,1.9,4.1,4.8,4.7,4.9c0.6,0.2,3.3-1.3,3.3-1.3s0.9-1.9,0.8-2.1
		C104.7,457.3,98.8,451.3,98.8,451.3z"/>
	<rect x="155.5" y="450" class="st52" width="5.3" height="15.9"/>
	<rect x="154.1" y="451.1" class="st44" width="5" height="1.4"/>
	<rect x="111.6" y="448.4" class="st52" width="5.3" height="15.9"/>
	<rect x="113.3" y="460.4" class="st51" width="3.6" height="3.1"/>
	<rect x="113.3" y="449.6" class="st44" width="5" height="1.4"/>
	<path class="st48" d="M100.2,401l13.1,0l0,63.4c0,2.5-1.5,4.5-3.3,4.5l-6.5,0c-1.8,0-3.3-2-3.3-4.5L100.2,401z"/>
	<path class="st52" d="M100.2,430l12.8-1.6c0.8-0.1,1.4,0.5,1.4,1.3l0,0c0,0.8-0.6,1.5-1.4,1.6l-12.8,1.6c-0.8,0.1-1.4-0.5-1.4-1.3
		l0,0C98.8,430.9,99.4,430.1,100.2,430z"/>
	<path class="st51" d="M99.2,432.6c-0.1-0.1-0.3-0.3-0.3-0.5l11.9-1.7l-0.1,0.6L99.2,432.6z"/>
	<path class="st44" d="M109.8,429.1c0.3,0.2,0.5,0.4,0.6,0.7l-10.1,1.3c0.1-0.3,0.2-0.5,0.4-0.7L109.8,429.1z"/>
	<path class="st44" d="M100.8,430.3c0,0-0.5,0.2-0.5,0.9c0,0.8,0.3,0.6,0.3,0.6s0.4,0,0.4-0.1c0-0.1-0.1-0.8,0.1-1.2
		c0.2-0.3,0.5-0.5,0.5-0.5L100.8,430.3z"/>
	<path class="st51" d="M107.7,429.1l4.5-0.6c0.8-0.1,1.4,0.5,1.4,1.3l0,0c0,0.8-0.6,1.5-1.4,1.6l-3.8,0.5
		C108.4,431.1,109.1,430.3,107.7,429.1z"/>
	<path class="st52" d="M110.8,428.7l1.1-0.1c1.2,1.2,0.6,2,0.6,2.8l-1,0.1C111.5,430.7,112.2,429.9,110.8,428.7z"/>
	<path class="st52" d="M100.2,434l12.8-1.6c0.8-0.1,1.4,0.5,1.4,1.3l0,0c0,0.8-0.6,1.5-1.4,1.6l-12.8,1.6c-0.8,0.1-1.4-0.5-1.4-1.3
		l0,0C98.8,434.9,99.4,434.1,100.2,434z"/>
	<path class="st51" d="M99.2,436.6c-0.1-0.1-0.3-0.3-0.3-0.5l11.9-1.7l-0.1,0.6L99.2,436.6z"/>
	<path class="st44" d="M109.8,433.1c0.3,0.2,0.5,0.4,0.6,0.7l-10.1,1.3c0.1-0.3,0.2-0.5,0.4-0.7L109.8,433.1z"/>
	<path class="st44" d="M100.8,434.3c0,0-0.5,0.2-0.5,0.9c0,0.8,0.3,0.6,0.3,0.6s0.4,0,0.4-0.1c0-0.1-0.1-0.8,0.1-1.2
		c0.2-0.3,0.5-0.5,0.5-0.5L100.8,434.3z"/>
	<path class="st51" d="M107.7,433.1l4.5-0.6c0.8-0.1,1.4,0.5,1.4,1.3l0,0c0,0.8-0.6,1.5-1.4,1.6l-3.8,0.5
		C108.4,435.1,109.1,434.3,107.7,433.1z"/>
	<path class="st52" d="M110.8,432.7l1.1-0.1c1.2,1.2,0.6,2,0.6,2.8l-1,0.1C111.5,434.7,112.2,433.9,110.8,432.7z"/>
	<path class="st52" d="M100.2,438l12.8-1.6c0.8-0.1,1.4,0.5,1.4,1.3l0,0c0,0.8-0.6,1.5-1.4,1.6l-12.8,1.6c-0.8,0.1-1.4-0.5-1.4-1.3
		l0,0C98.8,438.9,99.4,438.1,100.2,438z"/>
	<path class="st51" d="M99.2,440.6c-0.1-0.1-0.3-0.3-0.3-0.5l11.9-1.7l-0.1,0.6L99.2,440.6z"/>
	<path class="st44" d="M109.8,437.1c0.3,0.2,0.5,0.4,0.6,0.7l-10.1,1.3c0.1-0.3,0.2-0.5,0.4-0.7L109.8,437.1z"/>
	<path class="st44" d="M100.8,438.3c0,0-0.5,0.2-0.5,0.9c0,0.8,0.3,0.6,0.3,0.6s0.4,0,0.4-0.1c0-0.1-0.1-0.8,0.1-1.1
		c0.2-0.3,0.5-0.5,0.5-0.5L100.8,438.3z"/>
	<path class="st51" d="M107.7,437.1l4.5-0.6c0.8-0.1,1.4,0.5,1.4,1.3l0,0c0,0.8-0.6,1.5-1.4,1.6l-3.8,0.5
		C108.4,439.1,109.1,438.3,107.7,437.1z"/>
	<path class="st52" d="M110.8,436.7l1.1-0.1c1.2,1.2,0.6,2,0.6,2.8l-1,0.1C111.5,438.7,112.2,437.9,110.8,436.7z"/>
	<path class="st52" d="M100.2,442l12.8-1.6c0.8-0.1,1.4,0.5,1.4,1.3l0,0c0,0.8-0.6,1.5-1.4,1.6l-12.8,1.6c-0.8,0.1-1.4-0.5-1.4-1.3
		l0,0C98.8,442.9,99.4,442.1,100.2,442z"/>
	<path class="st51" d="M99.2,444.6c-0.1-0.1-0.3-0.3-0.3-0.5l11.9-1.7l-0.1,0.6L99.2,444.6z"/>
	<path class="st44" d="M109.8,441.1c0.3,0.2,0.5,0.4,0.6,0.7l-10.1,1.3c0.1-0.3,0.2-0.5,0.4-0.7L109.8,441.1z"/>
	<path class="st44" d="M100.8,442.3c0,0-0.5,0.2-0.5,0.9c0,0.8,0.3,0.6,0.3,0.6s0.4,0,0.4-0.1c0-0.1-0.1-0.8,0.1-1.2
		c0.2-0.3,0.5-0.5,0.5-0.5L100.8,442.3z"/>
	<path class="st51" d="M107.7,441.1l4.5-0.6c0.8-0.1,1.4,0.5,1.4,1.3l0,0c0,0.8-0.6,1.5-1.4,1.6l-3.8,0.5
		C108.4,443.1,109.1,442.3,107.7,441.1z"/>
	<path class="st52" d="M110.8,440.7l1.1-0.1c1.2,1.2,0.6,2,0.6,2.8l-1,0.1C111.5,442.7,112.2,441.9,110.8,440.7z"/>
	<path class="st52" d="M100.2,446l12.8-1.6c0.8-0.1,1.4,0.5,1.4,1.3l0,0c0,0.8-0.6,1.5-1.4,1.6l-12.8,1.6c-0.8,0.1-1.4-0.5-1.4-1.3
		l0,0C98.8,446.9,99.4,446.1,100.2,446z"/>
	<path class="st51" d="M99.2,448.6c-0.1-0.1-0.3-0.3-0.3-0.5l11.9-1.7l-0.1,0.6L99.2,448.6z"/>
	<path class="st44" d="M109.8,445.1c0.3,0.2,0.5,0.4,0.6,0.7l-10.1,1.3c0.1-0.3,0.2-0.5,0.4-0.7L109.8,445.1z"/>
	<path class="st44" d="M100.8,446.3c0,0-0.5,0.2-0.5,0.9c0,0.8,0.3,0.6,0.3,0.6s0.4,0,0.4-0.1c0-0.1-0.1-0.8,0.1-1.1
		c0.2-0.3,0.5-0.5,0.5-0.5L100.8,446.3z"/>
	<path class="st51" d="M107.7,445.1l4.5-0.6c0.8-0.1,1.4,0.5,1.4,1.3l0,0c0,0.8-0.6,1.5-1.4,1.6l-3.8,0.5
		C108.4,447.1,109.1,446.3,107.7,445.1z"/>
	<path class="st52" d="M110.8,444.7l1.1-0.1c1.2,1.2,0.6,2,0.6,2.8l-1,0.1C111.5,446.7,112.2,445.9,110.8,444.7z"/>
	<path class="st48" d="M159.6,401l13.1,0l0,63.4c0,2.5-1.5,4.5-3.3,4.5l-6.5,0c-1.8,0-3.3-2-3.3-4.5L159.6,401z"/>
	<g>
		<path class="st52" d="M159.7,430.8l12.8-1.6c0.8-0.1,1.4,0.5,1.4,1.3l0,0c0,0.8-0.6,1.5-1.4,1.6l-12.8,1.6
			c-0.8,0.1-1.4-0.5-1.4-1.3l0,0C158.3,431.7,158.9,430.9,159.7,430.8z"/>
		<path class="st51" d="M158.7,433.4c-0.1-0.1-0.3-0.3-0.3-0.5l11.9-1.7l-0.1,0.6L158.7,433.4z"/>
		<path class="st44" d="M169.2,429.9c0.3,0.2,0.5,0.4,0.6,0.7l-10.1,1.3c0.1-0.3,0.2-0.5,0.4-0.7L169.2,429.9z"/>
		<path class="st44" d="M160.3,431.1c0,0-0.5,0.2-0.5,0.9c0,0.8,0.3,0.6,0.3,0.6s0.4,0,0.4-0.1c0-0.1-0.1-0.8,0.1-1.1
			c0.2-0.3,0.5-0.5,0.5-0.5L160.3,431.1z"/>
		<path class="st51" d="M167.2,429.9l4.5-0.6c0.8-0.1,1.4,0.5,1.4,1.3l0,0c0,0.8-0.6,1.5-1.4,1.6l-3.8,0.5
			C167.9,431.9,168.6,431.1,167.2,429.9z"/>
		<path class="st52" d="M170.3,429.5l1.1-0.1c1.2,1.2,0.6,2,0.6,2.8l-1,0.1C171,431.5,171.6,430.7,170.3,429.5z"/>
	</g>
	<g>
		<path class="st52" d="M159.7,434.8l12.8-1.6c0.8-0.1,1.4,0.5,1.4,1.3l0,0c0,0.8-0.6,1.5-1.4,1.6l-12.8,1.6
			c-0.8,0.1-1.4-0.5-1.4-1.3l0,0C158.3,435.7,158.9,434.9,159.7,434.8z"/>
		<path class="st51" d="M158.7,437.4c-0.1-0.1-0.3-0.3-0.3-0.5l11.9-1.7l-0.1,0.6L158.7,437.4z"/>
		<path class="st44" d="M169.2,433.9c0.3,0.2,0.5,0.4,0.6,0.7l-10.1,1.3c0.1-0.3,0.2-0.5,0.4-0.7L169.2,433.9z"/>
		<path class="st44" d="M160.3,435.1c0,0-0.5,0.2-0.5,0.9c0,0.8,0.3,0.6,0.3,0.6s0.4,0,0.4-0.1c0-0.1-0.1-0.8,0.1-1.2
			c0.2-0.3,0.5-0.5,0.5-0.5L160.3,435.1z"/>
		<path class="st51" d="M167.2,433.9l4.5-0.6c0.8-0.1,1.4,0.5,1.4,1.3l0,0c0,0.8-0.6,1.5-1.4,1.6l-3.8,0.5
			C167.9,435.9,168.6,435.1,167.2,433.9z"/>
		<path class="st52" d="M170.3,433.5l1.1-0.1c1.2,1.2,0.6,2,0.6,2.8l-1,0.1C171,435.5,171.6,434.7,170.3,433.5z"/>
	</g>
	<g>
		<path class="st52" d="M159.7,438.8l12.8-1.6c0.8-0.1,1.4,0.5,1.4,1.3l0,0c0,0.8-0.7,1.5-1.4,1.6l-12.8,1.6
			c-0.8,0.1-1.4-0.5-1.4-1.3l0,0C158.3,439.7,158.9,438.9,159.7,438.8z"/>
		<path class="st51" d="M158.7,441.4c-0.1-0.1-0.3-0.3-0.3-0.5l11.9-1.7l-0.1,0.6L158.7,441.4z"/>
		<path class="st44" d="M169.2,437.9c0.3,0.2,0.5,0.4,0.6,0.7l-10.1,1.3c0.1-0.3,0.2-0.5,0.4-0.7L169.2,437.9z"/>
		<path class="st44" d="M160.3,439.1c0,0-0.5,0.2-0.5,0.9c0,0.8,0.3,0.6,0.3,0.6s0.4,0,0.4-0.1c0-0.1-0.1-0.8,0.1-1.1
			c0.2-0.3,0.5-0.5,0.5-0.5L160.3,439.1z"/>
		<path class="st51" d="M167.2,437.9l4.5-0.6c0.8-0.1,1.4,0.5,1.4,1.3l0,0c0,0.8-0.6,1.5-1.4,1.6l-3.8,0.5
			C167.9,439.9,168.6,439.1,167.2,437.9z"/>
		<path class="st52" d="M170.3,437.5l1.1-0.1c1.2,1.2,0.6,2,0.6,2.8l-1,0.1C171,439.5,171.6,438.7,170.3,437.5z"/>
	</g>
	<g>
		<path class="st52" d="M159.7,442.8l12.8-1.6c0.8-0.1,1.4,0.5,1.4,1.3l0,0c0,0.8-0.6,1.5-1.4,1.6l-12.8,1.6
			c-0.8,0.1-1.4-0.5-1.4-1.3l0,0C158.3,443.7,158.9,442.9,159.7,442.8z"/>
		<path class="st51" d="M158.7,445.4c-0.1-0.1-0.3-0.3-0.3-0.5l11.9-1.7l-0.1,0.6L158.7,445.4z"/>
		<path class="st44" d="M169.2,441.9c0.3,0.2,0.5,0.4,0.6,0.7l-10.1,1.3c0.1-0.3,0.2-0.5,0.4-0.7L169.2,441.9z"/>
		<path class="st44" d="M160.3,443.1c0,0-0.5,0.2-0.5,0.9c0,0.8,0.3,0.6,0.3,0.6s0.4,0,0.4-0.1c0-0.1-0.1-0.8,0.1-1.2
			c0.2-0.3,0.5-0.5,0.5-0.5L160.3,443.1z"/>
		<path class="st51" d="M167.2,441.9l4.5-0.6c0.8-0.1,1.4,0.5,1.4,1.3l0,0c0,0.8-0.6,1.5-1.4,1.6l-3.8,0.5
			C167.9,443.9,168.6,443.1,167.2,441.9z"/>
		<path class="st52" d="M170.3,441.5l1.1-0.1c1.2,1.2,0.6,2,0.6,2.8l-1,0.1C170.9,443.5,171.6,442.7,170.3,441.5z"/>
	</g>
	<g>
		<path class="st52" d="M159.7,446.8l12.8-1.6c0.8-0.1,1.4,0.5,1.4,1.3l0,0c0,0.8-0.6,1.5-1.4,1.6l-12.8,1.6
			c-0.8,0.1-1.4-0.5-1.4-1.3l0,0C158.2,447.7,158.9,446.9,159.7,446.8z"/>
		<path class="st51" d="M158.7,449.4c-0.1-0.1-0.3-0.3-0.3-0.5l11.9-1.7l-0.1,0.6L158.7,449.4z"/>
		<path class="st44" d="M169.2,445.9c0.3,0.2,0.5,0.4,0.6,0.7l-10.1,1.3c0.1-0.3,0.2-0.5,0.4-0.7L169.2,445.9z"/>
		<path class="st44" d="M160.3,447.1c0,0-0.5,0.2-0.5,0.9c0,0.8,0.3,0.6,0.3,0.6s0.4,0,0.4-0.1c0-0.1-0.1-0.8,0.1-1.2
			c0.2-0.3,0.5-0.5,0.5-0.5L160.3,447.1z"/>
		<path class="st51" d="M167.2,445.9l4.5-0.6c0.8-0.1,1.4,0.5,1.4,1.3l0,0c0,0.8-0.6,1.5-1.4,1.6l-3.8,0.5
			C167.9,447.9,168.6,447.1,167.2,445.9z"/>
		<path class="st52" d="M170.3,445.5l1.1-0.1c1.2,1.2,0.6,2,0.6,2.8l-1,0.1C170.9,447.5,171.6,446.7,170.3,445.5z"/>
	</g>
	<path class="st0" d="M122.4,231.4c0,0-1,19.2-4,27.3c-3,8.2-5,10.1-5,10.1l21,0l0.5,0l21,0c0,0-2-2-5-10.2c-3-8.2-4-27.3-4-27.3
		l-12-23.8l0-1.1l-0.3,0.5l-0.3-0.5l0,1.1L122.4,231.4z"/>
	<path class="st2" d="M122.4,231.4c0,0-0.3,6.2-1.2,13c4.1,2,8.7,3.1,13.5,3.1c4.8,0,9.4-1.1,13.5-3.1c-0.8-6.8-1.2-13-1.2-13
		l-12-23.8l0-1.1l-0.3,0.5l-0.3-0.5l0,1.1L122.4,231.4z"/>
	<path class="st2" d="M137.8,268.9l12.6,0c-1.3-3.5-2.8-8.1-4.1-13.5c-2.2-9.3-3.1-19.8-3.1-19.8s-3.9,3.4-4.2,4.9
		C138.9,241.6,138.2,257.9,137.8,268.9z"/>
	<path class="st44" d="M54.9,224c0,0-5.1-0.5-14.2,1.2c-5,0.9-18.3,5.3-17.3,12.7c0.1,0.9,0.4,1.3,1.1,2.1c1.6,2,5.8,1.3,6.6-0.9
		c0.7-1.8-0.9-4-2-4.2c-1-0.2-1.6,0-1.6,0s0.1-0.9,1.4-1.8c3.7-2.4,9.4-3.5,13.9-3.5c2.5,0,7.4,1.5,7.4,1.5L54.9,224z"/>
	<path class="st44" d="M219.4,223.6c0,0,5.1-0.5,14.2,1.3c5,1,18.3,5.3,17.3,12.8c-0.1,0.9-0.4,1.3-1.1,2.1c-1.6,2-5.8,1.3-6.6-0.9
		c-0.7-1.8,0.9-4,2-4.2c1-0.2,1.6,0,1.6,0s-0.1-0.9-1.4-1.8c-3.7-2.4-9.4-3.5-13.9-3.5c-2.5,0-7.4,1.5-7.4,1.5L219.4,223.6z"/>
	<path class="st53" d="M47,224.9c-1.8,0.2-3.9,0.5-6.3,0.9c-4.9,0.9-17.8,5.1-17.3,12.4c0.9-2.7,3-6.1,7.7-8.5
		c7.1-3.7,16.2-4.2,16.2-4.2S47.1,225.3,47,224.9z"/>
	<path class="st53" d="M227.3,224.5c1.8,0.2,3.9,0.5,6.3,0.9c4.9,0.9,17.8,5.1,17.3,12.4c-0.9-2.7-3-6.1-7.7-8.5
		c-7.1-3.7-16.2-4.2-16.2-4.2S227.2,224.9,227.3,224.5z"/>
	<path class="st54" d="M23.5,238.4c0.2,0.6,0.4,1,1,1.7c1.6,2,5.8,1.3,6.6-0.9c0.6-1.5-0.4-3.2-1.4-3.9l0,0c0,0,1.5,3.6-1.5,4.4
		C26.4,240.2,24.7,239.4,23.5,238.4z"/>
	<path class="st54" d="M250.8,238c-0.2,0.6-0.4,1-1,1.7c-1.6,2-5.8,1.3-6.6-0.9c-0.6-1.5,0.4-3.2,1.4-3.9l0,0c0,0-1.5,3.6,1.5,4.4
		C247.9,239.8,249.7,238.9,250.8,238z"/>
	<path class="st54" d="M27.7,234.6c0.2-0.4,0.5-0.8,1.3-1.3c3.7-2.4,9.4-3.5,13.9-3.5c2.5,0,7.4,1.5,7.4,1.5l1.2-1.8
		c-0.6,0.1-1.2,0.1-1.2,0.1s-4-1.7-8.7-1.2c-9.2,1-17.3,6.1-15,7.7C26.5,236.2,26.3,235.2,27.7,234.6z"/>
	<path class="st54" d="M246.6,234.1c-0.2-0.3-0.5-0.8-1.3-1.3c-3.7-2.4-9.4-3.5-13.9-3.5c-2.5,0-7.4,1.5-7.4,1.5l-1.2-1.8
		c0.6,0.1,1.2,0.1,1.2,0.1s4-1.7,8.7-1.2c9.2,1,17.3,6.1,15,7.7C247.9,235.7,248,234.8,246.6,234.1z"/>
	<path class="st49" d="M48.1,209.2l-29.5,0c-3.4,0-6.2,2.8-6.2,6.2l0,0c0,3.4,2.8,6.2,6.2,6.2l29.5,0L48.1,209.2z"/>
	<path class="st49" d="M226.2,208.8l29.5,0c3.4,0,6.2,2.8,6.2,6.2l0,0c0,3.4-2.8,6.2-6.2,6.2l-29.5,0L226.2,208.8z"/>
	<path class="st48" d="M12.5,215.3c0.6,2.8,3.1,5,6.1,5l29.5,0l0-5L12.5,215.3z"/>
	<path class="st48" d="M261.8,214.8c-0.6,2.8-3.1,5-6.1,5l-29.5,0l0-5L261.8,214.8z"/>
	<path class="st0" d="M120.6,194.9c-2.5,5.2-16.2,12.5-25.6,13.7c-9.4,1.2-14,0.7-14,0.7l-32.9,0c0,0-2.7,4-1.8,7.7
		c1,3.7,2.1,4.3,2.1,4.3s23.1,0.1,34.2,0.4c9.1,0.2,17.4,2.9,26,6.2c10.6,4,13.8,6,13.8,6L120.6,194.9z"/>
	<path class="st0" d="M153.7,194.4c2.5,5.2,16.2,12.5,25.6,13.7c9.4,1.2,14,0.7,14,0.7l32.9,0c0,0,2.7,4,1.8,7.7
		c-1,3.7-2.1,4.3-2.1,4.3s-23.1,0.1-34.2,0.4c-9.1,0.2-17.4,2.9-26,6.2c-10.6,4-13.8,6-13.8,6L153.7,194.4z"/>
	<path class="st55" d="M112.8,202.4c-5.3,3.2-12.3,6-17.8,6.7c-9.4,1.2-14,0.7-14,0.7l-32.9,0c0,0-0.7,1.1-1.3,2.7l47.6-0.6
		C102.6,211.8,107.9,207.7,112.8,202.4z"/>
	<path class="st55" d="M161.5,201.9c5.3,3.2,12.3,6,17.8,6.7c9.4,1.2,14,0.7,14,0.7l32.9,0c0,0,0.7,1.1,1.3,2.7l-47.6-0.6
		C171.8,211.3,166.4,207.2,161.5,201.9z"/>
	<path class="st2" d="M46.2,213.8c0,0.5,0.1,0.9,0.2,1.4c1,3.7,2.1,4.3,2.1,4.3s38.1,0.2,40,0.6c1.9,0.4,9.6,1.9,20.2,6
		c10.6,4,13.8,6,13.8,6l-0.3-5.1l-12.8-13.1L46.2,213.8z"/>
	<path class="st2" d="M228.2,213.4c0,0.5-0.1,0.9-0.2,1.4c-1,3.7-2.1,4.3-2.1,4.3s-38.1,0.2-40,0.6c-1.9,0.4-9.6,1.9-20.2,6
		c-10.6,4-13.8,6-13.8,6l0.3-5.1l12.8-13.1L228.2,213.4z"/>
	<path class="st55" d="M47,217.2c0.3,0.7,0.6,1.3,0.8,1.6c12.7,0,42.5,0,45.3,0.5c3.6,0.5,13.5,5.2,13.5,5.2l-0.4-1
		c0,0-6.8-3.9-10.8-4.9c-4-1-7.7-1.1-7.7-1.1L47,217.2z"/>
	<path class="st55" d="M227.3,216.7c-0.3,0.7-0.6,1.3-0.8,1.6c-12.7,0-42.5,0-45.3,0.4c-3.6,0.5-13.5,5.2-13.5,5.2l0.4-1
		c0,0,6.8-3.9,10.8-4.9c4-1,7.7-1.1,7.7-1.1L227.3,216.7z"/>
	<path class="st56" d="M134.7,183.9c16.6,0,30,13.4,30,30c0,16.6-13.4,30-30,30c-16.6,0-30-13.4-30-30
		C104.7,197.3,118.1,183.9,134.7,183.9z"/>
	<path class="st0" d="M134.7,187c14.9,0,26.9,12.1,26.9,26.9c0,14.9-12.1,26.9-26.9,26.9c-14.9,0-26.9-12.1-26.9-26.9
		C107.7,199,119.8,187,134.7,187z"/>
	<circle class="st2" cx="134.7" cy="213.9" r="20.3"/>
	<circle class="st44" cx="134.7" cy="213.9" r="17.6"/>
	<circle class="st45" cx="134.7" cy="214.2" r="14.6"/>
	<path class="st49" d="M47.8,205.1L47.8,205.1c1.2,0,2.2,1,2.2,2.2l0,16.5c0,1.2-1,2.2-2.2,2.2l0,0c-1.2,0-2.2-1-2.2-2.2l0-16.5
		C45.7,206,46.7,205.1,47.8,205.1z"/>
	<path class="st49" d="M226.5,204.6L226.5,204.6c-1.2,0-2.2,1-2.2,2.2l0,16.5c0,1.2,1,2.2,2.2,2.2l0,0c1.2,0,2.2-1,2.2-2.2l0-16.5
		C228.6,205.6,227.7,204.6,226.5,204.6z"/>
	<path class="st48" d="M48.3,205.1c1,0.2,1.7,1.1,1.7,2.1l0,14.1l0,2.4c0,1-0.7,1.9-1.7,2.1L48.3,205.1z"/>
	<path class="st48" d="M226,204.7c-1,0.2-1.7,1.1-1.7,2.1l0,14.1l0,2.4c0,1,0.7,1.9,1.7,2.1L226,204.7z"/>
	<path class="st44" d="M145.4,205.8c1.7,2.2,2.7,5,2.7,7.9c0,7.2-5.9,13.1-13.1,13.1c-5.3,0-9.9-3.1-11.9-7.7
		c2.4,3.1,6.2,5.2,10.4,5.2c7.2,0,13.1-5.9,13.1-13.1C146.5,209.3,146.1,207.5,145.4,205.8z"/>
	<ellipse class="st57" cx="129" cy="213" rx="1.5" ry="9.3"/>
	<ellipse class="st57" cx="123.4" cy="213.6" rx="1.3" ry="5.2"/>
	<ellipse class="st57" cx="134.7" cy="212.8" rx="1.5" ry="11.4"/>
	<circle class="st53" cx="129.3" cy="208.4" r="5.4"/>
	<circle class="st53" cx="124.4" cy="204.8" r="3.5"/>
	<circle class="st47" cx="127.2" cy="206" r="2.7"/>
	<ellipse class="st57" cx="140.5" cy="213.5" rx="1.5" ry="9.3"/>
	<ellipse class="st57" cx="146.1" cy="214.1" rx="1.3" ry="5.2"/>
	<rect x="43.8" y="209.2" class="st48" width="1.9" height="10.2"/>
	<rect x="228.6" y="208.8" class="st48" width="1.9" height="10.2"/>
	<path class="st56" d="M50.3,232L50,221.2l19.6,0.2c0,0,0.2,4.4-4.2,7.9C61,232.8,50.3,232,50.3,232z"/>
	<path class="st56" d="M224.1,231.5l0.3-10.8l-19.6,0.2c0,0-0.2,4.4,4.2,7.9C213.4,232.3,224.1,231.5,224.1,231.5z"/>
	<path class="st2" d="M50.3,232l-0.1-2.4c4.7,0.2,12.2-0.4,14.4-3.1c2.8-3.4,2.5-5,2.5-5l2.5,0c0,0.7-0.2,4.6-4.2,7.8
		C61,232.8,50.3,232,50.3,232z"/>
	<path class="st2" d="M224.1,231.5l0.1-2.4c-4.7,0.2-12.2-0.4-14.4-3.1c-2.8-3.4-2.5-5-2.5-5l-2.5,0c0,0.7,0.2,4.6,4.2,7.8
		C213.4,232.3,224.1,231.5,224.1,231.5z"/>
	<circle class="st53" cx="28.5" cy="237.4" r="1.2"/>
	<circle class="st53" cx="245.8" cy="236.9" r="1.2"/>
	<path class="st58" d="M71.8,303c-1.8-23.3,30.1-35.4,62.6-35.9l0,0c0.1,0,0.2,0,0.3,0c0.1,0,0.2,0,0.3,0l0,0
		c32.5,0.5,64.4,12.6,62.6,35.9l-6.3,80.1c-1.8,21.9-28.6,33.3-56.3,34l0,0c-0.1,0-0.2,0-0.3,0c-0.1,0-0.2,0-0.3,0l0,0
		c-27.7-0.7-54.5-12.1-56.3-34L71.8,303z"/>
	<path class="st2" d="M194.1,347.3l-2.8,35.8c-0.7,8.5-5.2,15.5-12,20.8c-13.8,6-29.4,11.7-39.7,12.1c-5.8,0.2-12.2,0.2-18.5-0.1
		c-22.4-3.5-41.5-14.5-42.9-32.8L75,343.7L194.1,347.3z"/>
	<path class="st0" d="M190.3,388.5c-1,3.5-2.8,6.7-5.1,9.6c-14.5,7.1-32.2,11.3-51.3,11.3c-18,0-34.7-3.7-48.8-10.2
		c-2.3-2.6-4.1-5.5-5.4-8.6c14.9,7.8,33.3,12.4,53.3,12.4C154.8,403,174.8,397.6,190.3,388.5z"/>
	<path class="st0" d="M192,374.7l-0.6,7.3c-15.5,9-35.4,14.5-57.1,14.5c-21.3,0-40.8-5.2-56.2-14l-0.5-6.2
		c15.3,8.6,34.7,13.7,55.8,13.8C155.8,390,176.2,384.2,192,374.7z"/>
	<path class="st0" d="M71.8,303c-1.8-23.3,30.1-35.4,62.6-35.9l0,0c0.1,0,0.2,0,0.3,0c0.1,0,0.2,0,0.3,0l0,0
		c32.5,0.5,64.4,12.6,62.6,35.9l-3.5,45c-15.9,10-36.8,16.1-59.8,16.1c-22.5,0-43.1-5.9-58.8-15.5L71.8,303z"/>
	<path class="st55" d="M80.8,304.3c-0.2-2.5,0.1-4.9,0.7-7.1c13.1-7.8,31.4-12.8,51.7-13.1c22.2-0.3,42.2,5.2,55.6,14.1
		c0.5,1.9,0.6,4,0.5,6.1l-0.7,9.1c-13.4-8.7-33.2-14.1-55.2-13.8c-20.4,0.2-38.8,5.3-51.9,13.2L80.8,304.3z"/>
	<path class="st56" d="M152.5,275c1.6,0.3,3.2,0.6,4.7,1l0,86.4c-1.6,0.4-3.1,0.7-4.7,1L152.5,275z"/>
	<path class="st56" d="M116.9,268.5c5.7-0.9,11.6-1.3,17.5-1.4l0,0c0.1,0,0.2,0,0.3,0c0.1,0,0.2,0,0.3,0l0,0
		c5.9,0.1,11.8,0.6,17.5,1.4l0,94.2c-5.9,0.9-12,1.3-18.2,1.3c-5.9,0-11.7-0.4-17.4-1.2L116.9,268.5z"/>
	<path class="st56" d="M116.9,268.4c0.3,0,0.5-0.1,0.8-0.1l14.6,0l0,67.4l0,21.3c-5.3-0.1-10.4-0.4-15.4-1.1L116.9,268.4z"/>
	<path class="st55" d="M120.9,273.8c0.1,0,0.1-0.1,0.2-0.1l3.6,0l0,67.4l0,21.3c-1.3-0.1-2.5-0.4-3.7-1.1L120.9,273.8z"/>
	<path class="st55" d="M124.6,356.7c-1.3-0.1-2.5-0.2-3.7-0.3l0-19.5l3.7,0l0,4.2L124.6,356.7z"/>
	<path class="st2" d="M147.3,267.1c1.8,0.2,3.5,0.6,5.2,1.4l0,97.3c-1.7,0.8-3.4,1.2-5.2,1.3L147.3,267.1z"/>
	<path class="st59" d="M70.9,303c0-0.5-0.1-1-0.1-1.6c-0.2-10.5,6.4-18.7,16.7-24.6c10.1-5.7,23.9-9.2,38.3-10.3
		c2.5-0.2,5.1-0.3,7.7-0.4l0,0l0.9,0l0.2,0l0.1,0l0.1,0l0.2,0l0.9,0l0,0c2.6,0.1,5.2,0.2,7.7,0.4c14.4,1.1,28.2,4.6,38.3,10.3
		c10.3,5.8,16.9,14,16.7,24.6c0,0.6,0,1.1-0.1,1.6l-6.3,80.1c-0.9,10.6-7.3,18.8-16.9,24.5c-10.5,6.4-24.8,9.8-39.4,10.3l0,0.1
		l-0.9,0l-0.2,0l0,0l-0.1,0l-0.2,0l-0.9,0l0-0.1c-14.6-0.5-28.8-3.9-39.4-10.3c-9.6-5.8-16.1-14-16.9-24.6L70.9,303L70.9,303z
		 M72.7,301.4c0,0.5,0,0.9,0.1,1.5L79,383c0.8,9.9,6.9,17.6,16,23.1c10.5,6.3,24.8,9.7,39.4,10l0.3,0l0.3,0
		c14.6-0.3,28.9-3.7,39.4-10c9.1-5.5,15.2-13.2,16-23.1l6.3-80.1c0-0.5,0.1-1,0.1-1.5c0.2-9.8-6.1-17.4-15.8-22.9
		c-9.9-5.6-23.4-9-37.5-10.1c-2.8-0.2-5.7-0.4-8.5-0.4l-0.3,0l-0.3,0c-2.8,0-5.6,0.2-8.5,0.4c-14.2,1.1-27.7,4.5-37.5,10.1
		C78.7,284,72.5,291.6,72.7,301.4z"/>
	<path class="st60" d="M70.9,303c0-0.5-0.1-1-0.1-1.6c-0.2-10.5,6.4-18.7,16.7-24.5c10.1-5.7,23.9-9.2,38.3-10.3
		c2.5-0.2,5.1-0.3,7.7-0.4l0,0l0.9,0l0.2,0l0.1,0l0.1,0l0.2,0l0.9,0l0,0c2.6,0.1,5.2,0.2,7.7,0.4c14.4,1.1,28.2,4.6,38.3,10.3
		c10.3,5.8,16.9,14,16.7,24.6c0,0.6,0,1.1-0.1,1.6l-5,63.6c-0.6,0.3-1.3,0.6-1.9,0.8l5.1-64.6c0-0.5,0.1-1,0.1-1.5
		c0.2-9.8-6.1-17.4-15.8-22.9c-9.9-5.6-23.4-9-37.5-10.1c-2.8-0.2-5.7-0.4-8.5-0.4l-0.3,0l-0.3,0c-2.8,0-5.6,0.2-8.5,0.4
		c-14.2,1.1-27.7,4.5-37.5,10.1c-9.7,5.5-15.9,13.2-15.8,22.9c0,0.5,0,0.9,0.1,1.5l5.2,66.9c-0.6-0.2-1.3-0.5-1.9-0.7L70.9,303z"/>
	<path class="st60" d="M70.9,303c0-0.5-0.1-1-0.1-1.6c-0.2-10.5,6.4-18.7,16.7-24.5c10.1-5.7,23.9-9.2,38.3-10.3
		c2.5-0.2,5.1-0.3,7.7-0.4l0,0l0.9,0l0.2,0l0.1,0l0.1,0l0.2,0l0.9,0l0,0c2.6,0.1,5.2,0.2,7.7,0.4c14.4,1.1,28.2,4.6,38.3,10.3
		c10.3,5.8,16.9,14,16.7,24.6c0,0.6,0,1.1-0.1,1.6l-3.6,45.4c-0.6,0.3-1.3,0.6-1.9,0.8l3.7-46.4c0-0.5,0.1-1,0.1-1.5
		c0.2-9.8-6.1-17.4-15.8-22.9c-9.9-5.6-23.4-9-37.5-10.1c-2.8-0.2-5.7-0.4-8.5-0.4l-0.3,0l-0.3,0c-2.8,0-5.6,0.2-8.5,0.4
		c-14.2,1.1-27.7,4.5-37.5,10.1c-9.7,5.5-15.9,13.2-15.8,22.9c0,0.5,0,0.9,0.1,1.5l3.7,47.5c-0.6-0.3-1.3-0.5-1.9-0.8L70.9,303z"/>
	<path class="st61" d="M70.8,301.9c0-0.2,0-0.3,0-0.5c-0.2-10.5,6.4-18.7,16.7-24.5c7.1-4,16-6.9,25.7-8.7l-0.3,1.9
		c-9.2,1.7-17.7,4.5-24.5,8.4c-9.7,5.5-15.9,13.2-15.8,22.9c0,0.5,0,0.9,0.1,1.5l0,0.1L70.8,301.9z"/>
	<path class="st48" d="M136.5,385.7L136.5,385.7c10.8,0,19.6,8.8,19.6,19.6l0,77.8c0,10.8-8.8,19.6-19.6,19.6l0,0
		c-10.8,0-19.6-8.8-19.6-19.6l0-77.8C117,394.5,125.8,385.7,136.5,385.7z"/>
	<path class="st49" d="M156.1,479.2l0,3.9c0,0.5,0,1-0.1,1.5c-3.3,5-10.8,8.6-19.5,8.8c-8.4,0.2-15.7-2.8-19.4-7.4
		c-0.2-1-0.2-2-0.2-3l0-3.1c3.5,4.8,11.1,8.1,19.8,7.9C145.4,487.6,152.7,484.1,156.1,479.2z"/>
	<path class="st49" d="M136.5,389.4L136.5,389.4c9.9,0,17.9,8.1,17.9,17.9l0,60.3c-5.7,1.6-11.7,2.5-17.9,2.5
		c-6.2,0-12.2-0.9-17.9-2.5l0-60.3C118.6,397.4,126.7,389.4,136.5,389.4z"/>
	<rect x="118.6" y="447.3" class="st49" width="35.9" height="11.1"/>
	
		<rect x="118.6" y="423.2" transform="matrix(-1 -1.390104e-004 1.390104e-004 -1 274.6408 866.3297)" class="st48" width="37.5" height="19.9"/>
	<g>
		<path class="st62" d="M122.7,429.5l28.9,0c0.8,0,1.4,0.6,1.4,1.4l0,0c0,0.8-0.6,1.4-1.4,1.4l-28.9,0c-0.8,0-1.4-0.6-1.4-1.4l0,0
			C121.3,430.1,121.9,429.5,122.7,429.5z"/>
		<path class="st49" d="M122.7,429.5l28.9,0c0.6,0,1.2,0.4,1.3,1l-31.5,0C121.5,429.9,122,429.5,122.7,429.5z"/>
	</g>
	<g>
		<path class="st62" d="M122.6,434l28.9,0c0.8,0,1.4,0.6,1.4,1.4l0,0c0,0.8-0.6,1.4-1.4,1.4l-28.9,0c-0.8,0-1.4-0.6-1.4-1.4l0,0
			C121.3,434.6,121.9,434,122.6,434z"/>
		<path class="st49" d="M122.6,434l28.9,0c0.6,0,1.2,0.4,1.3,1l-31.5,0C121.5,434.4,122,434,122.6,434z"/>
	</g>
	<g>
		<path class="st62" d="M122.6,438.4l28.9,0c0.8,0,1.4,0.6,1.4,1.4l0,0c0,0.8-0.6,1.4-1.4,1.4l-28.9,0c-0.8,0-1.4-0.6-1.4-1.4l0,0
			C121.2,439,121.9,438.4,122.6,438.4z"/>
		<path class="st49" d="M122.6,438.4l28.9,0c0.6,0,1.2,0.4,1.3,1l-31.5,0C121.4,438.9,122,438.4,122.6,438.4z"/>
	</g>
	<g>
		<path class="st62" d="M122.6,442.9l28.9,0c0.8,0,1.4,0.6,1.4,1.4l0,0c0,0.8-0.6,1.4-1.4,1.4l-28.9,0c-0.8,0-1.4-0.6-1.4-1.4l0,0
			C121.2,443.5,121.8,442.9,122.6,442.9z"/>
		<path class="st49" d="M122.6,442.9l28.9,0c0.6,0,1.2,0.4,1.3,1l-31.5,0C121.4,443.3,121.9,442.9,122.6,442.9z"/>
	</g>
	<g>
		<path class="st62" d="M122.6,447.4l28.9,0c0.8,0,1.4,0.6,1.4,1.4l0,0c0,0.8-0.6,1.4-1.4,1.4l-28.9,0c-0.8,0-1.4-0.6-1.4-1.4l0,0
			C121.2,448,121.8,447.4,122.6,447.4z"/>
		<path class="st49" d="M122.6,447.4l28.9,0c0.6,0,1.2,0.4,1.3,1l-31.5,0C121.4,447.8,121.9,447.4,122.6,447.4z"/>
	</g>
	<g>
		<path class="st62" d="M122.5,451.8l28.9,0c0.8,0,1.4,0.6,1.4,1.4l0,0c0,0.8-0.6,1.4-1.4,1.4l-28.9,0c-0.8,0-1.4-0.6-1.4-1.4l0,0
			C121.2,452.5,121.8,451.8,122.5,451.8z"/>
		<path class="st49" d="M122.5,451.8l28.9,0c0.6,0,1.2,0.4,1.3,1l-31.5,0C121.4,452.3,121.9,451.8,122.5,451.8z"/>
	</g>
	<g>
		<path class="st62" d="M122.5,456.3l28.9,0c0.8,0,1.4,0.6,1.4,1.4l0,0c0,0.8-0.6,1.4-1.4,1.4l-28.9,0c-0.8,0-1.4-0.6-1.4-1.4l0,0
			C121.1,456.9,121.8,456.3,122.5,456.3z"/>
		<path class="st49" d="M122.5,456.3l28.9,0c0.6,0,1.2,0.4,1.3,1l-31.5,0C121.3,456.7,121.9,456.3,122.5,456.3z"/>
	</g>
	<g>
		<path class="st62" d="M122.5,460.8l28.9,0c0.8,0,1.4,0.6,1.4,1.4l0,0c0,0.8-0.6,1.4-1.4,1.4l-28.9,0c-0.8,0-1.4-0.6-1.4-1.4l0,0
			C121.1,461.4,121.7,460.8,122.5,460.8z"/>
		<path class="st49" d="M122.5,460.8l28.9,0c0.6,0,1.2,0.4,1.3,1l-31.5,0C121.3,461.2,121.9,460.8,122.5,460.8z"/>
	</g>
	<g>
		<path class="st62" d="M122.5,465.2l28.9,0c0.8,0,1.4,0.6,1.4,1.4l0,0c0,0.8-0.6,1.4-1.4,1.4l-28.9,0c-0.8,0-1.4-0.6-1.4-1.4l0,0
			C121.1,465.9,121.7,465.2,122.5,465.2z"/>
		<path class="st49" d="M122.5,465.2l28.9,0c0.6,0,1.2,0.4,1.3,1l-31.5,0C121.3,465.7,121.8,465.2,122.5,465.2z"/>
	</g>
	<g>
		<path class="st62" d="M122.4,469.7l28.9,0c0.8,0,1.4,0.6,1.4,1.4l0,0c0,0.8-0.6,1.4-1.4,1.4l-28.9,0c-0.8,0-1.4-0.6-1.4-1.4l0,0
			C121.1,470.3,121.7,469.7,122.4,469.7z"/>
		<path class="st49" d="M122.4,469.7l28.9,0c0.6,0,1.2,0.4,1.3,1l-31.5,0C121.3,470.2,121.8,469.7,122.4,469.7z"/>
	</g>
	<g>
		<path class="st62" d="M122.4,474.2l28.9,0c0.8,0,1.4,0.6,1.4,1.4l0,0c0,0.8-0.6,1.4-1.4,1.4l-28.9,0c-0.8,0-1.4-0.6-1.4-1.4l0,0
			C121.1,474.8,121.7,474.2,122.4,474.2z"/>
		<path class="st49" d="M122.4,474.2l28.9,0c0.6,0,1.2,0.4,1.3,1l-31.5,0C121.3,474.6,121.8,474.2,122.4,474.2z"/>
	</g>
	<g>
		<path class="st62" d="M122.4,478.7l28.9,0c0.8,0,1.4,0.6,1.4,1.4l0,0c0,0.8-0.6,1.4-1.4,1.4l-28.9,0c-0.8,0-1.4-0.6-1.4-1.4l0,0
			C121,479.3,121.6,478.7,122.4,478.7z"/>
		<path class="st49" d="M122.4,478.7l28.9,0c0.6,0,1.2,0.4,1.3,1l-31.5,0C121.2,479.1,121.8,478.7,122.4,478.7z"/>
	</g>
	<g>
		<path class="st62" d="M122.4,483.1l28.9,0c0.8,0,1.4,0.6,1.4,1.4l0,0c0,0.8-0.6,1.4-1.4,1.4l-28.9,0c-0.8,0-1.4-0.6-1.4-1.4l0,0
			C121,483.7,121.6,483.1,122.4,483.1z"/>
		<path class="st49" d="M122.4,483.1l28.9,0c0.6,0,1.2,0.4,1.3,1l-31.5,0C121.2,483.6,121.7,483.1,122.4,483.1z"/>
	</g>
	<g>
		<path class="st62" d="M125.7,487.9l22.1,0c0.6,0,1.1,0.5,1.1,1.1l0,0c0,0.6-0.5,1.1-1,1.1l-22.1,0c-0.6,0-1.1-0.5-1.1-1l0,0
			C124.7,488.4,125.1,487.9,125.7,487.9z"/>
		<path class="st49" d="M125.7,487.9l22.1,0c0.5,0,0.9,0.3,1,0.8l-24.2,0C124.8,488.3,125.2,487.9,125.7,487.9z"/>
	</g>
	<g>
		<path class="st62" d="M129.1,492.7l15.4,0c0.4,0,0.7,0.3,0.7,0.7l0,0c0,0.4-0.3,0.7-0.7,0.7l-15.4,0c-0.4,0-0.7-0.3-0.7-0.7l0,0
			C128.3,493,128.6,492.7,129.1,492.7z"/>
		<path class="st49" d="M129.1,492.7l15.4,0c0.3,0,0.6,0.2,0.7,0.5l-16.8,0C128.4,492.9,128.7,492.7,129.1,492.7z"/>
	</g>
	<g>
		<path class="st62" d="M132.4,497.5l8.7,0c0.2,0,0.4,0.2,0.4,0.4l0,0c0,0.2-0.2,0.4-0.4,0.4l-8.7,0c-0.2,0-0.4-0.2-0.4-0.4l0,0
			C132,497.7,132.2,497.5,132.4,497.5z"/>
		<path class="st49" d="M132.4,497.5l8.7,0c0.2,0,0.4,0.1,0.4,0.3l-9.5,0C132,497.6,132.2,497.5,132.4,497.5z"/>
	</g>
	<path class="st56" d="M136.2,357.4c24.2,0,43.8,19.6,43.8,43.8l0,0l0,24.6l-87.6,0l0-24.6C92.4,377,112,357.4,136.2,357.4z"/>
	<path class="st0" d="M131.9,425.8l-23.3,0c-0.9-9.7-1.9-28.2,2.6-38.8c6.3-14.7,19.8-19.8,19.8-19.8L131.9,425.8z"/>
	<path class="st55" d="M135.3,360.1c2.5,0,4.9,0.2,7.2,0.6c-0.7,0-1.4-0.1-2.1-0.1c-22.4,0-40.5,18.1-40.5,40.5l0,22.2l-5.1,0
		l0-22.7C94.8,378.3,112.9,360.1,135.3,360.1z"/>
	<path class="st2" d="M176.4,425.8l-19.9,0c0.3-17.3,1-36.5-6.4-51.1c-1.9-3.7-6.5-7.5-9.2-10.5c-2.3-2.5-3.8-3.4-3.8-3.4
		c27.6,5.8,33.8,16.8,36.8,32.4C176.5,407,176.1,418.1,176.4,425.8z"/>
	<g>
		<path class="st2" d="M85.9,315.9L85.9,315.9c3.6-0.3,6.8,2.5,7.1,6.1l1.1,14.2c0.3,3.6-2.5,6.8-6.1,7.1l0,0
			c-3.6,0.3-6.8-2.5-7.1-6.1L79.8,323C79.5,319.3,82.2,316.1,85.9,315.9z"/>
		<path class="st56" d="M84.3,315.5L84.3,315.5c3.6-0.3,6.8,2.5,7.1,6.1l1.1,14.2c0.3,3.6-2.5,6.8-6.1,7.1l0,0
			c-3.6,0.3-6.8-2.5-7.1-6.1l-1.1-14.2C77.9,319,80.7,315.8,84.3,315.5z"/>
		<path class="st44" d="M84.4,317.2L84.4,317.2c3.1-0.2,5.8,2.1,6,5.2l0.9,12c0.2,3.1-2.1,5.8-5.2,6l0,0c-3.1,0.2-5.8-2.1-6-5.2
			l-0.9-12C79,320.1,81.3,317.5,84.4,317.2z"/>
		<path class="st45" d="M84.6,319.9L84.6,319.9c2.4-0.2,4.5,1.6,4.7,4l0.7,9.3c0.2,2.4-1.6,4.5-4,4.7l0,0c-2.4,0.2-4.5-1.6-4.7-4
			l-0.7-9.3C80.4,322.2,82.2,320.1,84.6,319.9z"/>
		<circle class="st53" cx="83.1" cy="322.5" r="2.5"/>
		<circle class="st47" cx="82.1" cy="321" r="1.2"/>
	</g>
	<g>
		<path class="st2" d="M184.7,316.1L184.7,316.1c3.6,0.3,6.3,3.5,6,7.1l-1.2,14.2c-0.3,3.6-3.5,6.3-7.1,6l0,0
			c-3.6-0.3-6.3-3.5-6-7.1l1.2-14.2C177.8,318.5,181,315.8,184.7,316.1z"/>
		<path class="st56" d="M183.2,315.5L183.2,315.5c3.6,0.3,6.3,3.5,6,7.1l-1.2,14.2c0.6,3.9-2.4,6.7-7.1,6h0c-3.6-0.3-6.3-3.5-6-7.1
			l1.2-14.2C176.4,317.9,179.6,315.2,183.2,315.5z"/>
		<path class="st44" d="M183,317.2L183,317.2c3.1,0.3,5.4,3,5.1,6l-1,12c-0.3,3.1-3,5.4-6,5.1l0,0c-3.1-0.3-5.4-3-5.1-6l1-12
			C177.2,319.3,180,317,183,317.2z"/>
		<path class="st45" d="M182.8,319.9L182.8,319.9c2.4,0.2,4.2,2.3,4,4.7l-0.8,9.3c-0.2,2.4-2.3,4.2-4.7,4l0,0
			c-2.4-0.2-4.2-2.3-4-4.7l0.8-9.3C178.3,321.5,180.4,319.7,182.8,319.9z"/>
		<circle class="st53" cx="181.7" cy="323" r="2.5"/>
		<circle class="st46" cx="179.9" cy="321.5" r="1.2"/>
	</g>
	<g>
		<path class="st44" d="M146.3,328.5l-2,15.3c-1.3,10.3-15.9,11.7-17.4-0.8l-1.7-14.4C124.3,320.6,147.3,320.6,146.3,328.5z"/>
		<path class="st48" d="M145.1,329.1l-1.8,13.3c-1.2,9-13.9,10.3-15.2-0.7l-1.5-12.6C125.8,322.2,146,322.2,145.1,329.1z"/>
		<g>
			<path class="st44" d="M142.8,343.8c-2.5,4.4-12.1,4.3-14.3,0c2.2,0.7,4.7,1.1,7.2,1.1C138.2,344.9,140.6,344.5,142.8,343.8z"/>
			<path class="st44" d="M143.8,338.1c-2.8,5-13.8,4.9-16.3,0c2.5,0.8,5.3,1.2,8.2,1.2C138.6,339.2,141.3,338.8,143.8,338.1z"/>
			<path class="st44" d="M144.8,332.3c-3.1,5.6-15.4,5.4-18.2,0c2.8,0.9,5.9,1.4,9.2,1.4C138.9,333.6,142,333.1,144.8,332.3z"/>
			<path class="st44" d="M145.5,326.6c-3.4,6.1-16.6,5.9-19.7,0c3.1,1,6.4,1.5,9.9,1.5C139.2,328,142.5,327.5,145.5,326.6z"/>
		</g>
	</g>
	<path class="st44" d="M55.7,207.7l2.7,0c0.7,0,1.3,0.6,1.3,1.3l0,10.7c0,0.7-0.6,1.3-1.3,1.3l-2.7,0c-0.7,0-1.3-0.6-1.3-1.3l0-10.7
		C54.3,208.3,54.9,207.7,55.7,207.7z"/>
	<path class="st44" d="M211.5,207.4l2.7,0c0.7,0,1.3,0.6,1.3,1.3l0,10.7c0,0.7-0.6,1.3-1.3,1.3l-2.7,0c-0.7,0-1.3-0.6-1.3-1.3
		l0-10.7C210.2,208,210.8,207.4,211.5,207.4z"/>
	<rect x="54.3" y="216.8" class="st54" width="5.4" height="2.9"/>
	<rect x="210.2" y="216.5" class="st54" width="5.4" height="2.9"/>
	<path class="st53" d="M59.7,209C59.7,209,59.7,209,59.7,209l0,2.3l-5.4,0l0-2.2c0,0,0-0.1,0-0.1L59.7,209z"/>
	<path class="st49" d="M41.6,319.4c-2.8,4.8-0.2,17,6.8,12.6c7-4.3,7.9-13,5-14.2C50.5,316.7,45.3,313.4,41.6,319.4z"/>
	<path class="st63" d="M32.8,203.3c-1.1,0.2-9-2.7-14.9,3.5c-5.4,5.6-0.2,21.5,3.8,17.1c1-1.1,0.6-1.9,0.6-1.9l0.5,0
		c0,0,0.3,0.5,1.1,2.2s1.5,1.6,3.1,1.8c1.6,0.2,2-0.4,2.1-1c0.1-0.6,0.6-2.9,0.6-2.9l0.5,0c0,0,0,2.2,1,3.1c0.9,0.9,1.7,1.2,3,1
		c1.3-0.2,1.3-0.3,1.7-0.9c0.4-0.5,0-3.1,0-3.1l0.6,0c0,0,0.5,2.8,1.4,3.2c0.9,0.4,3.7,0.4,4.2,0.3c0.5-0.1,2-4.1,2-4.1
		s-0.8-0.1-1.3-0.3c-0.3-0.2-0.1,0.1-0.9-1.9c-2-5,1.1-10.3,1.1-10.3S42.4,203.6,32.8,203.3z"/>
	<path class="st64" d="M32.8,203.3c-1.1,0.2-9-2.7-14.9,3.5c-0.1,0.1-0.2,0.2-0.3,0.3c1-0.2,2.2-0.5,3.7-0.8
		c1.4-0.8,8.3-1.4,12.5-0.8c4.2,0.6,7.2,2.9,7.2,2.9s0.5-0.7,0.9-1.6C40.7,205.2,38.1,203.4,32.8,203.3z"/>
	<path class="st64" d="M15.6,213.2c-0.3,6.5,3.2,13.9,6.1,10.7c1-1.1,0.6-1.9,0.6-1.9l0.5,0c0,0,0.3,0.5,1.1,2.2s1.5,1.6,3.1,1.8
		c1.6,0.2,2-0.4,2.1-1c0.1-0.6,0.6-2.9,0.6-2.9l0.5,0c0,0,0,2.2,1,3.1c0.9,0.9,1.7,1.2,3,1c1.3-0.2,1.3-0.3,1.7-0.9
		c0.4-0.5,0-3.1,0-3.1l0.6,0c0,0,0.5,2.8,1.4,3.2c0.9,0.4,3.7,0.4,4.2,0.3c0.5-0.1,2-4.1,2-4.1s-0.8-0.1-1.3-0.3
		c-0.3-0.2-0.1,0.1-0.9-1.9c-2-5,1.1-10.3,1.1-10.3s-0.1-1-0.9-2.2c-0.6,0.4-1.2,0.9-1.8,1.6c-1.6,1.9-2.7,6.1-3.8,6.3
		c-1.1,0.2-0.8-1.3-0.7-1.7c0.2-0.4-0.5-1.6-1.4-0.8c-0.9,0.8-3.2,2.4-4.9,1.7c-1.7-0.6-0.6-1.8-1.1-2c-0.4-0.2-0.4,1-1.9,1.7
		c-1.5,0.7-3.3,0.3-4.4-0.6c-1.2-0.9-0.6-2-1.3-1.5c-0.7,0.5,0.3,1.6-3.2,2C16.8,213.8,16.1,213.6,15.6,213.2z"/>
	<path class="st65" d="M16.9,220.8c1.2,3.1,3.1,4.9,4.9,3.1c1-1.1,0.6-1.9,0.6-1.9l0.5,0c0,0,0.3,0.5,1.1,2.2s1.5,1.6,3.1,1.8
		c1.6,0.2,2-0.4,2.1-1c0.1-0.6,0.6-2.9,0.6-2.9l0.5,0c0,0,0,2.2,1,3.1c0.9,0.9,1.7,1.2,3,1c1.3-0.2,1.3-0.3,1.7-0.9
		c0.4-0.5,0-3.1,0-3.1l0.6,0c0,0,0.5,2.8,1.4,3.2c0.9,0.4,3.7,0.4,4.2,0.3c0.5-0.1,2-4.1,2-4.1s-0.8-0.1-1.3-0.3
		c-0.3-0.2-0.1,0.1-0.9-1.9c-2-5,1.1-10.3,1.1-10.3s0-0.2-0.1-0.6c-0.9-0.6-1.6,1.2-2.5,2.8c-0.9,1.6-0.7,7-0.9,8.8
		c-0.1,1.8-2,1.2-2.7,0.8c-0.6-0.4-0.8-3.5-0.8-3.9c0-0.3-0.4-1.2-1.1-0.6c-0.7,0.6-0.5,4.9-1.9,5.2c-1.5,0.3-2.2,0-2.9-0.9
		c-0.7-0.9-0.4-3.6-0.7-4.5s-0.6-1.1-1-0.7c-0.3,0.5,0.1,2.7,0.1,3.6c0.1,0.9-0.2,2.1-2.2,2.1s-3-0.5-3.3-0.7
		c-0.4-0.2-1.6-4.1-1.9-5.2c-0.3-1.1,0.1-1.7-0.6-0.9c-0.8,0.8,0.2,4.5-1.9,5.6C18.1,220.5,17.5,220.7,16.9,220.8z"/>
	<path class="st49" d="M178.1,262.7c0,0,16.4,11.2,24.6,16.2c8.2,5,16.7,12.9,16.1,14.9c-0.7,2,5.5-2.8,3-6.1
		C219.3,284.4,177.5,260.2,178.1,262.7z"/>
	<path class="st49" d="M45,338.7c0,0,5.9,6.3,12.1,11.1c6.2,4.8,19.5,12.3,19.5,12.3s-18-12.9-20.7-16.3c-2.7-3.4-6.5-6.7-7.2-8.9
		C48.1,334.6,45,335.9,45,338.7z"/>
	<path class="st49" d="M226.6,323.1c-2.2,2-12.8,15.1-14.6,17.8c-1.8,2.7,0.1,1.1,0.1,1.1s12.8-14.4,15.9-16
		C231,324.5,230.7,322.3,226.6,323.1z"/>
	<path class="st47" d="M17.3,155.5c0.2,0.2,1.9,2,1.9,2s-1.3,3.8-1,3.7c0.3-0.1,2.6-2.5,2.6-2.5l4,0.7l-2.5-2.7l0.8-3.1l-0.6-0.1
		l-1.6,2.1L17.3,155.5z"/>
	<path class="st47" d="M124.6,204c0,0-9.7,4.8-9,5.3c0.7,0.5,9.8-3.4,9.8-3.4s4.4,10.8,4.7,9.4c0.3-1.5-3-10.4-3-10.4
		s8.8-3.5,8.9-4.2c0.1-0.7-0.6-1.1-0.6-1.1l-8.4,3.6c0,0-4.6-9.7-4.9-8.2C122,196.5,124.6,204,124.6,204z"/>
	<path class="st47" d="M76.9,284.4c0,0-10.2,2.9-9.6,3.6c0.6,0.6,10.1-1.6,10.1-1.6s2.4,11.2,3,9.8c0.6-1.4-1.1-10.5-1.1-10.5
		s9.1-1.9,9.4-2.5c0.3-0.6-0.4-1.2-0.4-1.2l-8.7,2c0,0-2.8-10.1-3.3-8.8C75.7,276.6,76.9,284.4,76.9,284.4z"/>
	<path class="st47" d="M56.9,209.3c0,0-4,1.2-3.8,1.4c0.2,0.2,4-0.6,4-0.6s0.9,4.5,1.2,3.9c0.2-0.5-0.4-4.2-0.4-4.2s3.6-0.7,3.7-1
		c0.1-0.3-0.1-0.5-0.1-0.5l-3.5,0.8c0,0-1.1-4-1.3-3.5C56.4,206.2,56.9,209.3,56.9,209.3z"/>
	<path class="st63" d="M239.5,202.2c1.1,0.1,8.8-3.1,15,2.7c5.7,5.3,1.3,21.5-2.9,17.3c-1.1-1.1-0.7-1.9-0.7-1.9l-0.5,0.1
		c0,0-0.3,0.5-1,2.3c-0.7,1.7-1.4,1.7-3,2c-1.5,0.3-2-0.3-2.2-0.9c-0.1-0.6-0.8-2.9-0.8-2.9L243,221c0,0,0.1,2.2-0.8,3.2
		c-0.9,1-1.6,1.3-2.9,1.1c-1.3-0.1-1.3-0.3-1.8-0.8c-0.5-0.5-0.2-3.1-0.2-3.1l-0.6,0.1c0,0-0.3,2.8-1.2,3.2
		c-0.9,0.4-3.6,0.6-4.1,0.5c-0.5-0.1-2.2-4-2.2-4s0.8-0.1,1.3-0.4c0.3-0.2,0.1,0.1,0.8-2c1.7-5.1-1.6-10.2-1.6-10.2
		S229.8,203,239.5,202.2z"/>
	<path class="st64" d="M240.7,202c1.1,0.1,6.7-1.7,13.9,2.9c2,1.3,2.5,6.1,2.6,6.3c-1-0.1-1.9,1.7-3.4,1.4c-0.6-0.3-1.7-5.6-4-7.2
		c-3.5-2.4-8.7-1.4-11.2-1c-4.2,0.8-7,3.3-7,3.3s-0.5-0.6-1-1.5C231.7,204.6,235.3,202.5,240.7,202z"/>
	<path class="st65" d="M243.7,201.5c3-0.3,7.2,0,10.8,3.4c0.1,0.1,0.2,0.2,0.3,0.3c-1-0.1-2.3-0.3-3.7-0.7c-0.4-0.2-1.4-0.4-2.7-0.5
		C246.7,203,245,202.1,243.7,201.5L243.7,201.5z"/>
	<path class="st64" d="M257.1,211.2c0.6,6.5-2.5,14.1-5.5,11c-1.1-1.1-0.7-1.9-0.7-1.9l-0.5,0.1c0,0-0.3,0.5-1,2.3
		c-0.7,1.7-1.4,1.7-3,2c-1.5,0.3-2-0.3-2.2-0.9c-0.1-0.6-0.8-2.9-0.8-2.9L243,221c0,0,0.1,2.2-0.8,3.2c-0.9,1-1.6,1.3-2.9,1.1
		c-1.3-0.1-1.3-0.3-1.8-0.8c-0.5-0.5-0.2-3.1-0.2-3.1l-0.6,0.1c0,0-0.3,2.8-1.2,3.2c-0.9,0.4-3.6,0.6-4.1,0.5c-0.5-0.1-2.2-4-2.2-4
		s0.8-0.1,1.3-0.4c0.3-0.2,0.1,0.1,0.8-2c1.7-5.1-1.6-10.2-1.6-10.2s0-1,0.8-2.2c0.6,0.3,1.3,0.8,1.9,1.5c1.7,1.8,3,5.9,4.1,6.1
		c1.1,0.1,0.8-1.4,0.6-1.7c-0.2-0.4,0.4-1.6,1.3-0.9c0.9,0.7,3.3,2.2,5,1.5c1.7-0.7,0.5-1.9,1-2.1c0.4-0.2,0.4,1,2,1.6
		c1.6,0.7,3.3,0.1,4.4-0.8c1.1-1,0.5-2.1,1.2-1.6c0.7,0.5-0.3,1.6,3.3,1.8C256,211.9,256.6,211.6,257.1,211.2z"/>
	<path class="st65" d="M257.1,211.2c0.3,3.4-0.4,7.1-1.5,9.4c-0.4-0.4-0.4-1.3-1-1.6c-1-0.5,0.8-2.9,0.5-7.1
		C256,211.9,256.6,211.6,257.1,211.2z"/>
	<path class="st65" d="M256.3,218.9c-1.1,3.2-2.9,5.1-4.7,3.3c-1.1-1.1-0.7-1.9-0.7-1.9l-0.5,0.1c0,0-0.3,0.5-1,2.3
		c-0.7,1.7-1.4,1.7-3,2c-1.5,0.3-2-0.3-2.2-0.9c-0.1-0.6-0.8-2.9-0.8-2.9L243,221c0,0,0.1,2.2-0.8,3.2c-0.9,1-1.6,1.3-2.9,1.1
		c-1.3-0.1-1.3-0.3-1.8-0.8c-0.5-0.5-0.2-3.1-0.2-3.1l-0.6,0.1c0,0-0.3,2.8-1.2,3.2c-0.9,0.4-3.6,0.6-4.1,0.5c-0.5-0.1-2.2-4-2.2-4
		s0.8-0.1,1.3-0.4c0.3-0.2,0.1,0.1,0.8-2c1.7-5.1-1.6-10.2-1.6-10.2s0-0.2,0.1-0.6c0.9-0.6,1.7,1.1,2.6,2.7c1,1.5,1.1,6.9,1.3,8.7
		c0.2,1.8,2.1,1.1,2.7,0.7c0.6-0.4,0.6-3.6,0.6-3.9c0-0.3,0.4-1.3,1.1-0.7c0.7,0.6,0.7,4.8,2.2,5.1c1.5,0.2,2.2-0.1,2.9-1
		c0.7-0.9,0.3-3.6,0.4-4.5c0.2-0.9,0.6-1.2,0.9-0.7c0.3,0.4,0.1,2.7,0,3.6c0,0.9,0.3,2.1,2.3,2c2-0.1,3-0.6,3.3-0.9
		c0.3-0.3,1.4-4.1,1.6-5.3c0.3-1.1-0.2-1.7,0.6-0.9c0.8,0.8,0.1,4.5,2.1,5.5C255,218.7,255.6,218.8,256.3,218.9z"/>
	<path class="st63" d="M230.2,206.8c1.9,1.1,2.8,12.2,3.9,11.5c0.5-0.3,1.3-0.7,1.9-2.1c0.7-1.5,0-5.2-0.9-7.4
		C233.3,204.6,232.5,203.6,230.2,206.8z"/>
	<linearGradient id="SVGID_22_" gradientUnits="userSpaceOnUse" x1="44.7571" y1="78.4136" x2="207.3567" y2="78.4136">
		<stop  offset="0" style="stop-color:#FFFFFF"/>
		<stop  offset="0.8763" style="stop-color:#DCD8D7"/>
	</linearGradient>
	<path class="st66" d="M68.3,92c0-19.4,15.9-35.3,35.3-35.3h44.6c18.7,0,33.9,15.3,33.9,33.9v59.2c15.5-16.2,25.2-38.9,25.2-64.2
		c0-49.1-36.4-78.4-81.3-78.4c-44.9,0-81.3,29.3-81.3,78.4c0,24.4,9,46.5,23.6,62.5V92z"/>
	<path class="st67" d="M188.3,142.6V88.1c0-20.7-16.9-37.6-37.6-37.6h-49.5c-21.6,0-39.2,17.6-39.2,39.2v50.5c2,2.7,4,5.4,6.3,7.8
		V92c0-19.4,15.9-35.3,35.3-35.3h44.6c18.7,0,33.9,15.3,33.9,33.9v59.2C184.4,147.4,186.4,145.1,188.3,142.6z"/>
	<g>
		<path class="st3" d="M62.1,50.8c-0.4,0-0.8-0.1-1.1-0.2c-1.4-0.6-2-2.3-1.4-3.7c0.6-1.3,14.5-30.9,55.6-35.6
			c1.5-0.2,2.9,0.9,3.1,2.4c0.2,1.5-0.9,2.9-2.4,3.1c-38,4.4-51.1,32.2-51.2,32.4C64.1,50.2,63.1,50.8,62.1,50.8z"/>
	</g>
	<g id="XMLID_61_">
		<path id="XMLID_90_" class="st42" d="M96.5,24.3c-0.7,0-1.2,0.5-1.2,1.2c0,0.3,0.1,0.6,0.3,0.8l-7.1,10.5
			c-0.1,0.2-0.2,0.3-0.4,0.6l0,0c-0.1,0.2-0.2,0.5-0.2,0.8c0,1,0.8,1.9,1.9,1.9c0.9,0,1.6-0.6,1.8-1.3l4.7-12c0.1,0,0.1,0,0.2,0
			c0.7,0,1.2-0.5,1.2-1.2C97.7,24.8,97.2,24.3,96.5,24.3"/>
		<path id="XMLID_89_" class="st41" d="M97.6,28L97.6,28c-0.3,0.1-0.6,0.3-0.6,0.6l0,0l-2.4,11.6c-0.1,0.5-0.2,0.8-1.3,0.8
			c-0.2,0-1.3,0-1.3,0h-3.3c-1.1,0-1.2-0.3-1.3-0.8L85,28.6l0,0c-0.1-0.3-0.3-0.5-0.6-0.6l0,0l-2.7-0.3c0,0,0.4,0.3,0.5,0.9
			c0.1,0.3,3,13.9,3,13.9l0,0c0.1,0.6,0.7,1,1.3,1H90l5.6,0c0.6,0,1.2-0.4,1.3-1l0,0c0,0,2.9-13.6,3-13.9c0.1-0.6,0.6-0.9,0.6-0.9
			L97.6,28z"/>
		<path id="XMLID_88_" class="st42" d="M101.5,30.4h-0.7v-1h0.7c0-0.7,0.1-1.1,0.4-1.3c0.3-0.2,0.7-0.4,1.3-0.4c0.1,0,0.3,0,0.5,0
			l0.2,0v1.1c-0.1,0-0.3,0-0.4,0c-0.2,0-0.3,0-0.4,0.1c-0.1,0.1-0.1,0.2-0.1,0.4v0.2h0.9v1H103V34h-1.5V30.4z"/>
		<path id="XMLID_85_" class="st42" d="M104.3,30.8c0-0.3,0.1-0.5,0.2-0.7c0.1-0.2,0.3-0.4,0.5-0.5c0.2-0.1,0.4-0.2,0.7-0.2
			c0.2,0,0.5-0.1,0.8-0.1c0.3,0,0.6,0,0.8,0.1c0.2,0,0.5,0.1,0.7,0.2c0.2,0.1,0.4,0.3,0.5,0.5c0.1,0.2,0.2,0.5,0.2,0.8v2
			c0,0.3,0,0.5,0,0.7c0,0.2,0.1,0.3,0.1,0.5h-1.5c0-0.1-0.1-0.2-0.1-0.4c-0.2,0.2-0.4,0.3-0.7,0.4c-0.3,0.1-0.5,0.1-0.8,0.1
			c-0.5,0-0.8-0.1-1.1-0.4c-0.3-0.2-0.4-0.6-0.4-1c0-0.3,0.1-0.5,0.2-0.7c0.1-0.2,0.3-0.3,0.5-0.4c0.2-0.1,0.4-0.2,0.6-0.2
			c0.2,0,0.5-0.1,0.8-0.1c0.3,0,0.5-0.1,0.6-0.1c0.1,0,0.2-0.1,0.3-0.1c0.1-0.1,0.1-0.2,0.1-0.3c0-0.2-0.1-0.3-0.2-0.4
			c-0.1-0.1-0.3-0.1-0.5-0.1c-0.4,0-0.7,0.2-0.7,0.6H104.3z M105.8,33.1c0.1,0.1,0.3,0.1,0.4,0.1c0.3,0,0.6-0.1,0.7-0.3
			c0.1-0.2,0.2-0.5,0.2-1c-0.1,0-0.1,0.1-0.2,0.1c-0.1,0-0.2,0-0.3,0.1c-0.2,0-0.3,0.1-0.4,0.1c-0.2,0-0.3,0.1-0.4,0.2
			c-0.1,0.1-0.2,0.2-0.2,0.4C105.6,32.9,105.7,33,105.8,33.1"/>
		<path id="XMLID_84_" class="st42" d="M109.7,29.4h1.4v0.8h0c0.1-0.3,0.3-0.5,0.5-0.7c0.2-0.2,0.5-0.2,0.8-0.2c0.1,0,0.3,0,0.4,0
			v1.4c-0.2-0.1-0.4-0.1-0.6-0.1c-0.4,0-0.6,0.1-0.8,0.3c-0.2,0.2-0.3,0.5-0.3,0.8V34h-1.5V29.4z"/>
		<path id="XMLID_83_" class="st42" d="M113.3,29.4h1.4v0.6h0c0.1-0.2,0.3-0.4,0.6-0.6c0.2-0.1,0.5-0.2,0.8-0.2
			c0.3,0,0.6,0.1,0.8,0.2c0.2,0.1,0.4,0.3,0.5,0.6c0.4-0.5,0.8-0.7,1.4-0.7c0.3,0,0.6,0.1,0.8,0.2c0.2,0.1,0.4,0.3,0.5,0.5
			c0.1,0.2,0.2,0.4,0.2,0.6c0,0.2,0.1,0.5,0.1,0.7V34H119v-2.7c0-0.2-0.1-0.4-0.2-0.6c-0.1-0.1-0.3-0.2-0.5-0.2
			c-0.3,0-0.5,0.1-0.6,0.3c-0.1,0.2-0.1,0.5-0.1,0.9V34h-1.5v-2.6c0-0.3,0-0.5-0.1-0.6c-0.1-0.1-0.2-0.2-0.4-0.2
			c-0.3,0-0.5,0.1-0.6,0.3c-0.1,0.2-0.2,0.5-0.2,1V34h-1.5V29.4z"/>
		<path id="XMLID_80_" class="st42" d="M121.4,30.8c0-0.3,0.1-0.5,0.2-0.7c0.1-0.2,0.3-0.4,0.5-0.5c0.2-0.1,0.4-0.2,0.7-0.2
			c0.2,0,0.5-0.1,0.8-0.1c0.3,0,0.6,0,0.8,0.1c0.2,0,0.5,0.1,0.7,0.2c0.2,0.1,0.4,0.3,0.5,0.5c0.1,0.2,0.2,0.5,0.2,0.8v2
			c0,0.3,0,0.5,0,0.7c0,0.2,0.1,0.3,0.1,0.5h-1.5c0-0.1-0.1-0.2-0.1-0.4c-0.2,0.2-0.4,0.3-0.7,0.4c-0.3,0.1-0.5,0.1-0.8,0.1
			c-0.5,0-0.8-0.1-1.1-0.4c-0.3-0.2-0.4-0.6-0.4-1c0-0.3,0.1-0.5,0.2-0.7c0.1-0.2,0.3-0.3,0.5-0.4c0.2-0.1,0.4-0.2,0.6-0.2
			c0.2,0,0.5-0.1,0.8-0.1c0.3,0,0.5-0.1,0.6-0.1c0.1,0,0.2-0.1,0.3-0.1c0.1-0.1,0.1-0.2,0.1-0.3c0-0.2-0.1-0.3-0.2-0.4
			c-0.1-0.1-0.3-0.1-0.5-0.1c-0.4,0-0.7,0.2-0.7,0.6H121.4z M122.9,33.1c0.1,0.1,0.3,0.1,0.4,0.1c0.3,0,0.6-0.1,0.7-0.3
			c0.1-0.2,0.2-0.5,0.2-1c-0.1,0-0.1,0.1-0.2,0.1c-0.1,0-0.2,0-0.3,0.1c-0.2,0-0.3,0.1-0.4,0.1c-0.2,0-0.3,0.1-0.4,0.2
			c-0.1,0.1-0.2,0.2-0.2,0.4C122.7,32.9,122.8,33,122.9,33.1"/>
		<path id="XMLID_79_" class="st42" d="M129.7,31.1c0-0.2-0.1-0.3-0.2-0.5c-0.1-0.1-0.3-0.2-0.5-0.2c-0.2,0-0.4,0-0.5,0.1
			c-0.1,0.1-0.2,0.2-0.3,0.3c-0.1,0.1-0.1,0.3-0.1,0.4c0,0.2,0,0.3,0,0.5c0,0.3,0.1,0.6,0.2,0.8c0.1,0.2,0.4,0.4,0.7,0.4
			c0.3,0,0.4-0.1,0.6-0.2c0.1-0.1,0.2-0.3,0.3-0.6h1.4c-0.1,0.6-0.3,1.1-0.7,1.4c-0.4,0.3-0.9,0.5-1.6,0.5c-0.3,0-0.7-0.1-0.9-0.2
			c-0.3-0.1-0.5-0.3-0.8-0.5c-0.2-0.2-0.4-0.5-0.5-0.7c-0.1-0.3-0.2-0.6-0.2-0.9c0-0.4,0.1-0.7,0.2-1c0.1-0.3,0.3-0.6,0.5-0.8
			c0.2-0.2,0.5-0.4,0.8-0.5c0.3-0.1,0.6-0.2,1-0.2c0.6,0,1.1,0.2,1.5,0.5c0.4,0.3,0.7,0.8,0.7,1.3H129.7z"/>
		<rect id="XMLID_78_" x="131.9" y="29.4" class="st42" width="1.5" height="4.6"/>
		<path id="XMLID_75_" class="st42" d="M134.4,30.8c0-0.3,0.1-0.5,0.2-0.7c0.1-0.2,0.3-0.4,0.5-0.5c0.2-0.1,0.4-0.2,0.7-0.2
			c0.2,0,0.5-0.1,0.8-0.1c0.3,0,0.6,0,0.8,0.1c0.2,0,0.5,0.1,0.7,0.2c0.2,0.1,0.4,0.3,0.5,0.5c0.1,0.2,0.2,0.5,0.2,0.8v2
			c0,0.3,0,0.5,0,0.7c0,0.2,0.1,0.3,0.1,0.5h-1.5c0-0.1-0.1-0.2-0.1-0.4c-0.2,0.2-0.4,0.3-0.7,0.4c-0.3,0.1-0.5,0.1-0.8,0.1
			c-0.5,0-0.8-0.1-1.1-0.4c-0.3-0.2-0.4-0.6-0.4-1c0-0.3,0.1-0.5,0.2-0.7c0.1-0.2,0.3-0.3,0.5-0.4c0.2-0.1,0.4-0.2,0.6-0.2
			c0.2,0,0.5-0.1,0.8-0.1c0.3,0,0.5-0.1,0.6-0.1c0.1,0,0.2-0.1,0.3-0.1c0.1-0.1,0.1-0.2,0.1-0.3c0-0.2-0.1-0.3-0.2-0.4
			c-0.1-0.1-0.3-0.1-0.5-0.1c-0.4,0-0.7,0.2-0.7,0.6H134.4z M135.9,33.1c0.1,0.1,0.3,0.1,0.4,0.1c0.3,0,0.6-0.1,0.7-0.3
			c0.1-0.2,0.2-0.5,0.2-1c-0.1,0-0.1,0.1-0.2,0.1c-0.1,0-0.2,0-0.3,0.1c-0.2,0-0.3,0.1-0.4,0.1c-0.2,0-0.3,0.1-0.4,0.2
			c-0.1,0.1-0.2,0.2-0.2,0.4C135.7,32.9,135.8,33,135.9,33.1"/>
		<path id="XMLID_74_" class="st41" d="M100.1,35.2h3.1l-0.2,1.1h0c0.8-0.8,1.7-1.3,3-1.3c0.8,0,1.4,0.2,1.9,0.7
			c0.5,0.5,0.6,1.2,0.4,2.1l-1.1,5.7H104l0.8-4.4c0.1-0.6,0.1-1,0-1.2c-0.1-0.3-0.3-0.4-0.8-0.4c-0.2,0-0.3,0-0.5,0.1
			c-0.2,0-0.3,0.1-0.5,0.2c-0.2,0.1-0.3,0.3-0.4,0.5c-0.1,0.2-0.2,0.5-0.3,0.8l-0.8,4.4h-3.2L100.1,35.2z"/>
		<polygon id="XMLID_73_" class="st41" points="110.5,35.2 113.7,35.2 112.2,43.5 109,43.5 		"/>
		<polygon id="XMLID_72_" class="st41" points="119.4,43.5 115.7,43.5 114.5,35.2 117.9,35.2 118.2,40.3 118.3,40.3 120.5,35.2 
			123.8,35.2 		"/>
		<path id="XMLID_69_" class="st41" d="M126.2,40.1c-0.1,0.5,0,0.9,0.3,1.2c0.2,0.3,0.6,0.4,1.1,0.4c0.3,0,0.6-0.1,0.8-0.2
			c0.3-0.1,0.5-0.2,0.6-0.4h3c-0.5,0.9-1.1,1.5-2,2c-0.9,0.4-1.8,0.7-2.8,0.7c-0.7,0-1.3-0.1-1.8-0.3c-0.5-0.2-1-0.5-1.3-0.9
			c-0.4-0.4-0.6-0.8-0.7-1.4c-0.1-0.5-0.1-1.2,0-1.8c0.1-0.6,0.3-1.2,0.6-1.7c0.3-0.5,0.7-1,1.2-1.4c0.5-0.4,1-0.7,1.6-0.9
			c0.6-0.2,1.2-0.3,1.8-0.3c1.6,0,2.7,0.4,3.3,1.3c0.6,0.9,0.8,2.1,0.4,3.8H126.2z M129.6,38.4c0.1-0.4,0-0.7-0.2-1
			c-0.2-0.3-0.5-0.4-0.9-0.4c-0.9,0-1.6,0.5-1.9,1.4H129.6z"/>
		<path id="XMLID_68_" class="st41" d="M134.6,35.2h3.1l-0.3,1.3h0c0.4-0.5,0.8-0.9,1.2-1.2c0.4-0.3,0.9-0.4,1.5-0.4
			c0.3,0,0.6,0,0.9,0.1l-0.5,2.8c-0.2-0.1-0.4-0.1-0.5-0.2c-0.2,0-0.4,0-0.7,0c-0.6,0-1.2,0.2-1.6,0.6c-0.4,0.4-0.7,1-0.8,1.9
			l-0.6,3.3H133L134.6,35.2z"/>
		<path id="XMLID_67_" class="st41" d="M146.1,37.6c0-0.3,0-0.5-0.3-0.6c-0.2-0.2-0.4-0.2-0.7-0.2c-0.3,0-0.5,0-0.7,0.1
			c-0.2,0.1-0.3,0.3-0.4,0.5c0,0.1,0,0.2,0.1,0.3c0.1,0.1,0.1,0.1,0.2,0.2c0.1,0.1,0.5,0.2,1.1,0.3c0.7,0.1,1.3,0.3,1.6,0.4
			c0.6,0.2,1,0.5,1.3,0.8c0.3,0.4,0.4,0.9,0.3,1.5c-0.1,0.5-0.3,1-0.6,1.4c-0.3,0.4-0.7,0.7-1.1,0.9c-0.4,0.2-0.9,0.4-1.4,0.5
			c-0.5,0.1-1,0.1-1.6,0.1c-0.5,0-1-0.1-1.5-0.2c-0.5-0.1-0.9-0.3-1.2-0.5c-0.4-0.2-0.6-0.5-0.8-0.9c-0.2-0.4-0.2-0.8-0.1-1.3h3
			c0,0.3,0.1,0.5,0.2,0.7c0.2,0.2,0.4,0.2,0.8,0.2c0.3,0,0.5-0.1,0.8-0.2c0.2-0.1,0.4-0.3,0.4-0.5c0-0.2,0-0.4-0.2-0.5
			c-0.2-0.1-0.6-0.2-1.4-0.4c-1.2-0.2-2-0.5-2.4-0.9c-0.5-0.4-0.6-1-0.5-1.7c0.1-0.5,0.3-0.9,0.6-1.3c0.3-0.3,0.7-0.6,1.1-0.8
			c0.4-0.2,0.9-0.3,1.4-0.4c0.5-0.1,0.9-0.1,1.4-0.1c0.5,0,1,0,1.4,0.1c0.4,0.1,0.8,0.2,1.2,0.4c0.4,0.2,0.6,0.5,0.8,0.8
			c0.2,0.3,0.2,0.8,0.2,1.3H146.1z"/>
		<path id="XMLID_64_" class="st41" d="M157.9,41.7c-0.1,0.4-0.1,0.7-0.1,1c0,0.3,0,0.6,0.2,0.8h-3.2c0-0.2,0-0.5,0-0.8h0
			c-0.4,0.4-0.8,0.6-1.3,0.8c-0.5,0.2-1,0.2-1.6,0.2c-0.9,0-1.5-0.2-2-0.6c-0.5-0.4-0.6-1.1-0.5-1.9c0.1-0.5,0.3-1,0.6-1.3
			c0.3-0.3,0.6-0.6,1-0.8c0.4-0.2,0.8-0.3,1.2-0.4c0.4-0.1,0.9-0.2,1.5-0.2c0.4-0.1,0.7-0.1,0.9-0.1c0.3-0.1,0.5-0.1,0.7-0.2
			c0.2-0.1,0.3-0.3,0.3-0.5c0-0.3,0-0.5-0.2-0.6c-0.2-0.1-0.4-0.2-0.7-0.2c-0.4,0-0.8,0.1-1,0.2c-0.2,0.2-0.3,0.4-0.4,0.6h-3
			c0.1-0.6,0.4-1,0.7-1.4c0.3-0.4,0.7-0.7,1.1-0.8c0.4-0.2,0.9-0.3,1.4-0.4c0.5-0.1,1-0.1,1.6-0.1c0.9,0,1.7,0.1,2.2,0.3
			c0.5,0.2,0.9,0.4,1,0.7c0.2,0.3,0.3,0.6,0.3,1c0,0.3-0.1,0.8-0.2,1.3L157.9,41.7z M155.2,39.8c-0.3,0.1-0.8,0.3-1.3,0.4
			c-0.4,0.1-0.7,0.2-0.9,0.3c-0.2,0.1-0.3,0.3-0.4,0.6c0,0.2,0,0.4,0.2,0.5c0.2,0.2,0.4,0.2,0.7,0.2c0.4,0,0.7-0.1,1-0.3
			c0.3-0.2,0.5-0.5,0.6-1L155.2,39.8z"/>
		<polygon id="XMLID_63_" class="st41" points="161.5,32.1 164.6,32.1 162.5,43.5 159.3,43.5 		"/>
		<path id="XMLID_62_" class="st42" d="M133.5,28.3c0,0.5-0.4,0.9-0.9,0.9c-0.5,0-0.9-0.4-0.9-0.9c0-0.5,0.4-0.9,0.9-0.9
			C133.2,27.4,133.5,27.8,133.5,28.3"/>
	</g>
</g>
</svg>
