<?xml version="1.0" encoding="utf-8"?>
<!-- Generator: Adobe Illustrator 19.0.0, SVG Export Plug-In . SVG Version: 6.00 Build 0)  -->
<svg version="1.1" xmlns="http://www.w3.org/2000/svg" xmlns:xlink="http://www.w3.org/1999/xlink" x="0px" y="0px"
	 viewBox="0 0 65.7 65.7" style="enable-background:new 0 0 65.7 65.7;" xml:space="preserve">
<style type="text/css">
	.st0{fill:#FFFFFF;}
	.st1{fill:#004D92;}
	.st2{display:none;}
	.st3{display:inline;}
	.st4{fill:#004D92;stroke:#FFFFFF;stroke-width:3;stroke-miterlimit:10;}
	.st5{fill:#FFFFFF;stroke:#FFFFFF;stroke-width:3.755;stroke-miterlimit:10;}
</style>
<g id="Capa_1">
	<circle id="XMLID_3_" class="st0" cx="32.9" cy="32.9" r="32.9"/>
	<g id="XMLID_4_">
		<g id="XMLID_50_">
			<g id="XMLID_455_">
				<path id="XMLID_490_" class="st1" d="M3.2,39.6c-0.3-1.5,0.4-2.7,1.6-3.3l0.3,1.7c-0.5,0.4-0.7,0.9-0.6,1.4
					c0.2,0.9,1,1.4,2.1,1.2s1.7-1,1.5-1.9c-0.1-0.6-0.5-1-1-1.2l-0.3-1.7c1.4,0.1,2.4,1.1,2.7,2.6c0.3,1.8-0.7,3.4-2.6,3.7
					S3.6,41.4,3.2,39.6z"/>
				<path id="XMLID_487_" class="st1" d="M9.3,31.9c-0.2,1.8-1.6,3.1-3.5,2.9c-1.9-0.2-3.1-1.8-2.9-3.5c0.2-1.8,1.6-3.1,3.5-2.9
					C8.3,28.6,9.5,30.2,9.3,31.9z M7.9,31.8c0.1-1-0.6-1.7-1.7-1.8c-1.1-0.1-1.9,0.5-2,1.5c-0.1,1,0.6,1.7,1.7,1.8
					C7,33.4,7.8,32.8,7.9,31.8z"/>
				<path id="XMLID_485_" class="st1" d="M5.8,20.8l5.9,2.3l-0.6,1.4l-4.6,1l3.6,1.4l-0.6,1.4L3.8,26l0.6-1.4l4.6-1l-3.7-1.4
					L5.8,20.8z"/>
				<path id="XMLID_482_" class="st1" d="M9.9,14.9c1-1.2,2.2-1.2,3-0.5c0.6,0.5,0.9,1.3,0.5,2.2l2.9,0.5l-1.1,1.3l-2.7-0.5
					l-0.2,0.3l1.8,1.5l-1,1.2l-4.9-4L9.9,14.9z M10.8,15.8l-0.6,0.7l1.2,1l0.6-0.7c0.4-0.4,0.3-0.8-0.1-1.2
					C11.6,15.3,11.2,15.3,10.8,15.8z"/>
				<path id="XMLID_480_" class="st1" d="M16.6,10.3l-1.8,1.4l0.8,1l1.6-1.3l0.7,0.9l-1.6,1.3l0.9,1.1l1.8-1.4l0.8,1l-3,2.4l-3.9-5
					l3-2.4L16.6,10.3z"/>
				<path id="XMLID_478_" class="st1" d="M20.2,6.9c1.4-0.6,2.7-0.4,3.7,0.7l-1.5,0.7c-0.5-0.4-1-0.4-1.5-0.2
					c-0.9,0.4-1.1,1.3-0.7,2.3c0.5,1,1.4,1.4,2.2,1c0.5-0.2,0.8-0.7,0.9-1.3l1.5-0.7c0.3,1.4-0.4,2.6-1.8,3.3
					c-1.7,0.8-3.4,0.1-4.2-1.6C17.9,9.4,18.5,7.6,20.2,6.9z"/>
				<path id="XMLID_476_" class="st1" d="M29,5.5L26.7,6L27,7.3l2-0.4L29.2,8l-2,0.4l0.3,1.4l2.3-0.5l0.3,1.2l-3.8,0.8l-1.3-6.2
					l3.8-0.8L29,5.5z"/>
				<path id="XMLID_474_" class="st1" d="M30.2,4.2l4.9-0.1l0,1.2l-1.7,0l0.1,5.1l-1.5,0l-0.1-5.1l-1.7,0L30.2,4.2z"/>
				<path id="XMLID_471_" class="st1" d="M39.7,10.3l-2.3-0.5l-0.6,1l-1.6-0.4l3.7-5.6l1.7,0.4l0.8,6.7l-1.6-0.4L39.7,10.3z
					 M39.4,6.6l-1.3,2.1L39.6,9L39.4,6.6z"/>
				<path id="XMLID_469_" class="st1" d="M47,7.4l1.5,1l-1,4.6l3.9-2.6l1.5,1l-3.6,5.2L48,15.8l2.1-3.1L46.8,15l-1-0.7l1-3.9
					l-2.2,3.1l-1.3-0.9L47,7.4z"/>
				<path id="XMLID_466_" class="st1" d="M56,16.9l-1.5-1.8l-1,0.8l1.3,1.6L54,18.3l-1.3-1.6l-1,0.9l1.5,1.8l-0.9,0.8l-2.5-2.9
					l4.8-4.1L57,16L56,16.9z M58.2,13.7l-0.9,0.8l-2.1-1l0.8-0.7L58.2,13.7z"/>
				<path id="XMLID_463_" class="st1" d="M58.1,24.2c-1.7,0.9-3.4,0.3-4.3-1.4l-1.1-2.1l5.6-3l1.1,2.1
					C60.3,21.6,59.7,23.4,58.1,24.2z M54.9,22.1c0.5,1,1.5,1.3,2.5,0.8c1-0.5,1.3-1.5,0.8-2.5l-0.3-0.6l-3.2,1.7L54.9,22.1z"/>
				<path id="XMLID_461_" class="st1" d="M61.4,24.4l0.5,1.5l-6,1.9l-0.5-1.5L61.4,24.4z"/>
				<path id="XMLID_459_" class="st1" d="M62.8,30.7c0.2,1.5-0.5,2.7-1.9,3.2l-0.2-1.7c0.5-0.3,0.7-0.8,0.7-1.4
					c-0.1-0.9-0.9-1.5-2-1.4c-1.1,0.1-1.7,0.9-1.6,1.8c0.1,0.6,0.4,1,1,1.2l0.2,1.7c-1.4-0.2-2.4-1.2-2.5-2.7
					c-0.2-1.9,0.9-3.3,2.8-3.5C61.1,27.7,62.6,28.9,62.8,30.7z"/>
				<path id="XMLID_456_" class="st1" d="M57.3,39l0.3-2.3l-1-0.5l0.2-1.6l5.9,3.2l-0.3,1.8l-6.6,1.3l0.2-1.6L57.3,39z M60.9,38.4
					l-2.2-1.1l-0.2,1.5L60.9,38.4z"/>
			</g>
		</g>
		<g id="XMLID_38_">
			<path id="XMLID_41_" class="st1" d="M32.9,55.8c-11.9,0-21.6-9.7-21.6-21.6S21,12.6,32.9,12.6s21.6,9.7,21.6,21.6
				S44.8,55.8,32.9,55.8z M32.9,15.1c-10.5,0-19.1,8.6-19.1,19.1s8.6,19.1,19.1,19.1S52,44.7,52,34.2S43.4,15.1,32.9,15.1z"/>
		</g>
		<path id="XMLID_5_" class="st1" d="M42.7,26.6L37.2,21c-0.1-0.1-0.2-0.2-0.4-0.2H25.1c-1.2,0-2.2,1-2.2,2.2v22.3
			c0,1.2,1,2.2,2.2,2.2h15.6c1.2,0,2.2-1,2.2-2.2V27C42.9,26.8,42.9,26.7,42.7,26.6z M27.9,44.2c-0.9,0-1.7-0.7-1.7-1.7
			s0.7-1.7,1.7-1.7s1.7,0.7,1.7,1.7S28.8,44.2,27.9,44.2z M27.9,38.6c-0.9,0-1.7-0.7-1.7-1.7c0-0.9,0.7-1.7,1.7-1.7s1.7,0.7,1.7,1.7
			C29.6,37.9,28.8,38.6,27.9,38.6z M31.2,33.1H29c-0.3,0-0.6-0.2-0.6-0.6v-1.7h-1.7c-0.3,0-0.6-0.2-0.6-0.6v-2.2
			c0-0.3,0.2-0.6,0.6-0.6h1.7v-1.7c0-0.3,0.2-0.6,0.6-0.6h2.2c0.3,0,0.6,0.2,0.6,0.6v1.7h1.7c0.3,0,0.6,0.2,0.6,0.6v2.2
			c0,0.3-0.2,0.6-0.6,0.6h-1.7v1.7C31.8,32.8,31.5,33.1,31.2,33.1z M39,43.1h-6.7c-0.3,0-0.6-0.2-0.6-0.6S32,42,32.3,42H39
			c0.3,0,0.6,0.2,0.6,0.6S39.3,43.1,39,43.1z M39,37.5h-6.7c-0.3,0-0.6-0.2-0.6-0.6s0.2-0.6,0.6-0.6H39c0.3,0,0.6,0.2,0.6,0.6
			S39.3,37.5,39,37.5z M38.5,26.4c-0.6,0-1.1-0.5-1.1-1.1v-2.6l3.7,3.7H38.5z"/>
	</g>
</g>
<g id="Capa_2" class="st2">
	<g id="XMLID_1_" class="st3">
		<g id="XMLID_32_">
			<path id="XMLID_x5F_34_x5F_" style="fill:none;" d="M-132.1,34.2c0,13.1-10.6,23.8-23.8,23.8c-13.1,0-23.8-10.6-23.8-23.8
				s10.6-23.8,23.8-23.8C-142.8,10.4-132.1,21.1-132.1,34.2z"/>
			<text id="XMLID_114_">			<textPath  xlink:href="#XMLID_x5F_34_x5F_" startOffset="41.862%">
<tspan  class="st1" style="font-family:'Poppins-Bold'; font-size:9px;">Sin Receta Médica</tspan>			</textPath>
</text>
		</g>
		<polygon id="XMLID_31_" class="st4" points="-165.8,47.9 -143.1,25.1 -145,23.3 -167.7,46 		"/>
		<path id="XMLID_30_" class="st1" d="M-138,23.1l-1.9,1.9c1.6,2.7,2.5,5.8,2.5,9.2c0,10.2-8.3,18.5-18.5,18.5
			c-4.1,0-8-1.4-11.1-3.7l26.5-26.5l0,0l1.2-1.2c-3.9-5-9.9-8.2-16.6-8.2c-11.6,0-21.1,9.5-21.1,21.1c0,5,1.8,9.6,4.7,13.2l1.9-1.9
			c-2.5-3.1-4-7.1-4-11.4c0-10.2,8.3-18.5,18.5-18.5c5.1,0,9.7,2.1,13,5.4l-26.1,26.1c0,0,0,0,0,0l-1.8,1.8
			c3.8,3.8,9.1,6.2,14.9,6.2c11.6,0,21.1-9.5,21.1-21.1C-134.8,30.1-136,26.3-138,23.1z"/>
		<path id="XMLID_26_" class="st5" d="M-146.1,26.1l-5-5c-0.1-0.1-0.2-0.1-0.4-0.1H-162c-1.1,0-2,0.9-2,2v20c0,1.1,0.9,2,2,2h14
			c1.1,0,2-0.9,2-2V26.5C-146,26.3-146,26.2-146.1,26.1z"/>
		<path id="XMLID_2_" class="st1" d="M-146,26l-5.1-5.1c-0.1-0.1-0.2-0.1-0.4-0.1H-162c-1.1,0-2,0.9-2,2V43c0,1.1,0.9,2,2,2h14.1
			c1.1,0,2-0.9,2-2V26.3C-145.8,26.2-145.9,26-146,26z M-159.4,42c-0.8,0-1.5-0.7-1.5-1.5c0-0.8,0.7-1.5,1.5-1.5s1.5,0.7,1.5,1.5
			C-157.9,41.3-158.6,42-159.4,42z M-159.4,36.9c-0.8,0-1.5-0.7-1.5-1.5c0-0.8,0.7-1.5,1.5-1.5s1.5,0.7,1.5,1.5
			C-157.9,36.2-158.6,36.9-159.4,36.9z M-156.4,31.9h-2c-0.3,0-0.5-0.2-0.5-0.5v-1.5h-1.5c-0.3,0-0.5-0.2-0.5-0.5v-2
			c0-0.3,0.2-0.5,0.5-0.5h1.5v-1.5c0-0.3,0.2-0.5,0.5-0.5h2c0.3,0,0.5,0.2,0.5,0.5v1.5h1.5c0.3,0,0.5,0.2,0.5,0.5v2
			c0,0.3-0.2,0.5-0.5,0.5h-1.5v1.5C-155.9,31.6-156.1,31.9-156.4,31.9z M-149.3,41h-6.1c-0.3,0-0.5-0.2-0.5-0.5s0.2-0.5,0.5-0.5h6.1
			c0.3,0,0.5,0.2,0.5,0.5S-149.1,41-149.3,41z M-149.3,35.9h-6.1c-0.3,0-0.5-0.2-0.5-0.5s0.2-0.5,0.5-0.5h6.1c0.3,0,0.5,0.2,0.5,0.5
			S-149.1,35.9-149.3,35.9z M-149.9,25.8c-0.6,0-1-0.5-1-1v-2.3l3.3,3.3H-149.9z"/>
	</g>
</g>
</svg>
